<svg width="322" height="295" viewBox="0 0 322 295" fill="none" xmlns="http://www.w3.org/2000/svg">
<rect width="322" height="295" fill="#FFFFFE"/>
<path d="M118.616 28.424C118.408 28.6 118.136 28.744 117.8 28.856C117.48 28.952 117.104 29 116.672 29C116.096 29 115.616 28.928 115.232 28.784C114.864 28.64 114.624 28.392 114.512 28.04C114.064 26.632 113.696 25.496 113.408 24.632C113.12 23.752 112.896 22.984 112.736 22.328H112.616C112.568 23.272 112.528 24.136 112.496 24.92C112.48 25.688 112.464 26.44 112.448 27.176C112.448 27.912 112.432 28.656 112.4 29.408C112.384 30.16 112.352 30.992 112.304 31.904C112.096 31.984 111.824 32.048 111.488 32.096C111.152 32.16 110.816 32.192 110.48 32.192C109.776 32.192 109.224 32.08 108.824 31.856C108.44 31.632 108.248 31.224 108.248 30.632L108.944 18.392C109.072 18.184 109.352 17.96 109.784 17.72C110.216 17.48 110.824 17.36 111.608 17.36C112.456 17.36 113.12 17.496 113.6 17.768C114.08 18.024 114.432 18.448 114.656 19.04C114.8 19.424 114.952 19.864 115.112 20.36C115.288 20.856 115.456 21.368 115.616 21.896C115.792 22.424 115.96 22.952 116.12 23.48C116.28 23.992 116.424 24.456 116.552 24.872H116.672C117.056 23.528 117.44 22.232 117.824 20.984C118.208 19.72 118.56 18.664 118.88 17.816C119.12 17.688 119.424 17.584 119.792 17.504C120.176 17.408 120.6 17.36 121.064 17.36C121.848 17.36 122.488 17.48 122.984 17.72C123.48 17.944 123.768 18.272 123.848 18.704C123.912 19.024 123.976 19.52 124.04 20.192C124.12 20.848 124.2 21.592 124.28 22.424C124.36 23.256 124.44 24.136 124.52 25.064C124.6 25.992 124.672 26.888 124.736 27.752C124.816 28.6 124.88 29.384 124.928 30.104C124.976 30.808 125.008 31.352 125.024 31.736C124.752 31.896 124.464 32.008 124.16 32.072C123.872 32.152 123.496 32.192 123.032 32.192C122.424 32.192 121.912 32.088 121.496 31.88C121.08 31.672 120.856 31.264 120.824 30.656C120.728 28.912 120.664 27.344 120.632 25.952C120.616 24.56 120.584 23.392 120.536 22.448H120.416C120.256 23.072 120.024 23.856 119.72 24.8C119.416 25.744 119.048 26.952 118.616 28.424ZM133.447 32.384C132.503 32.384 131.623 32.256 130.807 32C130.007 31.728 129.303 31.328 128.695 30.8C128.103 30.272 127.631 29.608 127.279 28.808C126.943 28.008 126.775 27.072 126.775 26C126.775 24.944 126.943 24.04 127.279 23.288C127.631 22.52 128.087 21.896 128.647 21.416C129.207 20.92 129.847 20.56 130.567 20.336C131.287 20.096 132.023 19.976 132.775 19.976C133.623 19.976 134.391 20.104 135.079 20.36C135.783 20.616 136.383 20.968 136.879 21.416C137.391 21.864 137.783 22.4 138.055 23.024C138.343 23.648 138.487 24.328 138.487 25.064C138.487 25.608 138.335 26.024 138.031 26.312C137.727 26.6 137.303 26.784 136.759 26.864L130.831 27.752C131.007 28.28 131.367 28.68 131.911 28.952C132.455 29.208 133.079 29.336 133.783 29.336C134.439 29.336 135.055 29.256 135.631 29.096C136.223 28.92 136.703 28.72 137.071 28.496C137.327 28.656 137.543 28.88 137.719 29.168C137.895 29.456 137.983 29.76 137.983 30.08C137.983 30.8 137.647 31.336 136.975 31.688C136.463 31.96 135.887 32.144 135.247 32.24C134.607 32.336 134.007 32.384 133.447 32.384ZM132.775 22.952C132.391 22.952 132.055 23.016 131.767 23.144C131.495 23.272 131.271 23.44 131.095 23.648C130.919 23.84 130.783 24.064 130.687 24.32C130.607 24.56 130.559 24.808 130.543 25.064L134.647 24.392C134.599 24.072 134.423 23.752 134.119 23.432C133.815 23.112 133.367 22.952 132.775 22.952ZM150.291 28.52C150.291 29.736 149.835 30.688 148.923 31.376C148.011 32.064 146.667 32.408 144.891 32.408C144.219 32.408 143.595 32.36 143.019 32.264C142.443 32.168 141.947 32.024 141.531 31.832C141.131 31.624 140.811 31.368 140.571 31.064C140.347 30.76 140.235 30.4 140.235 29.984C140.235 29.6 140.315 29.28 140.475 29.024C140.635 28.752 140.827 28.528 141.051 28.352C141.515 28.608 142.043 28.84 142.635 29.048C143.243 29.24 143.939 29.336 144.723 29.336C145.219 29.336 145.595 29.264 145.851 29.12C146.123 28.976 146.259 28.784 146.259 28.544C146.259 28.32 146.163 28.144 145.971 28.016C145.779 27.888 145.459 27.784 145.011 27.704L144.291 27.56C142.899 27.288 141.859 26.864 141.171 26.288C140.499 25.696 140.163 24.856 140.163 23.768C140.163 23.176 140.291 22.64 140.547 22.16C140.803 21.68 141.163 21.28 141.627 20.96C142.091 20.64 142.643 20.392 143.283 20.216C143.939 20.04 144.659 19.952 145.443 19.952C146.035 19.952 146.587 20 147.099 20.096C147.627 20.176 148.083 20.304 148.467 20.48C148.851 20.656 149.155 20.888 149.379 21.176C149.603 21.448 149.715 21.776 149.715 22.16C149.715 22.528 149.643 22.848 149.499 23.12C149.371 23.376 149.203 23.592 148.995 23.768C148.867 23.688 148.675 23.608 148.419 23.528C148.163 23.432 147.883 23.352 147.579 23.288C147.275 23.208 146.963 23.144 146.643 23.096C146.339 23.048 146.059 23.024 145.803 23.024C145.275 23.024 144.867 23.088 144.579 23.216C144.291 23.328 144.147 23.512 144.147 23.768C144.147 23.944 144.227 24.088 144.387 24.2C144.547 24.312 144.851 24.416 145.299 24.512L146.043 24.68C147.579 25.032 148.667 25.52 149.307 26.144C149.963 26.752 150.291 27.544 150.291 28.52ZM156.564 26.168C156.564 25.112 156.724 24.2 157.044 23.432C157.364 22.648 157.804 22 158.364 21.488C158.94 20.976 159.604 20.6 160.356 20.36C161.124 20.104 161.948 19.976 162.828 19.976C163.148 19.976 163.46 20.008 163.764 20.072C164.068 20.12 164.316 20.184 164.508 20.264V16.376C164.668 16.328 164.924 16.28 165.276 16.232C165.628 16.168 165.988 16.136 166.356 16.136C166.708 16.136 167.02 16.16 167.292 16.208C167.58 16.256 167.82 16.352 168.012 16.496C168.204 16.64 168.348 16.84 168.444 17.096C168.54 17.336 168.588 17.656 168.588 18.056V29.432C168.588 30.184 168.236 30.784 167.532 31.232C167.068 31.536 166.468 31.8 165.732 32.024C164.996 32.264 164.148 32.384 163.188 32.384C162.148 32.384 161.212 32.24 160.38 31.952C159.564 31.664 158.868 31.248 158.292 30.704C157.732 30.16 157.3 29.512 156.996 28.76C156.708 27.992 156.564 27.128 156.564 26.168ZM163.38 23.168C162.516 23.168 161.852 23.416 161.388 23.912C160.924 24.408 160.692 25.16 160.692 26.168C160.692 27.16 160.908 27.912 161.34 28.424C161.772 28.92 162.396 29.168 163.212 29.168C163.5 29.168 163.756 29.128 163.98 29.048C164.22 28.952 164.404 28.848 164.532 28.736V23.456C164.212 23.264 163.828 23.168 163.38 23.168ZM177.299 32.384C176.355 32.384 175.475 32.256 174.659 32C173.859 31.728 173.155 31.328 172.547 30.8C171.955 30.272 171.483 29.608 171.131 28.808C170.795 28.008 170.627 27.072 170.627 26C170.627 24.944 170.795 24.04 171.131 23.288C171.483 22.52 171.939 21.896 172.499 21.416C173.059 20.92 173.699 20.56 174.419 20.336C175.139 20.096 175.875 19.976 176.627 19.976C177.475 19.976 178.243 20.104 178.931 20.36C179.635 20.616 180.235 20.968 180.731 21.416C181.243 21.864 181.635 22.4 181.907 23.024C182.195 23.648 182.339 24.328 182.339 25.064C182.339 25.608 182.187 26.024 181.883 26.312C181.579 26.6 181.155 26.784 180.611 26.864L174.683 27.752C174.859 28.28 175.219 28.68 175.763 28.952C176.307 29.208 176.931 29.336 177.635 29.336C178.291 29.336 178.907 29.256 179.483 29.096C180.075 28.92 180.555 28.72 180.923 28.496C181.179 28.656 181.395 28.88 181.571 29.168C181.747 29.456 181.835 29.76 181.835 30.08C181.835 30.8 181.499 31.336 180.827 31.688C180.315 31.96 179.739 32.144 179.099 32.24C178.459 32.336 177.859 32.384 177.299 32.384ZM176.627 22.952C176.243 22.952 175.907 23.016 175.619 23.144C175.347 23.272 175.123 23.44 174.947 23.648C174.771 23.84 174.635 24.064 174.539 24.32C174.459 24.56 174.411 24.808 174.395 25.064L178.499 24.392C178.451 24.072 178.275 23.752 177.971 23.432C177.667 23.112 177.219 22.952 176.627 22.952ZM192.009 31.688C191.785 31.864 191.457 32.008 191.025 32.12C190.593 32.232 190.105 32.288 189.561 32.288C188.937 32.288 188.393 32.208 187.929 32.048C187.481 31.888 187.169 31.632 186.993 31.28C186.849 31.008 186.673 30.632 186.465 30.152C186.273 29.656 186.065 29.112 185.841 28.52C185.617 27.912 185.385 27.264 185.145 26.576C184.905 25.888 184.673 25.208 184.449 24.536C184.241 23.864 184.049 23.216 183.873 22.592C183.697 21.968 183.553 21.416 183.441 20.936C183.665 20.712 183.961 20.52 184.329 20.36C184.713 20.184 185.129 20.096 185.577 20.096C186.137 20.096 186.593 20.216 186.945 20.456C187.313 20.68 187.585 21.112 187.761 21.752L188.697 25.424C188.873 26.144 189.041 26.8 189.201 27.392C189.361 27.968 189.481 28.416 189.561 28.736H189.681C189.985 27.552 190.305 26.24 190.641 24.8C190.977 23.36 191.281 21.944 191.553 20.552C191.825 20.408 192.129 20.296 192.465 20.216C192.817 20.136 193.153 20.096 193.473 20.096C194.033 20.096 194.505 20.216 194.889 20.456C195.273 20.696 195.465 21.112 195.465 21.704C195.465 21.96 195.401 22.336 195.273 22.832C195.161 23.312 195.009 23.864 194.817 24.488C194.641 25.096 194.425 25.744 194.169 26.432C193.929 27.12 193.681 27.792 193.425 28.448C193.169 29.104 192.913 29.72 192.657 30.296C192.417 30.856 192.201 31.32 192.009 31.688ZM197.191 17.096C197.191 16.488 197.391 15.976 197.791 15.56C198.207 15.144 198.751 14.936 199.423 14.936C200.095 14.936 200.631 15.144 201.031 15.56C201.447 15.976 201.655 16.488 201.655 17.096C201.655 17.704 201.447 18.216 201.031 18.632C200.631 19.048 200.095 19.256 199.423 19.256C198.751 19.256 198.207 19.048 197.791 18.632C197.391 18.216 197.191 17.704 197.191 17.096ZM201.463 31.976C201.287 32.008 201.023 32.048 200.671 32.096C200.335 32.16 199.991 32.192 199.639 32.192C199.287 32.192 198.967 32.168 198.679 32.12C198.407 32.072 198.175 31.976 197.983 31.832C197.791 31.688 197.639 31.496 197.527 31.256C197.431 31 197.383 30.672 197.383 30.272V20.504C197.559 20.472 197.815 20.432 198.151 20.384C198.503 20.32 198.855 20.288 199.207 20.288C199.559 20.288 199.871 20.312 200.143 20.36C200.431 20.408 200.671 20.504 200.863 20.648C201.055 20.792 201.199 20.992 201.295 21.248C201.407 21.488 201.463 21.808 201.463 22.208V31.976ZM213.901 28.52C213.901 29.736 213.445 30.688 212.533 31.376C211.621 32.064 210.277 32.408 208.501 32.408C207.829 32.408 207.205 32.36 206.629 32.264C206.053 32.168 205.557 32.024 205.141 31.832C204.741 31.624 204.421 31.368 204.181 31.064C203.957 30.76 203.845 30.4 203.845 29.984C203.845 29.6 203.925 29.28 204.085 29.024C204.245 28.752 204.437 28.528 204.661 28.352C205.125 28.608 205.653 28.84 206.245 29.048C206.853 29.24 207.549 29.336 208.333 29.336C208.829 29.336 209.205 29.264 209.461 29.12C209.733 28.976 209.868 28.784 209.868 28.544C209.868 28.32 209.773 28.144 209.581 28.016C209.389 27.888 209.069 27.784 208.621 27.704L207.901 27.56C206.509 27.288 205.469 26.864 204.781 26.288C204.109 25.696 203.773 24.856 203.773 23.768C203.773 23.176 203.901 22.64 204.157 22.16C204.413 21.68 204.773 21.28 205.237 20.96C205.701 20.64 206.253 20.392 206.893 20.216C207.549 20.04 208.269 19.952 209.053 19.952C209.645 19.952 210.197 20 210.709 20.096C211.237 20.176 211.693 20.304 212.077 20.48C212.461 20.656 212.765 20.888 212.989 21.176C213.213 21.448 213.325 21.776 213.325 22.16C213.325 22.528 213.253 22.848 213.109 23.12C212.981 23.376 212.813 23.592 212.605 23.768C212.477 23.688 212.285 23.608 212.029 23.528C211.773 23.432 211.493 23.352 211.189 23.288C210.885 23.208 210.573 23.144 210.253 23.096C209.949 23.048 209.669 23.024 209.413 23.024C208.885 23.024 208.477 23.088 208.189 23.216C207.901 23.328 207.757 23.512 207.757 23.768C207.757 23.944 207.837 24.088 207.997 24.2C208.157 24.312 208.461 24.416 208.909 24.512L209.653 24.68C211.189 25.032 212.277 25.52 212.917 26.144C213.573 26.752 213.901 27.544 213.901 28.52Z" fill="black"/>
<path d="M277.198 13.375C275.654 13.375 274.173 13.9885 273.08 15.0805C271.988 16.1725 271.375 17.6536 271.375 19.1979V39.8021C271.375 41.3464 271.988 42.8275 273.08 43.9195C274.173 45.0115 275.654 45.625 277.198 45.625H297.802C299.346 45.625 300.827 45.0115 301.92 43.9195C303.012 42.8275 303.625 41.3464 303.625 39.8021V19.1979C303.625 17.6536 303.012 16.1725 301.92 15.0805C300.827 13.9885 299.346 13.375 297.802 13.375H277.198ZM280.728 22.7275C280.979 22.4759 281.321 22.3345 281.677 22.3345C282.033 22.3345 282.375 22.4759 282.627 22.7275L287.5 27.6008L292.373 22.7275C292.496 22.5955 292.645 22.4896 292.81 22.4161C292.974 22.3427 293.152 22.3032 293.333 22.3C293.513 22.2968 293.692 22.33 293.86 22.3976C294.027 22.4652 294.179 22.5658 294.307 22.6934C294.434 22.821 294.535 22.973 294.602 23.1403C294.67 23.3076 294.703 23.4868 294.7 23.6673C294.697 23.8477 294.657 24.0256 294.584 24.1905C294.51 24.3553 294.405 24.5036 294.272 24.6267L289.399 29.5L294.272 34.3733C294.405 34.4964 294.51 34.6447 294.584 34.8095C294.657 34.9744 294.697 35.1523 294.7 35.3327C294.703 35.5132 294.67 35.6924 294.602 35.8597C294.535 36.027 294.434 36.179 294.307 36.3066C294.179 36.4342 294.027 36.5348 293.86 36.6024C293.692 36.67 293.513 36.7032 293.333 36.7C293.152 36.6968 292.974 36.6573 292.81 36.5839C292.645 36.5104 292.496 36.4045 292.373 36.2725L287.5 31.3992L282.627 36.2725C282.372 36.5099 282.035 36.6391 281.687 36.6329C281.339 36.6268 281.007 36.4858 280.76 36.2396C280.514 35.9934 280.373 35.6612 280.367 35.3131C280.361 34.965 280.49 34.6281 280.728 34.3733L285.601 29.5L280.728 24.6267C280.476 24.3747 280.335 24.0332 280.335 23.6771C280.335 23.321 280.476 22.9795 280.728 22.7275V22.7275Z" fill="#FD0000"/>
<g filter="url(#filter0_d_472_267)">
<rect x="25" y="74" width="279" height="207" fill="#FFFFFE"/>
</g>
<path d="M34.824 93.664C34.6747 93.8133 34.456 93.9253 34.168 94C33.8907 94.0853 33.5547 94.128 33.16 94.128C32.7653 94.128 32.392 94.0693 32.04 93.952C31.688 93.8347 31.4 93.552 31.176 93.104L29.592 89.872C29.432 89.5413 29.288 89.232 29.16 88.944C29.032 88.6453 28.8933 88.304 28.744 87.92L28.648 87.936C28.6907 88.512 28.712 89.0987 28.712 89.696C28.7227 90.2933 28.728 90.88 28.728 91.456V93.936C28.6107 93.968 28.4293 94 28.184 94.032C27.9493 94.064 27.7147 94.08 27.48 94.08C27.2453 94.08 27.0373 94.064 26.856 94.032C26.6747 94 26.5253 93.936 26.408 93.84C26.2907 93.744 26.2 93.616 26.136 93.456C26.072 93.2853 26.04 93.0667 26.04 92.8V84.8C26.1893 84.5867 26.4187 84.4267 26.728 84.32C27.0373 84.2133 27.368 84.16 27.72 84.16C28.1147 84.16 28.488 84.224 28.84 84.352C29.2027 84.4693 29.4907 84.7467 29.704 85.184L31.304 88.416C31.464 88.7467 31.608 89.0613 31.736 89.36C31.864 89.648 32.0027 89.984 32.152 90.368L32.232 90.352C32.1893 89.776 32.1627 89.2 32.152 88.624C32.1413 88.048 32.136 87.472 32.136 86.896V84.304C32.2533 84.272 32.4293 84.24 32.664 84.208C32.9093 84.176 33.1493 84.16 33.384 84.16C33.8533 84.16 34.2107 84.2453 34.456 84.416C34.7013 84.576 34.824 84.9173 34.824 85.44V93.664ZM44.7394 90.112C44.7394 90.7733 44.638 91.3653 44.4354 91.888C44.2327 92.4 43.9447 92.832 43.5714 93.184C43.2087 93.536 42.7714 93.8027 42.2594 93.984C41.7474 94.1653 41.1767 94.256 40.5474 94.256C39.918 94.256 39.3474 94.16 38.8354 93.968C38.3234 93.776 37.8807 93.504 37.5074 93.152C37.1447 92.7893 36.862 92.352 36.6594 91.84C36.4567 91.328 36.3554 90.752 36.3554 90.112C36.3554 89.4827 36.4567 88.912 36.6594 88.4C36.862 87.888 37.1447 87.456 37.5074 87.104C37.8807 86.7413 38.3234 86.464 38.8354 86.272C39.3474 86.08 39.918 85.984 40.5474 85.984C41.1767 85.984 41.7474 86.0853 42.2594 86.288C42.7714 86.48 43.2087 86.7573 43.5714 87.12C43.9447 87.472 44.2327 87.904 44.4354 88.416C44.638 88.928 44.7394 89.4933 44.7394 90.112ZM39.1394 90.112C39.1394 90.7627 39.262 91.264 39.5074 91.616C39.7634 91.9573 40.1154 92.128 40.5634 92.128C41.0114 92.128 41.3527 91.952 41.5874 91.6C41.8327 91.248 41.9554 90.752 41.9554 90.112C41.9554 89.472 41.8327 88.9813 41.5874 88.64C41.342 88.288 40.9954 88.112 40.5474 88.112C40.0994 88.112 39.7527 88.288 39.5074 88.64C39.262 88.9813 39.1394 89.472 39.1394 90.112ZM49.7944 85.984C50.2317 85.984 50.6584 86.048 51.0744 86.176C51.501 86.2933 51.869 86.4747 52.1784 86.72C52.4984 86.5067 52.8557 86.3307 53.2504 86.192C53.6557 86.0533 54.141 85.984 54.7064 85.984C55.1117 85.984 55.5064 86.0373 55.8904 86.144C56.285 86.2507 56.6317 86.4213 56.9304 86.656C57.2397 86.88 57.485 87.184 57.6664 87.568C57.8477 87.9413 57.9384 88.4 57.9384 88.944V93.984C57.8317 94.016 57.661 94.048 57.4264 94.08C57.2024 94.112 56.9677 94.128 56.7224 94.128C56.4877 94.128 56.2744 94.112 56.0824 94.08C55.901 94.048 55.7464 93.984 55.6184 93.888C55.4904 93.792 55.389 93.664 55.3144 93.504C55.2504 93.3333 55.2184 93.1147 55.2184 92.848V89.024C55.2184 88.704 55.1277 88.4747 54.9464 88.336C54.765 88.1867 54.5197 88.112 54.2104 88.112C54.061 88.112 53.901 88.1493 53.7304 88.224C53.5597 88.288 53.4317 88.3573 53.3464 88.432C53.357 88.4747 53.3624 88.5173 53.3624 88.56C53.3624 88.592 53.3624 88.624 53.3624 88.656V93.984C53.245 94.016 53.069 94.048 52.8344 94.08C52.6104 94.112 52.381 94.128 52.1464 94.128C51.9117 94.128 51.6984 94.112 51.5064 94.08C51.325 94.048 51.1704 93.984 51.0424 93.888C50.9144 93.792 50.813 93.664 50.7384 93.504C50.6744 93.3333 50.6424 93.1147 50.6424 92.848V89.024C50.6424 88.704 50.541 88.4747 50.3384 88.336C50.1464 88.1867 49.9117 88.112 49.6344 88.112C49.4424 88.112 49.277 88.144 49.1384 88.208C48.9997 88.2613 48.8824 88.3147 48.7864 88.368V93.984C48.6797 94.016 48.509 94.048 48.2744 94.08C48.0504 94.112 47.8157 94.128 47.5704 94.128C47.3357 94.128 47.1224 94.112 46.9304 94.08C46.749 94.048 46.5944 93.984 46.4664 93.888C46.3384 93.792 46.237 93.664 46.1624 93.504C46.0984 93.3333 46.0664 93.1147 46.0664 92.848V88.016C46.0664 87.728 46.125 87.4987 46.2424 87.328C46.3704 87.1573 46.541 86.9973 46.7544 86.848C47.117 86.592 47.565 86.384 48.0984 86.224C48.6424 86.064 49.2077 85.984 49.7944 85.984ZM62.4648 90.112C62.4648 89.408 62.5714 88.8 62.7848 88.288C62.9981 87.7653 63.2914 87.3333 63.6648 86.992C64.0488 86.6507 64.4914 86.4 64.9928 86.24C65.5048 86.0693 66.0541 85.984 66.6408 85.984C66.8541 85.984 67.0621 86.0053 67.2648 86.048C67.4674 86.08 67.6328 86.1227 67.7608 86.176V83.584C67.8674 83.552 68.0381 83.52 68.2728 83.488C68.5074 83.4453 68.7474 83.424 68.9928 83.424C69.2274 83.424 69.4354 83.44 69.6168 83.472C69.8088 83.504 69.9688 83.568 70.0968 83.664C70.2248 83.76 70.3208 83.8933 70.3848 84.064C70.4488 84.224 70.4808 84.4373 70.4808 84.704V92.288C70.4808 92.7893 70.2461 93.1893 69.7768 93.488C69.4674 93.6907 69.0674 93.8667 68.5768 94.016C68.0861 94.176 67.5208 94.256 66.8808 94.256C66.1874 94.256 65.5634 94.16 65.0088 93.968C64.4648 93.776 64.0008 93.4987 63.6168 93.136C63.2434 92.7733 62.9554 92.3413 62.7528 91.84C62.5608 91.328 62.4648 90.752 62.4648 90.112ZM67.0088 88.112C66.4328 88.112 65.9901 88.2773 65.6808 88.608C65.3714 88.9387 65.2168 89.44 65.2168 90.112C65.2168 90.7733 65.3608 91.2747 65.6488 91.616C65.9368 91.9467 66.3528 92.112 66.8968 92.112C67.0888 92.112 67.2594 92.0853 67.4088 92.032C67.5688 91.968 67.6914 91.8987 67.7768 91.824V88.304C67.5634 88.176 67.3074 88.112 67.0088 88.112ZM72.1758 86.336C72.2824 86.304 72.4478 86.272 72.6718 86.24C72.9064 86.208 73.1464 86.192 73.3918 86.192C73.6264 86.192 73.8344 86.208 74.0158 86.24C74.2078 86.272 74.3678 86.336 74.4958 86.432C74.6238 86.528 74.7198 86.6613 74.7838 86.832C74.8584 86.992 74.8958 87.2053 74.8958 87.472V90.912C74.8958 91.3493 75.0024 91.664 75.2158 91.856C75.4291 92.0373 75.7384 92.128 76.1438 92.128C76.3891 92.128 76.5864 92.1067 76.7358 92.064C76.8958 92.0213 77.0184 91.9787 77.1038 91.936V86.336C77.2104 86.304 77.3758 86.272 77.5998 86.24C77.8344 86.208 78.0744 86.192 78.3198 86.192C78.5544 86.192 78.7624 86.208 78.9438 86.24C79.1358 86.272 79.2958 86.336 79.4237 86.432C79.5518 86.528 79.6478 86.6613 79.7118 86.832C79.7864 86.992 79.8238 87.2053 79.8238 87.472V92.336C79.8238 92.8693 79.5998 93.2693 79.1518 93.536C78.7784 93.7707 78.3304 93.9467 77.8078 94.064C77.2958 94.192 76.7358 94.256 76.1278 94.256C75.5518 94.256 75.0184 94.192 74.5278 94.064C74.0478 93.936 73.6318 93.7387 73.2798 93.472C72.9278 93.2053 72.6558 92.864 72.4638 92.448C72.2718 92.0213 72.1758 91.5093 72.1758 90.912V86.336ZM84.3554 90.112C84.3554 89.408 84.462 88.8 84.6754 88.288C84.8887 87.7653 85.182 87.3333 85.5554 86.992C85.9394 86.6507 86.382 86.4 86.8834 86.24C87.3954 86.0693 87.9447 85.984 88.5314 85.984C88.7447 85.984 88.9527 86.0053 89.1554 86.048C89.358 86.08 89.5234 86.1227 89.6514 86.176V83.584C89.758 83.552 89.9287 83.52 90.1634 83.488C90.398 83.4453 90.638 83.424 90.8834 83.424C91.118 83.424 91.326 83.44 91.5074 83.472C91.6994 83.504 91.8594 83.568 91.9874 83.664C92.1154 83.76 92.2114 83.8933 92.2754 84.064C92.3394 84.224 92.3714 84.4373 92.3714 84.704V92.288C92.3714 92.7893 92.1367 93.1893 91.6674 93.488C91.358 93.6907 90.958 93.8667 90.4674 94.016C89.9767 94.176 89.4114 94.256 88.7714 94.256C88.078 94.256 87.454 94.16 86.8994 93.968C86.3554 93.776 85.8914 93.4987 85.5074 93.136C85.134 92.7733 84.846 92.3413 84.6434 91.84C84.4514 91.328 84.3554 90.752 84.3554 90.112ZM88.8994 88.112C88.3234 88.112 87.8807 88.2773 87.5714 88.608C87.262 88.9387 87.1074 89.44 87.1074 90.112C87.1074 90.7733 87.2514 91.2747 87.5394 91.616C87.8274 91.9467 88.2434 92.112 88.7874 92.112C88.9794 92.112 89.15 92.0853 89.2994 92.032C89.4594 91.968 89.582 91.8987 89.6674 91.824V88.304C89.454 88.176 89.198 88.112 88.8994 88.112ZM98.1784 94.256C97.549 94.256 96.9624 94.1707 96.4184 94C95.885 93.8187 95.4157 93.552 95.0104 93.2C94.6157 92.848 94.301 92.4053 94.0664 91.872C93.8424 91.3387 93.7304 90.7147 93.7304 90C93.7304 89.296 93.8424 88.6933 94.0664 88.192C94.301 87.68 94.605 87.264 94.9784 86.944C95.3517 86.6133 95.7784 86.3733 96.2584 86.224C96.7384 86.064 97.229 85.984 97.7304 85.984C98.2957 85.984 98.8077 86.0693 99.2664 86.24C99.7357 86.4107 100.136 86.6453 100.466 86.944C100.808 87.2427 101.069 87.6 101.25 88.016C101.442 88.432 101.538 88.8853 101.538 89.376C101.538 89.7387 101.437 90.016 101.234 90.208C101.032 90.4 100.749 90.5227 100.386 90.576L96.4344 91.168C96.5517 91.52 96.7917 91.7867 97.1544 91.968C97.517 92.1387 97.933 92.224 98.4024 92.224C98.8397 92.224 99.2504 92.1707 99.6344 92.064C100.029 91.9467 100.349 91.8133 100.594 91.664C100.765 91.7707 100.909 91.92 101.026 92.112C101.144 92.304 101.202 92.5067 101.202 92.72C101.202 93.2 100.978 93.5573 100.53 93.792C100.189 93.9733 99.805 94.096 99.3784 94.16C98.9517 94.224 98.5517 94.256 98.1784 94.256ZM97.7304 87.968C97.4744 87.968 97.2504 88.0107 97.0584 88.096C96.877 88.1813 96.7277 88.2933 96.6104 88.432C96.493 88.56 96.4024 88.7093 96.3384 88.88C96.285 89.04 96.253 89.2053 96.2424 89.376L98.9784 88.928C98.9464 88.7147 98.829 88.5013 98.6264 88.288C98.4237 88.0747 98.125 87.968 97.7304 87.968ZM107.985 93.792C107.836 93.9093 107.617 94.0053 107.329 94.08C107.041 94.1547 106.716 94.192 106.353 94.192C105.937 94.192 105.574 94.1387 105.265 94.032C104.966 93.9253 104.758 93.7547 104.641 93.52C104.545 93.3387 104.428 93.088 104.289 92.768C104.161 92.4373 104.022 92.0747 103.873 91.68C103.724 91.2747 103.569 90.8427 103.409 90.384C103.249 89.9253 103.094 89.472 102.945 89.024C102.806 88.576 102.678 88.144 102.561 87.728C102.444 87.312 102.348 86.944 102.273 86.624C102.422 86.4747 102.62 86.3467 102.865 86.24C103.121 86.1227 103.398 86.064 103.697 86.064C104.07 86.064 104.374 86.144 104.609 86.304C104.854 86.4533 105.036 86.7413 105.153 87.168L105.777 89.616C105.894 90.096 106.006 90.5333 106.113 90.928C106.22 91.312 106.3 91.6107 106.353 91.824H106.433C106.636 91.0347 106.849 90.16 107.073 89.2C107.297 88.24 107.5 87.296 107.681 86.368C107.862 86.272 108.065 86.1973 108.289 86.144C108.524 86.0907 108.748 86.064 108.961 86.064C109.334 86.064 109.649 86.144 109.905 86.304C110.161 86.464 110.289 86.7413 110.289 87.136C110.289 87.3067 110.246 87.5573 110.161 87.888C110.086 88.208 109.985 88.576 109.857 88.992C109.74 89.3973 109.596 89.8293 109.425 90.288C109.265 90.7467 109.1 91.1947 108.929 91.632C108.758 92.0693 108.588 92.48 108.417 92.864C108.257 93.2373 108.113 93.5467 107.985 93.792ZM111.44 84.064C111.44 83.6587 111.573 83.3173 111.84 83.04C112.117 82.7627 112.48 82.624 112.928 82.624C113.376 82.624 113.733 82.7627 114 83.04C114.277 83.3173 114.416 83.6587 114.416 84.064C114.416 84.4693 114.277 84.8107 114 85.088C113.733 85.3653 113.376 85.504 112.928 85.504C112.48 85.504 112.117 85.3653 111.84 85.088C111.573 84.8107 111.44 84.4693 111.44 84.064ZM114.288 93.984C114.171 94.0053 113.995 94.032 113.76 94.064C113.536 94.1067 113.307 94.128 113.072 94.128C112.837 94.128 112.624 94.112 112.432 94.08C112.251 94.048 112.096 93.984 111.968 93.888C111.84 93.792 111.739 93.664 111.664 93.504C111.6 93.3333 111.568 93.1147 111.568 92.848V86.336C111.685 86.3147 111.856 86.288 112.08 86.256C112.315 86.2133 112.549 86.192 112.784 86.192C113.019 86.192 113.227 86.208 113.408 86.24C113.6 86.272 113.76 86.336 113.888 86.432C114.016 86.528 114.112 86.6613 114.176 86.832C114.251 86.992 114.288 87.2053 114.288 87.472V93.984ZM122.58 91.68C122.58 92.4907 122.276 93.1253 121.668 93.584C121.06 94.0427 120.164 94.272 118.98 94.272C118.532 94.272 118.116 94.24 117.732 94.176C117.348 94.112 117.017 94.016 116.74 93.888C116.473 93.7493 116.26 93.5787 116.1 93.376C115.95 93.1733 115.876 92.9333 115.876 92.656C115.876 92.4 115.929 92.1867 116.036 92.016C116.142 91.8347 116.27 91.6853 116.42 91.568C116.729 91.7387 117.081 91.8933 117.476 92.032C117.881 92.16 118.345 92.224 118.868 92.224C119.198 92.224 119.449 92.176 119.62 92.08C119.801 91.984 119.891 91.856 119.891 91.696C119.891 91.5467 119.828 91.4293 119.7 91.344C119.572 91.2587 119.358 91.1893 119.06 91.136L118.58 91.04C117.652 90.8587 116.958 90.576 116.5 90.192C116.052 89.7973 115.828 89.2373 115.828 88.512C115.828 88.1173 115.913 87.76 116.084 87.44C116.254 87.12 116.494 86.8533 116.804 86.64C117.113 86.4267 117.481 86.2613 117.908 86.144C118.345 86.0267 118.825 85.968 119.348 85.968C119.742 85.968 120.11 86 120.452 86.064C120.804 86.1173 121.108 86.2027 121.364 86.32C121.62 86.4373 121.822 86.592 121.972 86.784C122.121 86.9653 122.196 87.184 122.196 87.44C122.196 87.6853 122.148 87.8987 122.052 88.08C121.966 88.2507 121.854 88.3947 121.716 88.512C121.63 88.4587 121.502 88.4053 121.332 88.352C121.161 88.288 120.974 88.2347 120.772 88.192C120.569 88.1387 120.361 88.096 120.148 88.064C119.945 88.032 119.758 88.016 119.588 88.016C119.236 88.016 118.964 88.0587 118.772 88.144C118.58 88.2187 118.484 88.3413 118.484 88.512C118.484 88.6293 118.537 88.7253 118.644 88.8C118.75 88.8747 118.953 88.944 119.252 89.008L119.748 89.12C120.772 89.3547 121.497 89.68 121.924 90.096C122.361 90.5013 122.58 91.0293 122.58 91.68Z" fill="black"/>
<path d="M170.6 90.784C171.096 90.784 171.541 90.7147 171.936 90.576C172.331 90.4373 172.664 90.2453 172.936 90C173.213 89.7547 173.424 89.4667 173.568 89.136C173.717 88.8 173.792 88.4347 173.792 88.04C173.792 87.1707 173.525 86.5013 172.992 86.032C172.459 85.5627 171.661 85.328 170.6 85.328H168.496V90.784H170.6ZM170.6 84.68C171.928 84.68 172.928 84.9707 173.6 85.552C174.277 86.1333 174.616 86.9627 174.616 88.04C174.616 88.536 174.523 88.992 174.336 89.408C174.149 89.824 173.883 90.184 173.536 90.488C173.189 90.7867 172.768 91.0213 172.272 91.192C171.776 91.3573 171.219 91.44 170.6 91.44H168.496V96H167.672V84.68H170.6ZM177.332 88.04V96H176.572V88.04H177.332ZM177.66 85.296C177.66 85.392 177.639 85.4827 177.596 85.568C177.559 85.648 177.508 85.72 177.444 85.784C177.38 85.848 177.305 85.8987 177.22 85.936C177.135 85.9733 177.044 85.992 176.948 85.992C176.852 85.992 176.761 85.9733 176.676 85.936C176.591 85.8987 176.516 85.848 176.452 85.784C176.388 85.72 176.337 85.648 176.3 85.568C176.263 85.4827 176.244 85.392 176.244 85.296C176.244 85.2 176.263 85.1093 176.3 85.024C176.337 84.9333 176.388 84.856 176.452 84.792C176.516 84.728 176.591 84.6773 176.676 84.64C176.761 84.6027 176.852 84.584 176.948 84.584C177.044 84.584 177.135 84.6027 177.22 84.64C177.305 84.6773 177.38 84.728 177.444 84.792C177.508 84.856 177.559 84.9333 177.596 85.024C177.639 85.1093 177.66 85.2 177.66 85.296ZM185.63 91.216C185.63 90.7893 185.569 90.408 185.446 90.072C185.329 89.7307 185.161 89.4427 184.942 89.208C184.724 88.9733 184.462 88.7947 184.158 88.672C183.86 88.544 183.529 88.48 183.166 88.48C182.756 88.48 182.388 88.544 182.062 88.672C181.737 88.8 181.454 88.984 181.214 89.224C180.98 89.464 180.79 89.752 180.646 90.088C180.502 90.424 180.406 90.8 180.358 91.216H185.63ZM180.318 91.704V91.856C180.318 92.4533 180.388 92.9787 180.526 93.432C180.665 93.8853 180.862 94.2667 181.118 94.576C181.374 94.88 181.684 95.1093 182.046 95.264C182.409 95.4187 182.814 95.496 183.262 95.496C183.662 95.496 184.009 95.4533 184.302 95.368C184.596 95.2773 184.841 95.1787 185.038 95.072C185.241 94.96 185.401 94.8613 185.518 94.776C185.636 94.6853 185.721 94.64 185.774 94.64C185.844 94.64 185.897 94.6667 185.934 94.72L186.142 94.976C186.014 95.136 185.844 95.2853 185.63 95.424C185.422 95.5627 185.188 95.6827 184.926 95.784C184.67 95.88 184.393 95.9573 184.094 96.016C183.801 96.0747 183.505 96.104 183.206 96.104C182.662 96.104 182.166 96.0107 181.718 95.824C181.27 95.632 180.886 95.3547 180.566 94.992C180.246 94.6293 179.998 94.1867 179.822 93.664C179.652 93.136 179.566 92.5333 179.566 91.856C179.566 91.2853 179.646 90.76 179.806 90.28C179.972 89.7947 180.206 89.3787 180.51 89.032C180.82 88.68 181.196 88.4053 181.638 88.208C182.086 88.0107 182.593 87.912 183.158 87.912C183.606 87.912 184.022 87.9893 184.406 88.144C184.79 88.2987 185.124 88.5253 185.406 88.824C185.689 89.1173 185.91 89.48 186.07 89.912C186.236 90.344 186.318 90.84 186.318 91.4C186.318 91.5173 186.302 91.5973 186.27 91.64C186.238 91.6827 186.185 91.704 186.11 91.704H180.318ZM189.118 89.96C189.241 89.6347 189.379 89.3467 189.534 89.096C189.694 88.84 189.875 88.624 190.078 88.448C190.286 88.272 190.515 88.1387 190.766 88.048C191.022 87.952 191.305 87.904 191.614 87.904C191.779 87.904 191.942 87.92 192.102 87.952C192.262 87.9787 192.403 88.0293 192.526 88.104L192.462 88.632C192.435 88.7173 192.385 88.76 192.31 88.76C192.246 88.76 192.147 88.7413 192.014 88.704C191.886 88.6667 191.715 88.648 191.502 88.648C191.193 88.648 190.918 88.696 190.678 88.792C190.443 88.8827 190.23 89.0213 190.038 89.208C189.851 89.3947 189.686 89.6267 189.542 89.904C189.403 90.176 189.275 90.4907 189.158 90.848V96H188.39V88.04H188.798C188.889 88.04 188.953 88.0587 188.99 88.096C189.027 88.1333 189.051 88.1973 189.062 88.288L189.118 89.96ZM194.774 89.96C194.897 89.6347 195.036 89.3467 195.19 89.096C195.35 88.84 195.532 88.624 195.734 88.448C195.942 88.272 196.172 88.1387 196.422 88.048C196.678 87.952 196.961 87.904 197.27 87.904C197.436 87.904 197.598 87.92 197.758 87.952C197.918 87.9787 198.06 88.0293 198.182 88.104L198.118 88.632C198.092 88.7173 198.041 88.76 197.966 88.76C197.902 88.76 197.804 88.7413 197.67 88.704C197.542 88.6667 197.372 88.648 197.158 88.648C196.849 88.648 196.574 88.696 196.334 88.792C196.1 88.8827 195.886 89.0213 195.694 89.208C195.508 89.3947 195.342 89.6267 195.198 89.904C195.06 90.176 194.932 90.4907 194.814 90.848V96H194.046V88.04H194.454C194.545 88.04 194.609 88.0587 194.646 88.096C194.684 88.1333 194.708 88.1973 194.718 88.288L194.774 89.96ZM204.834 91.216C204.834 90.7893 204.772 90.408 204.65 90.072C204.532 89.7307 204.364 89.4427 204.146 89.208C203.927 88.9733 203.666 88.7947 203.362 88.672C203.063 88.544 202.732 88.48 202.37 88.48C201.959 88.48 201.591 88.544 201.266 88.672C200.94 88.8 200.658 88.984 200.418 89.224C200.183 89.464 199.994 89.752 199.85 90.088C199.706 90.424 199.61 90.8 199.562 91.216H204.834ZM199.522 91.704V91.856C199.522 92.4533 199.591 92.9787 199.73 93.432C199.868 93.8853 200.066 94.2667 200.322 94.576C200.578 94.88 200.887 95.1093 201.25 95.264C201.612 95.4187 202.018 95.496 202.466 95.496C202.866 95.496 203.212 95.4533 203.506 95.368C203.799 95.2773 204.044 95.1787 204.242 95.072C204.444 94.96 204.604 94.8613 204.722 94.776C204.839 94.6853 204.924 94.64 204.978 94.64C205.047 94.64 205.1 94.6667 205.138 94.72L205.346 94.976C205.218 95.136 205.047 95.2853 204.834 95.424C204.626 95.5627 204.391 95.6827 204.13 95.784C203.874 95.88 203.596 95.9573 203.298 96.016C203.004 96.0747 202.708 96.104 202.41 96.104C201.866 96.104 201.37 96.0107 200.922 95.824C200.474 95.632 200.09 95.3547 199.77 94.992C199.45 94.6293 199.202 94.1867 199.026 93.664C198.855 93.136 198.77 92.5333 198.77 91.856C198.77 91.2853 198.85 90.76 199.01 90.28C199.175 89.7947 199.41 89.3787 199.714 89.032C200.023 88.68 200.399 88.4053 200.842 88.208C201.29 88.0107 201.796 87.912 202.362 87.912C202.81 87.912 203.226 87.9893 203.61 88.144C203.994 88.2987 204.327 88.5253 204.61 88.824C204.892 89.1173 205.114 89.48 205.274 89.912C205.439 90.344 205.522 90.84 205.522 91.4C205.522 91.5173 205.506 91.5973 205.474 91.64C205.442 91.6827 205.388 91.704 205.314 91.704H199.522ZM207.385 90.928H211.105V91.576H207.385V90.928ZM220.179 95.408V96H214.339V95.408H216.939V86.224C216.939 86.0427 216.947 85.8507 216.963 85.648L214.467 87.864C214.392 87.928 214.318 87.952 214.243 87.936C214.168 87.92 214.11 87.888 214.067 87.84L213.835 87.52L217.107 84.632H217.707V95.408H220.179ZM222.588 90.928H226.308V91.576H222.588V90.928ZM238.614 90.336C238.614 91.2107 238.484 91.9973 238.222 92.696C237.961 93.3947 237.593 93.9893 237.118 94.48C236.644 94.9707 236.073 95.3467 235.406 95.608C234.745 95.8693 234.014 96 233.214 96H229.078V84.68H233.214C234.014 84.68 234.745 84.8107 235.406 85.072C236.073 85.3333 236.644 85.7093 237.118 86.2C237.593 86.6907 237.961 87.2853 238.222 87.984C238.484 88.6827 238.614 89.4667 238.614 90.336ZM237.766 90.336C237.766 89.5467 237.657 88.8427 237.438 88.224C237.22 87.6053 236.91 87.0827 236.51 86.656C236.11 86.2293 235.63 85.904 235.07 85.68C234.51 85.456 233.892 85.344 233.214 85.344H229.902V95.336H233.214C233.892 95.336 234.51 95.224 235.07 95C235.63 94.776 236.11 94.4507 236.51 94.024C236.91 93.5973 237.22 93.0747 237.438 92.456C237.657 91.8373 237.766 91.1307 237.766 90.336ZM248.035 95.32L248.019 96H241.235V84.68H248.019V85.36H242.059V89.936H247.019V90.6H242.059V95.32H248.035ZM259.124 84.68L254.452 96H253.724L249.052 84.68H249.7C249.774 84.68 249.836 84.7013 249.884 84.744C249.932 84.7813 249.969 84.832 249.996 84.896L253.852 94.288C253.894 94.4053 253.937 94.5307 253.98 94.664C254.022 94.7973 254.062 94.9333 254.1 95.072C254.132 94.9333 254.166 94.7973 254.204 94.664C254.241 94.5307 254.284 94.4053 254.332 94.288L258.18 84.896C258.201 84.8373 258.238 84.7867 258.292 84.744C258.345 84.7013 258.409 84.68 258.484 84.68H259.124ZM259.948 90.928H263.668V91.576H259.948V90.928ZM273.462 90.336C273.462 91.328 273.355 92.1867 273.142 92.912C272.928 93.6373 272.638 94.2373 272.27 94.712C271.902 95.1867 271.47 95.5413 270.974 95.776C270.483 96.0053 269.958 96.12 269.398 96.12C268.838 96.12 268.312 96.0053 267.822 95.776C267.331 95.5413 266.902 95.1867 266.534 94.712C266.166 94.2373 265.875 93.6373 265.662 92.912C265.454 92.1867 265.35 91.328 265.35 90.336C265.35 89.344 265.454 88.4853 265.662 87.76C265.875 87.0347 266.166 86.4347 266.534 85.96C266.902 85.4853 267.331 85.1333 267.822 84.904C268.312 84.6693 268.838 84.552 269.398 84.552C269.958 84.552 270.483 84.6693 270.974 84.904C271.47 85.1333 271.902 85.4853 272.27 85.96C272.638 86.4347 272.928 87.0347 273.142 87.76C273.355 88.4853 273.462 89.344 273.462 90.336ZM272.662 90.336C272.662 89.4187 272.574 88.6347 272.398 87.984C272.222 87.3333 271.984 86.8027 271.686 86.392C271.392 85.976 271.046 85.672 270.646 85.48C270.251 85.288 269.835 85.192 269.398 85.192C268.96 85.192 268.544 85.288 268.15 85.48C267.755 85.672 267.408 85.976 267.11 86.392C266.811 86.8027 266.574 87.3333 266.398 87.984C266.222 88.6347 266.134 89.4187 266.134 90.336C266.134 91.2587 266.222 92.0453 266.398 92.696C266.574 93.3413 266.811 93.872 267.11 94.288C267.408 94.6987 267.755 95 268.15 95.192C268.544 95.3787 268.96 95.472 269.398 95.472C269.835 95.472 270.251 95.3787 270.646 95.192C271.046 95 271.392 94.6987 271.686 94.288C271.984 93.872 272.222 93.3413 272.398 92.696C272.574 92.0453 272.662 91.2587 272.662 90.336ZM282.743 90.336C282.743 91.328 282.636 92.1867 282.423 92.912C282.21 93.6373 281.919 94.2373 281.551 94.712C281.183 95.1867 280.751 95.5413 280.255 95.776C279.764 96.0053 279.239 96.12 278.679 96.12C278.119 96.12 277.594 96.0053 277.103 95.776C276.612 95.5413 276.183 95.1867 275.815 94.712C275.447 94.2373 275.156 93.6373 274.943 92.912C274.735 92.1867 274.631 91.328 274.631 90.336C274.631 89.344 274.735 88.4853 274.943 87.76C275.156 87.0347 275.447 86.4347 275.815 85.96C276.183 85.4853 276.612 85.1333 277.103 84.904C277.594 84.6693 278.119 84.552 278.679 84.552C279.239 84.552 279.764 84.6693 280.255 84.904C280.751 85.1333 281.183 85.4853 281.551 85.96C281.919 86.4347 282.21 87.0347 282.423 87.76C282.636 88.4853 282.743 89.344 282.743 90.336ZM281.943 90.336C281.943 89.4187 281.855 88.6347 281.679 87.984C281.503 87.3333 281.266 86.8027 280.967 86.392C280.674 85.976 280.327 85.672 279.927 85.48C279.532 85.288 279.116 85.192 278.679 85.192C278.242 85.192 277.826 85.288 277.431 85.48C277.036 85.672 276.69 85.976 276.391 86.392C276.092 86.8027 275.855 87.3333 275.679 87.984C275.503 88.6347 275.415 89.4187 275.415 90.336C275.415 91.2587 275.503 92.0453 275.679 92.696C275.855 93.3413 276.092 93.872 276.391 94.288C276.69 94.6987 277.036 95 277.431 95.192C277.826 95.3787 278.242 95.472 278.679 95.472C279.116 95.472 279.532 95.3787 279.927 95.192C280.327 95 280.674 94.6987 280.967 94.288C281.266 93.872 281.503 93.3413 281.679 92.696C281.855 92.0453 281.943 91.2587 281.943 90.336ZM291.304 95.408V96H285.464V95.408H288.064V86.224C288.064 86.0427 288.072 85.8507 288.088 85.648L285.592 87.864C285.517 87.928 285.443 87.952 285.368 87.936C285.293 87.92 285.235 87.888 285.192 87.84L284.96 87.52L288.232 84.632H288.832V95.408H291.304Z" fill="black"/>
<path d="M28.824 131.92C28.9413 131.941 29.0853 131.963 29.256 131.984C29.4267 131.995 29.5867 132 29.736 132C30.0987 132 30.4293 131.947 30.728 131.84C31.0373 131.733 31.2987 131.568 31.512 131.344C31.736 131.12 31.9067 130.832 32.024 130.48C32.152 130.117 32.216 129.685 32.216 129.184C32.216 128.224 31.992 127.504 31.544 127.024C31.096 126.533 30.4987 126.288 29.752 126.288C29.6027 126.288 29.448 126.293 29.288 126.304C29.1387 126.315 28.984 126.331 28.824 126.352V131.92ZM29.72 134.256C29.5387 134.256 29.3307 134.251 29.096 134.24C28.8613 134.229 28.616 134.208 28.36 134.176C28.1147 134.144 27.864 134.101 27.608 134.048C27.3627 134.005 27.1333 133.941 26.92 133.856C26.3333 133.632 26.04 133.243 26.04 132.688V125.216C26.04 124.992 26.0987 124.821 26.216 124.704C26.344 124.576 26.5147 124.475 26.728 124.4C27.1867 124.251 27.672 124.155 28.184 124.112C28.696 124.059 29.1547 124.032 29.56 124.032C30.392 124.032 31.144 124.133 31.816 124.336C32.4987 124.539 33.08 124.853 33.56 125.28C34.0507 125.696 34.4293 126.224 34.696 126.864C34.9627 127.504 35.096 128.261 35.096 129.136C35.096 129.989 34.968 130.736 34.712 131.376C34.456 132.005 34.088 132.539 33.608 132.976C33.1387 133.403 32.5733 133.723 31.912 133.936C31.2507 134.149 30.52 134.256 29.72 134.256ZM39.8163 132.272C39.9976 132.272 40.1949 132.256 40.4083 132.224C40.6323 132.181 40.7976 132.128 40.9043 132.064V130.784L39.7523 130.88C39.4536 130.901 39.2083 130.965 39.0163 131.072C38.8243 131.179 38.7283 131.339 38.7283 131.552C38.7283 131.765 38.8083 131.941 38.9683 132.08C39.1389 132.208 39.4216 132.272 39.8163 132.272ZM39.6883 125.984C40.2643 125.984 40.7869 126.043 41.2563 126.16C41.7363 126.277 42.1416 126.459 42.4723 126.704C42.8136 126.939 43.0749 127.243 43.2563 127.616C43.4376 127.979 43.5283 128.411 43.5283 128.912V132.496C43.5283 132.773 43.4483 133.003 43.2883 133.184C43.1389 133.355 42.9576 133.504 42.7443 133.632C42.0509 134.048 41.0749 134.256 39.8163 134.256C39.2509 134.256 38.7389 134.203 38.2803 134.096C37.8323 133.989 37.4429 133.829 37.1123 133.616C36.7923 133.403 36.5416 133.131 36.3603 132.8C36.1896 132.469 36.1043 132.085 36.1043 131.648C36.1043 130.912 36.3229 130.347 36.7603 129.952C37.1976 129.557 37.8749 129.312 38.7923 129.216L40.8883 128.992V128.88C40.8883 128.571 40.7496 128.352 40.4723 128.224C40.2056 128.085 39.8163 128.016 39.3043 128.016C38.8989 128.016 38.5043 128.059 38.1203 128.144C37.7363 128.229 37.3896 128.336 37.0803 128.464C36.9416 128.368 36.8243 128.224 36.7283 128.032C36.6323 127.829 36.5843 127.621 36.5843 127.408C36.5843 127.131 36.6483 126.912 36.7763 126.752C36.9149 126.581 37.1229 126.437 37.4003 126.32C37.7096 126.203 38.0723 126.117 38.4883 126.064C38.9149 126.011 39.3149 125.984 39.6883 125.984ZM47.9114 131.328C47.9114 131.605 47.9967 131.803 48.1674 131.92C48.3487 132.037 48.5994 132.096 48.9194 132.096C49.0794 132.096 49.2447 132.085 49.4154 132.064C49.586 132.032 49.7354 131.995 49.8634 131.952C49.9594 132.069 50.0394 132.203 50.1034 132.352C50.178 132.491 50.2154 132.661 50.2154 132.864C50.2154 133.269 50.0607 133.6 49.7514 133.856C49.4527 134.112 48.9194 134.24 48.1514 134.24C47.2127 134.24 46.4874 134.027 45.9754 133.6C45.474 133.173 45.2234 132.48 45.2234 131.52V124.672C45.3407 124.64 45.506 124.608 45.7194 124.576C45.9434 124.533 46.178 124.512 46.4234 124.512C46.8927 124.512 47.2554 124.597 47.5114 124.768C47.778 124.928 47.9114 125.275 47.9114 125.808V126.832H50.0074C50.0714 126.949 50.13 127.099 50.1834 127.28C50.2474 127.451 50.2794 127.643 50.2794 127.856C50.2794 128.229 50.194 128.501 50.0234 128.672C49.8634 128.832 49.6447 128.912 49.3674 128.912H47.9114V131.328ZM55.6159 134.256C54.9865 134.256 54.3999 134.171 53.8559 134C53.3225 133.819 52.8532 133.552 52.4479 133.2C52.0532 132.848 51.7385 132.405 51.5039 131.872C51.2799 131.339 51.1679 130.715 51.1679 130C51.1679 129.296 51.2799 128.693 51.5039 128.192C51.7385 127.68 52.0425 127.264 52.4159 126.944C52.7892 126.613 53.2159 126.373 53.6959 126.224C54.1759 126.064 54.6665 125.984 55.1679 125.984C55.7332 125.984 56.2452 126.069 56.7039 126.24C57.1732 126.411 57.5732 126.645 57.9039 126.944C58.2452 127.243 58.5065 127.6 58.6879 128.016C58.8799 128.432 58.9759 128.885 58.9759 129.376C58.9759 129.739 58.8745 130.016 58.6719 130.208C58.4692 130.4 58.1865 130.523 57.8239 130.576L53.8719 131.168C53.9892 131.52 54.2292 131.787 54.5919 131.968C54.9545 132.139 55.3705 132.224 55.8399 132.224C56.2772 132.224 56.6879 132.171 57.0719 132.064C57.4665 131.947 57.7865 131.813 58.0319 131.664C58.2025 131.771 58.3465 131.92 58.4639 132.112C58.5812 132.304 58.6399 132.507 58.6399 132.72C58.6399 133.2 58.4159 133.557 57.9679 133.792C57.6265 133.973 57.2425 134.096 56.8159 134.16C56.3892 134.224 55.9892 134.256 55.6159 134.256ZM55.1679 127.968C54.9119 127.968 54.6879 128.011 54.4959 128.096C54.3145 128.181 54.1652 128.293 54.0479 128.432C53.9305 128.56 53.8399 128.709 53.7759 128.88C53.7225 129.04 53.6905 129.205 53.6799 129.376L56.4159 128.928C56.3839 128.715 56.2665 128.501 56.0639 128.288C55.8612 128.075 55.5625 127.968 55.1679 127.968Z" fill="black"/>
<path d="M205.153 130.336C205.153 131.328 205.046 132.187 204.833 132.912C204.619 133.637 204.329 134.237 203.961 134.712C203.593 135.187 203.161 135.541 202.665 135.776C202.174 136.005 201.649 136.12 201.089 136.12C200.529 136.12 200.003 136.005 199.513 135.776C199.022 135.541 198.593 135.187 198.225 134.712C197.857 134.237 197.566 133.637 197.353 132.912C197.145 132.187 197.041 131.328 197.041 130.336C197.041 129.344 197.145 128.485 197.353 127.76C197.566 127.035 197.857 126.435 198.225 125.96C198.593 125.485 199.022 125.133 199.513 124.904C200.003 124.669 200.529 124.552 201.089 124.552C201.649 124.552 202.174 124.669 202.665 124.904C203.161 125.133 203.593 125.485 203.961 125.96C204.329 126.435 204.619 127.035 204.833 127.76C205.046 128.485 205.153 129.344 205.153 130.336ZM204.353 130.336C204.353 129.419 204.265 128.635 204.089 127.984C203.913 127.333 203.675 126.803 203.377 126.392C203.083 125.976 202.737 125.672 202.337 125.48C201.942 125.288 201.526 125.192 201.089 125.192C200.651 125.192 200.235 125.288 199.841 125.48C199.446 125.672 199.099 125.976 198.801 126.392C198.502 126.803 198.265 127.333 198.089 127.984C197.913 128.635 197.825 129.419 197.825 130.336C197.825 131.259 197.913 132.045 198.089 132.696C198.265 133.341 198.502 133.872 198.801 134.288C199.099 134.699 199.446 135 199.841 135.192C200.235 135.379 200.651 135.472 201.089 135.472C201.526 135.472 201.942 135.379 202.337 135.192C202.737 135 203.083 134.699 203.377 134.288C203.675 133.872 203.913 133.341 204.089 132.696C204.265 132.045 204.353 131.259 204.353 130.336ZM214.274 124.68V125.024C214.274 125.115 214.263 125.195 214.242 125.264C214.22 125.328 214.196 125.384 214.17 125.432L208.986 135.712C208.943 135.797 208.884 135.867 208.81 135.92C208.74 135.973 208.647 136 208.53 136H208.002L213.234 125.76C213.303 125.621 213.386 125.496 213.482 125.384H206.954C206.895 125.384 206.844 125.363 206.802 125.32C206.759 125.277 206.738 125.227 206.738 125.168V124.68H214.274ZM216.395 136.36C216.352 136.467 216.288 136.544 216.203 136.592C216.118 136.645 216.03 136.672 215.939 136.672H215.627L220.603 124.656C220.683 124.459 220.827 124.36 221.035 124.36H221.363L216.395 136.36ZM230.668 130.336C230.668 131.328 230.562 132.187 230.348 132.912C230.135 133.637 229.844 134.237 229.476 134.712C229.108 135.187 228.676 135.541 228.18 135.776C227.69 136.005 227.164 136.12 226.604 136.12C226.044 136.12 225.519 136.005 225.028 135.776C224.538 135.541 224.108 135.187 223.74 134.712C223.372 134.237 223.082 133.637 222.868 132.912C222.66 132.187 222.556 131.328 222.556 130.336C222.556 129.344 222.66 128.485 222.868 127.76C223.082 127.035 223.372 126.435 223.74 125.96C224.108 125.485 224.538 125.133 225.028 124.904C225.519 124.669 226.044 124.552 226.604 124.552C227.164 124.552 227.69 124.669 228.18 124.904C228.676 125.133 229.108 125.485 229.476 125.96C229.844 126.435 230.135 127.035 230.348 127.76C230.562 128.485 230.668 129.344 230.668 130.336ZM229.868 130.336C229.868 129.419 229.78 128.635 229.604 127.984C229.428 127.333 229.191 126.803 228.892 126.392C228.599 125.976 228.252 125.672 227.852 125.48C227.458 125.288 227.042 125.192 226.604 125.192C226.167 125.192 225.751 125.288 225.356 125.48C224.962 125.672 224.615 125.976 224.316 126.392C224.018 126.803 223.78 127.333 223.604 127.984C223.428 128.635 223.34 129.419 223.34 130.336C223.34 131.259 223.428 132.045 223.604 132.696C223.78 133.341 224.018 133.872 224.316 134.288C224.615 134.699 224.962 135 225.356 135.192C225.751 135.379 226.167 135.472 226.604 135.472C227.042 135.472 227.458 135.379 227.852 135.192C228.252 135 228.599 134.699 228.892 134.288C229.191 133.872 229.428 133.341 229.604 132.696C229.78 132.045 229.868 131.259 229.868 130.336ZM239.789 124.68V125.024C239.789 125.115 239.779 125.195 239.757 125.264C239.736 125.328 239.712 125.384 239.685 125.432L234.501 135.712C234.459 135.797 234.4 135.867 234.325 135.92C234.256 135.973 234.163 136 234.045 136H233.517L238.749 125.76C238.819 125.621 238.901 125.496 238.997 125.384H232.469C232.411 125.384 232.36 125.363 232.317 125.32C232.275 125.277 232.253 125.227 232.253 125.168V124.68H239.789ZM241.911 136.36C241.868 136.467 241.804 136.544 241.719 136.592C241.633 136.645 241.545 136.672 241.455 136.672H241.143L246.119 124.656C246.199 124.459 246.343 124.36 246.551 124.36H246.879L241.911 136.36ZM255.44 135.28C255.525 135.28 255.592 135.307 255.64 135.36C255.688 135.408 255.712 135.472 255.712 135.552V136H248.408V135.728C248.408 135.669 248.421 135.611 248.448 135.552C248.48 135.488 248.52 135.435 248.568 135.392L252.432 131.48C252.752 131.155 253.048 130.84 253.32 130.536C253.592 130.232 253.826 129.925 254.024 129.616C254.226 129.307 254.384 128.989 254.496 128.664C254.608 128.339 254.664 127.992 254.664 127.624C254.664 127.208 254.594 126.848 254.456 126.544C254.317 126.235 254.133 125.981 253.904 125.784C253.674 125.587 253.408 125.44 253.104 125.344C252.8 125.248 252.485 125.2 252.16 125.2C251.802 125.2 251.472 125.256 251.168 125.368C250.869 125.475 250.602 125.627 250.368 125.824C250.138 126.016 249.946 126.248 249.792 126.52C249.642 126.787 249.538 127.08 249.48 127.4C249.442 127.517 249.392 127.595 249.328 127.632C249.269 127.669 249.186 127.683 249.08 127.672L248.688 127.608C248.757 127.123 248.89 126.691 249.088 126.312C249.285 125.933 249.536 125.613 249.84 125.352C250.144 125.091 250.496 124.893 250.896 124.76C251.296 124.621 251.728 124.552 252.192 124.552C252.624 124.552 253.034 124.616 253.424 124.744C253.818 124.867 254.165 125.056 254.464 125.312C254.768 125.563 255.008 125.88 255.184 126.264C255.36 126.643 255.448 127.088 255.448 127.6C255.448 128.027 255.381 128.424 255.248 128.792C255.12 129.155 254.944 129.504 254.72 129.84C254.496 130.176 254.234 130.504 253.936 130.824C253.642 131.139 253.333 131.461 253.008 131.792L249.464 135.408C249.634 135.365 249.81 135.333 249.992 135.312C250.178 135.291 250.365 135.28 250.552 135.28H255.44ZM265.465 130.336C265.465 131.328 265.358 132.187 265.145 132.912C264.932 133.637 264.641 134.237 264.273 134.712C263.905 135.187 263.473 135.541 262.977 135.776C262.486 136.005 261.961 136.12 261.401 136.12C260.841 136.12 260.316 136.005 259.825 135.776C259.334 135.541 258.905 135.187 258.537 134.712C258.169 134.237 257.878 133.637 257.665 132.912C257.457 132.187 257.353 131.328 257.353 130.336C257.353 129.344 257.457 128.485 257.665 127.76C257.878 127.035 258.169 126.435 258.537 125.96C258.905 125.485 259.334 125.133 259.825 124.904C260.316 124.669 260.841 124.552 261.401 124.552C261.961 124.552 262.486 124.669 262.977 124.904C263.473 125.133 263.905 125.485 264.273 125.96C264.641 126.435 264.932 127.035 265.145 127.76C265.358 128.485 265.465 129.344 265.465 130.336ZM264.665 130.336C264.665 129.419 264.577 128.635 264.401 127.984C264.225 127.333 263.988 126.803 263.689 126.392C263.396 125.976 263.049 125.672 262.649 125.48C262.254 125.288 261.838 125.192 261.401 125.192C260.964 125.192 260.548 125.288 260.153 125.48C259.758 125.672 259.412 125.976 259.113 126.392C258.814 126.803 258.577 127.333 258.401 127.984C258.225 128.635 258.137 129.419 258.137 130.336C258.137 131.259 258.225 132.045 258.401 132.696C258.577 133.341 258.814 133.872 259.113 134.288C259.412 134.699 259.758 135 260.153 135.192C260.548 135.379 260.964 135.472 261.401 135.472C261.838 135.472 262.254 135.379 262.649 135.192C263.049 135 263.396 134.699 263.689 134.288C263.988 133.872 264.225 133.341 264.401 132.696C264.577 132.045 264.665 131.259 264.665 130.336ZM274.002 135.28C274.088 135.28 274.154 135.307 274.202 135.36C274.25 135.408 274.274 135.472 274.274 135.552V136H266.97V135.728C266.97 135.669 266.984 135.611 267.01 135.552C267.042 135.488 267.082 135.435 267.13 135.392L270.994 131.48C271.314 131.155 271.61 130.84 271.882 130.536C272.154 130.232 272.389 129.925 272.586 129.616C272.789 129.307 272.946 128.989 273.058 128.664C273.17 128.339 273.226 127.992 273.226 127.624C273.226 127.208 273.157 126.848 273.018 126.544C272.88 126.235 272.696 125.981 272.466 125.784C272.237 125.587 271.97 125.44 271.666 125.344C271.362 125.248 271.048 125.2 270.722 125.2C270.365 125.2 270.034 125.256 269.73 125.368C269.432 125.475 269.165 125.627 268.93 125.824C268.701 126.016 268.509 126.248 268.354 126.52C268.205 126.787 268.101 127.08 268.042 127.4C268.005 127.517 267.954 127.595 267.89 127.632C267.832 127.669 267.749 127.683 267.642 127.672L267.25 127.608C267.32 127.123 267.453 126.691 267.65 126.312C267.848 125.933 268.098 125.613 268.402 125.352C268.706 125.091 269.058 124.893 269.458 124.76C269.858 124.621 270.29 124.552 270.754 124.552C271.186 124.552 271.597 124.616 271.986 124.744C272.381 124.867 272.728 125.056 273.026 125.312C273.33 125.563 273.57 125.88 273.746 126.264C273.922 126.643 274.01 127.088 274.01 127.6C274.01 128.027 273.944 128.424 273.81 128.792C273.682 129.155 273.506 129.504 273.282 129.84C273.058 130.176 272.797 130.504 272.498 130.824C272.205 131.139 271.896 131.461 271.57 131.792L268.026 135.408C268.197 135.365 268.373 135.333 268.554 135.312C268.741 135.291 268.928 135.28 269.114 135.28H274.002ZM283.284 135.28C283.369 135.28 283.436 135.307 283.484 135.36C283.532 135.408 283.556 135.472 283.556 135.552V136H276.252V135.728C276.252 135.669 276.265 135.611 276.292 135.552C276.324 135.488 276.364 135.435 276.412 135.392L280.276 131.48C280.596 131.155 280.892 130.84 281.164 130.536C281.436 130.232 281.67 129.925 281.868 129.616C282.07 129.307 282.228 128.989 282.34 128.664C282.452 128.339 282.508 127.992 282.508 127.624C282.508 127.208 282.438 126.848 282.3 126.544C282.161 126.235 281.977 125.981 281.748 125.784C281.518 125.587 281.252 125.44 280.948 125.344C280.644 125.248 280.329 125.2 280.004 125.2C279.646 125.2 279.316 125.256 279.012 125.368C278.713 125.475 278.446 125.627 278.212 125.824C277.982 126.016 277.79 126.248 277.636 126.52C277.486 126.787 277.382 127.08 277.324 127.4C277.286 127.517 277.236 127.595 277.172 127.632C277.113 127.669 277.03 127.683 276.924 127.672L276.532 127.608C276.601 127.123 276.734 126.691 276.932 126.312C277.129 125.933 277.38 125.613 277.684 125.352C277.988 125.091 278.34 124.893 278.74 124.76C279.14 124.621 279.572 124.552 280.036 124.552C280.468 124.552 280.878 124.616 281.268 124.744C281.662 124.867 282.009 125.056 282.308 125.312C282.612 125.563 282.852 125.88 283.028 126.264C283.204 126.643 283.292 127.088 283.292 127.6C283.292 128.027 283.225 128.424 283.092 128.792C282.964 129.155 282.788 129.504 282.564 129.84C282.34 130.176 282.078 130.504 281.78 130.824C281.486 131.139 281.177 131.461 280.852 131.792L277.308 135.408C277.478 135.365 277.654 135.333 277.836 135.312C278.022 135.291 278.209 135.28 278.396 135.28H283.284Z" fill="black"/>
<path d="M28.824 178.864V181.936C28.7067 181.968 28.52 182 28.264 182.032C28.0187 182.064 27.7733 182.08 27.528 182.08C27.2827 182.08 27.064 182.059 26.872 182.016C26.6907 181.984 26.536 181.92 26.408 181.824C26.2907 181.728 26.2 181.595 26.136 181.424C26.072 181.253 26.04 181.029 26.04 180.752V173.216C26.04 172.992 26.0987 172.821 26.216 172.704C26.344 172.576 26.5147 172.475 26.728 172.4C27.0907 172.272 27.512 172.181 27.992 172.128C28.472 172.064 28.984 172.032 29.528 172.032C31 172.032 32.1093 172.341 32.856 172.96C33.6027 173.579 33.976 174.416 33.976 175.472C33.976 176.133 33.8053 176.699 33.464 177.168C33.1227 177.637 32.7173 178 32.248 178.256C32.632 178.779 33.0107 179.269 33.384 179.728C33.7573 180.187 34.0507 180.603 34.264 180.976C34.1573 181.349 33.96 181.637 33.672 181.84C33.3947 182.032 33.08 182.128 32.728 182.128C32.4933 182.128 32.2907 182.101 32.12 182.048C31.9493 181.995 31.8 181.92 31.672 181.824C31.544 181.728 31.4267 181.611 31.32 181.472C31.2133 181.333 31.112 181.184 31.016 181.024L29.672 178.864H28.824ZM29.832 176.736C30.2373 176.736 30.5573 176.635 30.792 176.432C31.0267 176.219 31.144 175.909 31.144 175.504C31.144 175.099 31.0107 174.795 30.744 174.592C30.488 174.379 30.0773 174.272 29.512 174.272C29.352 174.272 29.224 174.277 29.128 174.288C29.032 174.299 28.9253 174.315 28.808 174.336V176.736H29.832ZM39.4596 182.256C38.8303 182.256 38.2436 182.171 37.6996 182C37.1663 181.819 36.697 181.552 36.2916 181.2C35.897 180.848 35.5823 180.405 35.3476 179.872C35.1236 179.339 35.0116 178.715 35.0116 178C35.0116 177.296 35.1236 176.693 35.3476 176.192C35.5823 175.68 35.8863 175.264 36.2596 174.944C36.633 174.613 37.0596 174.373 37.5396 174.224C38.0196 174.064 38.5103 173.984 39.0116 173.984C39.577 173.984 40.089 174.069 40.5476 174.24C41.017 174.411 41.417 174.645 41.7476 174.944C42.089 175.243 42.3503 175.6 42.5316 176.016C42.7236 176.432 42.8196 176.885 42.8196 177.376C42.8196 177.739 42.7183 178.016 42.5156 178.208C42.313 178.4 42.0303 178.523 41.6676 178.576L37.7156 179.168C37.833 179.52 38.073 179.787 38.4356 179.968C38.7983 180.139 39.2143 180.224 39.6836 180.224C40.121 180.224 40.5316 180.171 40.9156 180.064C41.3103 179.947 41.6303 179.813 41.8756 179.664C42.0463 179.771 42.1903 179.92 42.3076 180.112C42.425 180.304 42.4836 180.507 42.4836 180.72C42.4836 181.2 42.2596 181.557 41.8116 181.792C41.4703 181.973 41.0863 182.096 40.6596 182.16C40.233 182.224 39.833 182.256 39.4596 182.256ZM39.0116 175.968C38.7556 175.968 38.5316 176.011 38.3396 176.096C38.1583 176.181 38.009 176.293 37.8916 176.432C37.7743 176.56 37.6836 176.709 37.6196 176.88C37.5663 177.04 37.5343 177.205 37.5236 177.376L40.2596 176.928C40.2276 176.715 40.1103 176.501 39.9076 176.288C39.705 176.075 39.4063 175.968 39.0116 175.968ZM39.2996 170.096C39.8543 170.096 40.2543 170.203 40.4996 170.416C40.7556 170.629 40.8836 170.885 40.8836 171.184C40.8836 171.461 40.809 171.696 40.6596 171.888C40.5103 172.069 40.265 172.251 39.9236 172.432L37.8596 173.52C37.5396 173.488 37.2676 173.36 37.0436 173.136C36.8196 172.912 36.7076 172.672 36.7076 172.416C36.7076 172.288 36.7396 172.16 36.8036 172.032C36.8676 171.904 36.9743 171.787 37.1236 171.68L39.2996 170.096ZM44.1765 174.224C44.1765 173.68 44.2672 173.216 44.4485 172.832C44.6405 172.437 44.8965 172.117 45.2165 171.872C45.5365 171.616 45.9098 171.429 46.3365 171.312C46.7738 171.195 47.2378 171.136 47.7285 171.136C48.5178 171.136 49.0992 171.243 49.4725 171.456C49.8458 171.659 50.0325 172.011 50.0325 172.512C50.0325 172.725 49.9845 172.917 49.8885 173.088C49.8032 173.259 49.7072 173.387 49.6005 173.472C49.3978 173.419 49.1845 173.376 48.9605 173.344C48.7472 173.301 48.4965 173.28 48.2085 173.28C47.7498 173.28 47.3925 173.36 47.1365 173.52C46.8805 173.669 46.7525 173.936 46.7525 174.32V174.832H49.3765C49.4405 174.949 49.4992 175.099 49.5525 175.28C49.6165 175.451 49.6485 175.643 49.6485 175.856C49.6485 176.229 49.5632 176.501 49.3925 176.672C49.2325 176.832 49.0138 176.912 48.7365 176.912H46.8965V181.984C46.7898 182.016 46.6192 182.048 46.3845 182.08C46.1605 182.112 45.9258 182.128 45.6805 182.128C45.4458 182.128 45.2325 182.112 45.0405 182.08C44.8592 182.048 44.7045 181.984 44.5765 181.888C44.4485 181.792 44.3472 181.664 44.2725 181.504C44.2085 181.333 44.1765 181.115 44.1765 180.848V174.224ZM54.7721 182.256C54.1428 182.256 53.5561 182.171 53.0121 182C52.4788 181.819 52.0095 181.552 51.6041 181.2C51.2095 180.848 50.8948 180.405 50.6601 179.872C50.4361 179.339 50.3241 178.715 50.3241 178C50.3241 177.296 50.4361 176.693 50.6601 176.192C50.8948 175.68 51.1988 175.264 51.5721 174.944C51.9455 174.613 52.3721 174.373 52.8521 174.224C53.3321 174.064 53.8228 173.984 54.3241 173.984C54.8895 173.984 55.4015 174.069 55.8601 174.24C56.3295 174.411 56.7295 174.645 57.0601 174.944C57.4015 175.243 57.6628 175.6 57.8441 176.016C58.0361 176.432 58.1321 176.885 58.1321 177.376C58.1321 177.739 58.0308 178.016 57.8281 178.208C57.6255 178.4 57.3428 178.523 56.9801 178.576L53.0281 179.168C53.1455 179.52 53.3855 179.787 53.7481 179.968C54.1108 180.139 54.5268 180.224 54.9961 180.224C55.4335 180.224 55.8441 180.171 56.2281 180.064C56.6228 179.947 56.9428 179.813 57.1881 179.664C57.3588 179.771 57.5028 179.92 57.6201 180.112C57.7375 180.304 57.7961 180.507 57.7961 180.72C57.7961 181.2 57.5721 181.557 57.1241 181.792C56.7828 181.973 56.3988 182.096 55.9721 182.16C55.5455 182.224 55.1455 182.256 54.7721 182.256ZM54.3241 175.968C54.0681 175.968 53.8441 176.011 53.6521 176.096C53.4708 176.181 53.3215 176.293 53.2041 176.432C53.0868 176.56 52.9961 176.709 52.9321 176.88C52.8788 177.04 52.8468 177.205 52.8361 177.376L55.5721 176.928C55.5401 176.715 55.4228 176.501 55.2201 176.288C55.0175 176.075 54.7188 175.968 54.3241 175.968ZM54.6121 170.096C55.1668 170.096 55.5668 170.203 55.8121 170.416C56.0681 170.629 56.1961 170.885 56.1961 171.184C56.1961 171.461 56.1215 171.696 55.9721 171.888C55.8228 172.069 55.5775 172.251 55.2361 172.432L53.1721 173.52C52.8521 173.488 52.5801 173.36 52.3561 173.136C52.1321 172.912 52.0201 172.672 52.0201 172.416C52.0201 172.288 52.0521 172.16 52.1161 172.032C52.1801 171.904 52.2868 171.787 52.4361 171.68L54.6121 170.096ZM62.177 181.984C62.0703 182.016 61.8997 182.048 61.665 182.08C61.441 182.112 61.2063 182.128 60.961 182.128C60.7263 182.128 60.513 182.112 60.321 182.08C60.1397 182.048 59.985 181.984 59.857 181.888C59.729 181.792 59.6277 181.664 59.553 181.504C59.489 181.333 59.457 181.115 59.457 180.848V176.048C59.457 175.803 59.4997 175.595 59.585 175.424C59.681 175.243 59.8143 175.083 59.985 174.944C60.1557 174.805 60.3637 174.683 60.609 174.576C60.865 174.459 61.137 174.357 61.425 174.272C61.713 174.187 62.0117 174.123 62.321 174.08C62.6303 174.027 62.9397 174 63.249 174C63.761 174 64.1663 174.101 64.465 174.304C64.7637 174.496 64.913 174.816 64.913 175.264C64.913 175.413 64.8917 175.563 64.849 175.712C64.8063 175.851 64.753 175.979 64.689 176.096C64.465 176.096 64.2357 176.107 64.001 176.128C63.7663 176.149 63.537 176.181 63.313 176.224C63.089 176.267 62.8757 176.315 62.673 176.368C62.481 176.411 62.3157 176.464 62.177 176.528V181.984ZM69.8503 182.256C69.2209 182.256 68.6343 182.171 68.0903 182C67.5569 181.819 67.0876 181.552 66.6823 181.2C66.2876 180.848 65.9729 180.405 65.7383 179.872C65.5143 179.339 65.4023 178.715 65.4023 178C65.4023 177.296 65.5143 176.693 65.7383 176.192C65.9729 175.68 66.2769 175.264 66.6503 174.944C67.0236 174.613 67.4503 174.373 67.9303 174.224C68.4103 174.064 68.9009 173.984 69.4023 173.984C69.9676 173.984 70.4796 174.069 70.9383 174.24C71.4076 174.411 71.8076 174.645 72.1383 174.944C72.4796 175.243 72.7409 175.6 72.9223 176.016C73.1143 176.432 73.2103 176.885 73.2103 177.376C73.2103 177.739 73.1089 178.016 72.9062 178.208C72.7036 178.4 72.4209 178.523 72.0583 178.576L68.1063 179.168C68.2236 179.52 68.4636 179.787 68.8263 179.968C69.1889 180.139 69.6049 180.224 70.0743 180.224C70.5116 180.224 70.9223 180.171 71.3063 180.064C71.7009 179.947 72.0209 179.813 72.2663 179.664C72.4369 179.771 72.5809 179.92 72.6983 180.112C72.8156 180.304 72.8743 180.507 72.8743 180.72C72.8743 181.2 72.6503 181.557 72.2023 181.792C71.8609 181.973 71.4769 182.096 71.0503 182.16C70.6236 182.224 70.2236 182.256 69.8503 182.256ZM69.4023 175.968C69.1463 175.968 68.9223 176.011 68.7303 176.096C68.5489 176.181 68.3996 176.293 68.2823 176.432C68.1649 176.56 68.0743 176.709 68.0103 176.88C67.9569 177.04 67.9249 177.205 67.9143 177.376L70.6503 176.928C70.6183 176.715 70.5009 176.501 70.2983 176.288C70.0956 176.075 69.7969 175.968 69.4023 175.968ZM79.4475 177.072C79.4475 176.741 79.3515 176.501 79.1595 176.352C78.9782 176.192 78.7275 176.112 78.4075 176.112C78.1942 176.112 77.9808 176.139 77.7675 176.192C77.5648 176.245 77.3888 176.325 77.2395 176.432V181.984C77.1328 182.016 76.9622 182.048 76.7275 182.08C76.5035 182.112 76.2688 182.128 76.0235 182.128C75.7888 182.128 75.5755 182.112 75.3835 182.08C75.2022 182.048 75.0475 181.984 74.9195 181.888C74.7915 181.792 74.6902 181.664 74.6155 181.504C74.5515 181.333 74.5195 181.115 74.5195 180.848V176.048C74.5195 175.76 74.5782 175.525 74.6955 175.344C74.8235 175.163 74.9942 174.997 75.2075 174.848C75.5702 174.592 76.0235 174.384 76.5675 174.224C77.1222 174.064 77.7355 173.984 78.4075 173.984C79.6128 173.984 80.5408 174.251 81.1915 174.784C81.8422 175.307 82.1675 176.037 82.1675 176.976V181.984C82.0608 182.016 81.8902 182.048 81.6555 182.08C81.4315 182.112 81.1968 182.128 80.9515 182.128C80.7168 182.128 80.5035 182.112 80.3115 182.08C80.1302 182.048 79.9755 181.984 79.8475 181.888C79.7195 181.792 79.6182 181.664 79.5435 181.504C79.4795 181.333 79.4475 181.115 79.4475 180.848V177.072ZM88.2316 176.128C87.965 176.128 87.709 176.171 87.4636 176.256C87.229 176.341 87.021 176.469 86.8396 176.64C86.669 176.8 86.5303 177.003 86.4236 177.248C86.317 177.493 86.2636 177.781 86.2636 178.112C86.2636 178.773 86.4503 179.269 86.8236 179.6C87.2076 179.931 87.6716 180.096 88.2156 180.096C88.5356 180.096 88.813 180.059 89.0476 179.984C89.2823 179.909 89.4903 179.829 89.6716 179.744C89.885 179.893 90.045 180.059 90.1516 180.24C90.2583 180.411 90.3116 180.619 90.3116 180.864C90.3116 181.301 90.1036 181.643 89.6876 181.888C89.2716 182.123 88.6956 182.24 87.9596 182.24C87.2876 182.24 86.6796 182.144 86.1356 181.952C85.5916 181.749 85.1223 181.472 84.7276 181.12C84.3436 180.757 84.045 180.325 83.8316 179.824C83.6183 179.323 83.5116 178.768 83.5116 178.16C83.5116 177.456 83.6236 176.843 83.8476 176.32C84.0823 175.787 84.397 175.349 84.7916 175.008C85.1863 174.667 85.6396 174.411 86.1516 174.24C86.6743 174.069 87.2236 173.984 87.7996 173.984C88.5676 173.984 89.1596 174.123 89.5756 174.4C89.9916 174.677 90.1996 175.035 90.1996 175.472C90.1996 175.675 90.1516 175.867 90.0556 176.048C89.9596 176.219 89.8476 176.368 89.7196 176.496C89.5383 176.411 89.3196 176.331 89.0636 176.256C88.8076 176.171 88.5303 176.128 88.2316 176.128ZM95.5534 182.256C94.924 182.256 94.3374 182.171 93.7934 182C93.26 181.819 92.7907 181.552 92.3854 181.2C91.9907 180.848 91.676 180.405 91.4414 179.872C91.2174 179.339 91.1054 178.715 91.1054 178C91.1054 177.296 91.2174 176.693 91.4414 176.192C91.676 175.68 91.98 175.264 92.3534 174.944C92.7267 174.613 93.1534 174.373 93.6334 174.224C94.1134 174.064 94.604 173.984 95.1054 173.984C95.6707 173.984 96.1827 174.069 96.6414 174.24C97.1107 174.411 97.5107 174.645 97.8414 174.944C98.1827 175.243 98.444 175.6 98.6254 176.016C98.8174 176.432 98.9134 176.885 98.9134 177.376C98.9134 177.739 98.812 178.016 98.6094 178.208C98.4067 178.4 98.124 178.523 97.7614 178.576L93.8094 179.168C93.9267 179.52 94.1667 179.787 94.5294 179.968C94.892 180.139 95.308 180.224 95.7774 180.224C96.2147 180.224 96.6254 180.171 97.0094 180.064C97.404 179.947 97.724 179.813 97.9694 179.664C98.14 179.771 98.284 179.92 98.4014 180.112C98.5187 180.304 98.5774 180.507 98.5774 180.72C98.5774 181.2 98.3534 181.557 97.9054 181.792C97.564 181.973 97.18 182.096 96.7534 182.16C96.3267 182.224 95.9267 182.256 95.5534 182.256ZM95.1054 175.968C94.8494 175.968 94.6254 176.011 94.4334 176.096C94.252 176.181 94.1027 176.293 93.9854 176.432C93.868 176.56 93.7774 176.709 93.7134 176.88C93.66 177.04 93.628 177.205 93.6174 177.376L96.3534 176.928C96.3214 176.715 96.204 176.501 96.0014 176.288C95.7987 176.075 95.5 175.968 95.1054 175.968Z" fill="black"/>
<path d="M226.809 178.336C226.809 179.211 226.678 179.997 226.417 180.696C226.156 181.395 225.788 181.989 225.313 182.48C224.838 182.971 224.268 183.347 223.601 183.608C222.94 183.869 222.209 184 221.409 184H217.273V172.68H221.409C222.209 172.68 222.94 172.811 223.601 173.072C224.268 173.333 224.838 173.709 225.313 174.2C225.788 174.691 226.156 175.285 226.417 175.984C226.678 176.683 226.809 177.467 226.809 178.336ZM225.961 178.336C225.961 177.547 225.852 176.843 225.633 176.224C225.414 175.605 225.105 175.083 224.705 174.656C224.305 174.229 223.825 173.904 223.265 173.68C222.705 173.456 222.086 173.344 221.409 173.344H218.097V183.336H221.409C222.086 183.336 222.705 183.224 223.265 183C223.825 182.776 224.305 182.451 224.705 182.024C225.105 181.597 225.414 181.075 225.633 180.456C225.852 179.837 225.961 179.131 225.961 178.336ZM236.229 183.32L236.213 184H229.429V172.68H236.213V173.36H230.253V177.936H235.213V178.6H230.253V183.32H236.229ZM247.319 172.68L242.647 184H241.919L237.247 172.68H237.895C237.969 172.68 238.031 172.701 238.079 172.744C238.127 172.781 238.164 172.832 238.191 172.896L242.047 182.288C242.089 182.405 242.132 182.531 242.175 182.664C242.217 182.797 242.257 182.933 242.295 183.072C242.327 182.933 242.361 182.797 242.399 182.664C242.436 182.531 242.479 182.405 242.527 182.288L246.375 172.896C246.396 172.837 246.433 172.787 246.487 172.744C246.54 172.701 246.604 172.68 246.679 172.68H247.319ZM248.143 178.928H251.863V179.576H248.143V178.928ZM261.656 178.336C261.656 179.328 261.55 180.187 261.336 180.912C261.123 181.637 260.832 182.237 260.464 182.712C260.096 183.187 259.664 183.541 259.168 183.776C258.678 184.005 258.152 184.12 257.592 184.12C257.032 184.12 256.507 184.005 256.016 183.776C255.526 183.541 255.096 183.187 254.728 182.712C254.36 182.237 254.07 181.637 253.856 180.912C253.648 180.187 253.544 179.328 253.544 178.336C253.544 177.344 253.648 176.485 253.856 175.76C254.07 175.035 254.36 174.435 254.728 173.96C255.096 173.485 255.526 173.133 256.016 172.904C256.507 172.669 257.032 172.552 257.592 172.552C258.152 172.552 258.678 172.669 259.168 172.904C259.664 173.133 260.096 173.485 260.464 173.96C260.832 174.435 261.123 175.035 261.336 175.76C261.55 176.485 261.656 177.344 261.656 178.336ZM260.856 178.336C260.856 177.419 260.768 176.635 260.592 175.984C260.416 175.333 260.179 174.803 259.88 174.392C259.587 173.976 259.24 173.672 258.84 173.48C258.446 173.288 258.03 173.192 257.592 173.192C257.155 173.192 256.739 173.288 256.344 173.48C255.95 173.672 255.603 173.976 255.304 174.392C255.006 174.803 254.768 175.333 254.592 175.984C254.416 176.635 254.328 177.419 254.328 178.336C254.328 179.259 254.416 180.045 254.592 180.696C254.768 181.341 255.006 181.872 255.304 182.288C255.603 182.699 255.95 183 256.344 183.192C256.739 183.379 257.155 183.472 257.592 183.472C258.03 183.472 258.446 183.379 258.84 183.192C259.24 183 259.587 182.699 259.88 182.288C260.179 181.872 260.416 181.341 260.592 180.696C260.768 180.045 260.856 179.259 260.856 178.336ZM270.938 178.336C270.938 179.328 270.831 180.187 270.618 180.912C270.404 181.637 270.114 182.237 269.746 182.712C269.378 183.187 268.946 183.541 268.45 183.776C267.959 184.005 267.434 184.12 266.874 184.12C266.314 184.12 265.788 184.005 265.298 183.776C264.807 183.541 264.378 183.187 264.01 182.712C263.642 182.237 263.351 181.637 263.138 180.912C262.93 180.187 262.826 179.328 262.826 178.336C262.826 177.344 262.93 176.485 263.138 175.76C263.351 175.035 263.642 174.435 264.01 173.96C264.378 173.485 264.807 173.133 265.298 172.904C265.788 172.669 266.314 172.552 266.874 172.552C267.434 172.552 267.959 172.669 268.45 172.904C268.946 173.133 269.378 173.485 269.746 173.96C270.114 174.435 270.404 175.035 270.618 175.76C270.831 176.485 270.938 177.344 270.938 178.336ZM270.138 178.336C270.138 177.419 270.05 176.635 269.874 175.984C269.698 175.333 269.46 174.803 269.162 174.392C268.868 173.976 268.522 173.672 268.122 173.48C267.727 173.288 267.311 173.192 266.874 173.192C266.436 173.192 266.02 173.288 265.626 173.48C265.231 173.672 264.884 173.976 264.586 174.392C264.287 174.803 264.05 175.333 263.874 175.984C263.698 176.635 263.61 177.419 263.61 178.336C263.61 179.259 263.698 180.045 263.874 180.696C264.05 181.341 264.287 181.872 264.586 182.288C264.884 182.699 265.231 183 265.626 183.192C266.02 183.379 266.436 183.472 266.874 183.472C267.311 183.472 267.727 183.379 268.122 183.192C268.522 183 268.868 182.699 269.162 182.288C269.46 181.872 269.698 181.341 269.874 180.696C270.05 180.045 270.138 179.259 270.138 178.336ZM279.499 183.408V184H273.659V183.408H276.259V174.224C276.259 174.043 276.267 173.851 276.283 173.648L273.787 175.864C273.712 175.928 273.638 175.952 273.563 175.936C273.488 175.92 273.43 175.888 273.387 175.84L273.155 175.52L276.427 172.632H277.027V183.408H279.499Z" fill="black"/>
<rect x="59" y="225" width="77" height="36" rx="3" fill="#198754"/>
<path d="M86.692 243.24C86.692 244.093 86.5533 244.88 86.276 245.6C85.9987 246.32 85.6067 246.941 85.1 247.464C84.5987 247.981 83.9933 248.387 83.284 248.68C82.58 248.973 81.796 249.12 80.932 249.12C80.0733 249.12 79.2893 248.973 78.58 248.68C77.876 248.387 77.2707 247.981 76.764 247.464C76.2573 246.941 75.8653 246.32 75.588 245.6C75.3107 244.88 75.172 244.093 75.172 243.24C75.172 242.387 75.3107 241.6 75.588 240.88C75.8653 240.16 76.2573 239.539 76.764 239.016C77.2707 238.493 77.876 238.085 78.58 237.792C79.2893 237.499 80.0733 237.352 80.932 237.352C81.796 237.352 82.58 237.499 83.284 237.792C83.9933 238.085 84.5987 238.493 85.1 239.016C85.6067 239.539 85.9987 240.16 86.276 240.88C86.5533 241.6 86.692 242.387 86.692 243.24ZM84.78 243.24C84.78 242.579 84.6893 241.984 84.508 241.456C84.332 240.928 84.076 240.48 83.74 240.112C83.4093 239.744 83.0067 239.461 82.532 239.264C82.0573 239.067 81.524 238.968 80.932 238.968C80.3453 238.968 79.8147 239.067 79.34 239.264C78.8653 239.461 78.46 239.744 78.124 240.112C77.788 240.48 77.5293 240.928 77.348 241.456C77.1667 241.984 77.076 242.579 77.076 243.24C77.076 243.907 77.1667 244.504 77.348 245.032C77.5293 245.56 77.788 246.008 78.124 246.376C78.46 246.739 78.8653 247.019 79.34 247.216C79.8147 247.408 80.3453 247.504 80.932 247.504C81.524 247.504 82.0573 247.408 82.532 247.216C83.0067 247.019 83.4093 246.739 83.74 246.376C84.076 246.008 84.332 245.56 84.508 245.032C84.6893 244.504 84.78 243.907 84.78 243.24ZM95.1936 240.84V249H94.1536C93.9243 249 93.7776 248.891 93.7136 248.672L93.5856 247.912C93.415 248.093 93.2336 248.259 93.0416 248.408C92.855 248.557 92.655 248.685 92.4416 248.792C92.2283 248.899 91.999 248.981 91.7536 249.04C91.5136 249.099 91.255 249.128 90.9776 249.128C90.5296 249.128 90.135 249.053 89.7936 248.904C89.4523 248.755 89.1643 248.544 88.9296 248.272C88.7003 248 88.527 247.675 88.4096 247.296C88.2923 246.912 88.2336 246.491 88.2336 246.032V240.84H89.9536V246.032C89.9536 246.581 90.079 247.008 90.3296 247.312C90.5856 247.616 90.9723 247.768 91.4896 247.768C91.8683 247.768 92.2203 247.683 92.5456 247.512C92.8763 247.336 93.1856 247.096 93.4736 246.792V240.84H95.1936ZM104.466 240.84L101.186 249H99.6344L96.3544 240.84H97.7704C97.9037 240.84 98.013 240.875 98.0984 240.944C98.189 241.008 98.2477 241.085 98.2744 241.176L100.082 245.928C100.157 246.152 100.224 246.373 100.282 246.592C100.341 246.811 100.392 247.032 100.434 247.256C100.477 247.032 100.528 246.813 100.586 246.6C100.65 246.381 100.72 246.157 100.794 245.928L102.634 241.176C102.666 241.08 102.725 241 102.81 240.936C102.896 240.872 103 240.84 103.122 240.84H104.466ZM107.266 242.352C107.522 241.835 107.831 241.429 108.194 241.136C108.556 240.837 108.991 240.688 109.498 240.688C109.674 240.688 109.839 240.709 109.994 240.752C110.148 240.789 110.287 240.848 110.41 240.928L110.29 242.224C110.268 242.315 110.234 242.379 110.186 242.416C110.143 242.448 110.084 242.464 110.01 242.464C109.93 242.464 109.815 242.451 109.666 242.424C109.516 242.392 109.359 242.376 109.194 242.376C108.954 242.376 108.74 242.411 108.554 242.48C108.372 242.549 108.207 242.651 108.058 242.784C107.914 242.917 107.786 243.08 107.674 243.272C107.562 243.464 107.458 243.683 107.362 243.928V249H105.642V240.84H106.642C106.823 240.84 106.948 240.875 107.018 240.944C107.087 241.008 107.135 241.123 107.162 241.288L107.266 242.352ZM113.34 240.84V249H111.62V240.84H113.34ZM113.628 238.376C113.628 238.531 113.596 238.677 113.532 238.816C113.473 238.955 113.391 239.077 113.284 239.184C113.177 239.285 113.052 239.368 112.908 239.432C112.769 239.491 112.62 239.52 112.46 239.52C112.305 239.52 112.159 239.491 112.02 239.432C111.887 239.368 111.769 239.285 111.668 239.184C111.567 239.077 111.484 238.955 111.42 238.816C111.361 238.677 111.332 238.531 111.332 238.376C111.332 238.216 111.361 238.067 111.42 237.928C111.484 237.789 111.567 237.669 111.668 237.568C111.769 237.461 111.887 237.379 112.02 237.32C112.159 237.256 112.305 237.224 112.46 237.224C112.62 237.224 112.769 237.256 112.908 237.32C113.052 237.379 113.177 237.461 113.284 237.568C113.391 237.669 113.473 237.789 113.532 237.928C113.596 238.067 113.628 238.216 113.628 238.376ZM117.125 242.352C117.381 241.835 117.69 241.429 118.053 241.136C118.416 240.837 118.85 240.688 119.357 240.688C119.533 240.688 119.698 240.709 119.853 240.752C120.008 240.789 120.146 240.848 120.269 240.928L120.149 242.224C120.128 242.315 120.093 242.379 120.045 242.416C120.002 242.448 119.944 242.464 119.869 242.464C119.789 242.464 119.674 242.451 119.525 242.424C119.376 242.392 119.218 242.376 119.053 242.376C118.813 242.376 118.6 242.411 118.413 242.48C118.232 242.549 118.066 242.651 117.917 242.784C117.773 242.917 117.645 243.08 117.533 243.272C117.421 243.464 117.317 243.683 117.221 243.928V249H115.501V240.84H116.501C116.682 240.84 116.808 240.875 116.877 240.944C116.946 241.008 116.994 241.123 117.021 241.288L117.125 242.352Z" fill="white"/>
<rect x="162" y="225" width="101" height="36" rx="3" fill="#DC3545"/>
<path d="M182.42 242.32C182.377 242.395 182.329 242.448 182.276 242.48C182.223 242.512 182.156 242.528 182.076 242.528C181.985 242.528 181.887 242.501 181.78 242.448C181.673 242.389 181.548 242.325 181.404 242.256C181.26 242.187 181.089 242.125 180.892 242.072C180.7 242.013 180.473 241.984 180.212 241.984C179.999 241.984 179.804 242.011 179.628 242.064C179.457 242.112 179.311 242.184 179.188 242.28C179.071 242.371 178.98 242.48 178.916 242.608C178.852 242.731 178.82 242.864 178.82 243.008C178.82 243.2 178.879 243.36 178.996 243.488C179.113 243.616 179.268 243.728 179.46 243.824C179.652 243.915 179.871 243.997 180.116 244.072C180.361 244.147 180.612 244.227 180.868 244.312C181.124 244.397 181.375 244.496 181.62 244.608C181.865 244.72 182.084 244.859 182.276 245.024C182.468 245.184 182.623 245.381 182.74 245.616C182.857 245.845 182.916 246.125 182.916 246.456C182.916 246.84 182.847 247.195 182.708 247.52C182.569 247.845 182.367 248.128 182.1 248.368C181.833 248.608 181.5 248.795 181.1 248.928C180.705 249.061 180.252 249.128 179.74 249.128C179.457 249.128 179.183 249.101 178.916 249.048C178.655 249 178.404 248.933 178.164 248.848C177.929 248.757 177.708 248.651 177.5 248.528C177.297 248.405 177.116 248.272 176.956 248.128L177.356 247.472C177.404 247.392 177.463 247.331 177.532 247.288C177.607 247.24 177.697 247.216 177.804 247.216C177.916 247.216 178.025 247.253 178.132 247.328C178.244 247.397 178.372 247.475 178.516 247.56C178.665 247.645 178.844 247.725 179.052 247.8C179.26 247.869 179.519 247.904 179.828 247.904C180.084 247.904 180.305 247.875 180.492 247.816C180.679 247.752 180.833 247.667 180.956 247.56C181.079 247.453 181.169 247.333 181.228 247.2C181.287 247.061 181.316 246.915 181.316 246.76C181.316 246.552 181.257 246.381 181.14 246.248C181.023 246.115 180.865 246 180.668 245.904C180.476 245.808 180.255 245.723 180.004 245.648C179.759 245.573 179.508 245.493 179.252 245.408C178.996 245.323 178.743 245.224 178.492 245.112C178.247 245 178.025 244.859 177.828 244.688C177.636 244.512 177.481 244.301 177.364 244.056C177.247 243.805 177.188 243.501 177.188 243.144C177.188 242.819 177.252 242.509 177.38 242.216C177.513 241.923 177.705 241.664 177.956 241.44C178.212 241.216 178.524 241.04 178.892 240.912C179.265 240.779 179.695 240.712 180.18 240.712C180.729 240.712 181.228 240.8 181.676 240.976C182.124 241.152 182.5 241.392 182.804 241.696L182.42 242.32ZM191.412 240.84V249H190.372C190.143 249 189.996 248.891 189.932 248.672L189.804 247.912C189.634 248.093 189.452 248.259 189.26 248.408C189.074 248.557 188.874 248.685 188.66 248.792C188.447 248.899 188.218 248.981 187.972 249.04C187.732 249.099 187.474 249.128 187.196 249.128C186.748 249.128 186.354 249.053 186.012 248.904C185.671 248.755 185.383 248.544 185.148 248.272C184.919 248 184.746 247.675 184.628 247.296C184.511 246.912 184.452 246.491 184.452 246.032V240.84H186.172V246.032C186.172 246.581 186.298 247.008 186.548 247.312C186.804 247.616 187.191 247.768 187.708 247.768C188.087 247.768 188.439 247.683 188.764 247.512C189.095 247.336 189.404 247.096 189.692 246.792V240.84H191.412ZM195.221 246.952C195.461 247.261 195.722 247.48 196.005 247.608C196.293 247.731 196.61 247.792 196.957 247.792C197.629 247.792 198.152 247.547 198.525 247.056C198.904 246.565 199.093 245.835 199.093 244.864C199.093 244.363 199.05 243.936 198.965 243.584C198.88 243.227 198.757 242.936 198.597 242.712C198.437 242.488 198.242 242.325 198.013 242.224C197.784 242.123 197.525 242.072 197.237 242.072C196.8 242.072 196.421 242.168 196.101 242.36C195.786 242.547 195.493 242.816 195.221 243.168V246.952ZM195.133 242.024C195.474 241.624 195.861 241.301 196.293 241.056C196.73 240.811 197.237 240.688 197.813 240.688C198.272 240.688 198.688 240.781 199.061 240.968C199.434 241.149 199.754 241.416 200.021 241.768C200.288 242.12 200.493 242.557 200.637 243.08C200.786 243.597 200.861 244.192 200.861 244.864C200.861 245.467 200.778 246.029 200.613 246.552C200.453 247.069 200.221 247.52 199.917 247.904C199.613 248.283 199.245 248.581 198.813 248.8C198.381 249.013 197.893 249.12 197.349 249.12C196.869 249.12 196.461 249.043 196.125 248.888C195.794 248.733 195.493 248.52 195.221 248.248V251.712H193.501V240.84H194.541C194.776 240.84 194.925 240.949 194.989 241.168L195.133 242.024ZM204.252 246.952C204.492 247.261 204.754 247.48 205.036 247.608C205.324 247.731 205.642 247.792 205.988 247.792C206.66 247.792 207.183 247.547 207.556 247.056C207.935 246.565 208.124 245.835 208.124 244.864C208.124 244.363 208.082 243.936 207.996 243.584C207.911 243.227 207.788 242.936 207.628 242.712C207.468 242.488 207.274 242.325 207.044 242.224C206.815 242.123 206.556 242.072 206.268 242.072C205.831 242.072 205.452 242.168 205.132 242.36C204.818 242.547 204.524 242.816 204.252 243.168V246.952ZM204.164 242.024C204.506 241.624 204.892 241.301 205.324 241.056C205.762 240.811 206.268 240.688 206.844 240.688C207.303 240.688 207.719 240.781 208.092 240.968C208.466 241.149 208.786 241.416 209.052 241.768C209.319 242.12 209.524 242.557 209.668 243.08C209.818 243.597 209.892 244.192 209.892 244.864C209.892 245.467 209.81 246.029 209.644 246.552C209.484 247.069 209.252 247.52 208.948 247.904C208.644 248.283 208.276 248.581 207.844 248.8C207.412 249.013 206.924 249.12 206.38 249.12C205.9 249.12 205.492 249.043 205.156 248.888C204.826 248.733 204.524 248.52 204.252 248.248V251.712H202.532V240.84H203.572C203.807 240.84 203.956 240.949 204.02 241.168L204.164 242.024ZM213.188 242.352C213.444 241.835 213.753 241.429 214.116 241.136C214.478 240.837 214.913 240.688 215.42 240.688C215.596 240.688 215.761 240.709 215.916 240.752C216.07 240.789 216.209 240.848 216.332 240.928L216.212 242.224C216.19 242.315 216.156 242.379 216.108 242.416C216.065 242.448 216.006 242.464 215.932 242.464C215.852 242.464 215.737 242.451 215.588 242.424C215.438 242.392 215.281 242.376 215.116 242.376C214.876 242.376 214.662 242.411 214.476 242.48C214.294 242.549 214.129 242.651 213.98 242.784C213.836 242.917 213.708 243.08 213.596 243.272C213.484 243.464 213.38 243.683 213.284 243.928V249H211.564V240.84H212.564C212.745 240.84 212.87 240.875 212.94 240.944C213.009 241.008 213.057 241.123 213.084 241.288L213.188 242.352ZM219.262 240.84V249H217.542V240.84H219.262ZM219.55 238.376C219.55 238.531 219.518 238.677 219.454 238.816C219.395 238.955 219.313 239.077 219.206 239.184C219.099 239.285 218.974 239.368 218.83 239.432C218.691 239.491 218.542 239.52 218.382 239.52C218.227 239.52 218.081 239.491 217.942 239.432C217.809 239.368 217.691 239.285 217.59 239.184C217.489 239.077 217.406 238.955 217.342 238.816C217.283 238.677 217.254 238.531 217.254 238.376C217.254 238.216 217.283 238.067 217.342 237.928C217.406 237.789 217.489 237.669 217.59 237.568C217.691 237.461 217.809 237.379 217.942 237.32C218.081 237.256 218.227 237.224 218.382 237.224C218.542 237.224 218.691 237.256 218.83 237.32C218.974 237.379 219.099 237.461 219.206 237.568C219.313 237.669 219.395 237.789 219.454 237.928C219.518 238.067 219.55 238.216 219.55 238.376ZM221.423 249V240.84H222.463C222.698 240.84 222.847 240.949 222.911 241.168L223.023 241.88C223.172 241.709 223.327 241.555 223.487 241.416C223.647 241.272 223.818 241.149 223.999 241.048C224.186 240.941 224.383 240.859 224.591 240.8C224.804 240.741 225.034 240.712 225.279 240.712C225.54 240.712 225.78 240.749 225.999 240.824C226.218 240.899 226.41 241.005 226.575 241.144C226.746 241.283 226.892 241.451 227.015 241.648C227.138 241.845 227.239 242.067 227.319 242.312C227.442 242.029 227.596 241.787 227.783 241.584C227.97 241.381 228.178 241.216 228.407 241.088C228.636 240.96 228.879 240.867 229.135 240.808C229.396 240.744 229.66 240.712 229.927 240.712C230.364 240.712 230.754 240.781 231.095 240.92C231.442 241.059 231.732 241.261 231.967 241.528C232.207 241.789 232.388 242.112 232.511 242.496C232.634 242.88 232.695 243.317 232.695 243.808V249H230.975V243.808C230.975 243.232 230.85 242.8 230.599 242.512C230.354 242.219 229.988 242.072 229.503 242.072C229.284 242.072 229.079 242.109 228.887 242.184C228.695 242.259 228.527 242.368 228.383 242.512C228.239 242.656 228.124 242.837 228.039 243.056C227.959 243.269 227.919 243.52 227.919 243.808V249H226.199V243.808C226.199 243.211 226.079 242.773 225.839 242.496C225.599 242.213 225.247 242.072 224.783 242.072C224.463 242.072 224.167 242.155 223.895 242.32C223.623 242.48 223.372 242.701 223.143 242.984V249H221.423ZM240.056 244C240.056 243.712 240.014 243.445 239.928 243.2C239.848 242.949 239.728 242.733 239.568 242.552C239.408 242.365 239.208 242.221 238.968 242.12C238.734 242.013 238.462 241.96 238.152 241.96C237.528 241.96 237.038 242.139 236.68 242.496C236.323 242.853 236.096 243.355 236 244H240.056ZM235.952 245.056C235.974 245.52 236.046 245.923 236.168 246.264C236.291 246.6 236.454 246.88 236.656 247.104C236.864 247.328 237.11 247.496 237.392 247.608C237.68 247.715 238 247.768 238.352 247.768C238.688 247.768 238.979 247.731 239.224 247.656C239.47 247.576 239.683 247.491 239.864 247.4C240.046 247.304 240.2 247.219 240.328 247.144C240.456 247.064 240.574 247.024 240.68 247.024C240.819 247.024 240.926 247.077 241 247.184L241.488 247.816C241.286 248.056 241.056 248.259 240.8 248.424C240.544 248.589 240.272 248.725 239.984 248.832C239.696 248.933 239.4 249.005 239.096 249.048C238.792 249.096 238.496 249.12 238.208 249.12C237.643 249.12 237.118 249.027 236.632 248.84C236.152 248.648 235.734 248.368 235.376 248C235.024 247.632 234.747 247.176 234.544 246.632C234.347 246.088 234.248 245.461 234.248 244.752C234.248 244.187 234.336 243.659 234.512 243.168C234.694 242.677 234.95 242.251 235.28 241.888C235.616 241.525 236.022 241.24 236.496 241.032C236.976 240.819 237.518 240.712 238.12 240.712C238.622 240.712 239.086 240.795 239.512 240.96C239.939 241.12 240.307 241.357 240.616 241.672C240.926 241.987 241.166 242.373 241.336 242.832C241.512 243.285 241.6 243.803 241.6 244.384C241.6 244.651 241.571 244.829 241.512 244.92C241.454 245.011 241.347 245.056 241.192 245.056H235.952ZM244.828 242.352C245.084 241.835 245.394 241.429 245.756 241.136C246.119 240.837 246.554 240.688 247.06 240.688C247.236 240.688 247.402 240.709 247.556 240.752C247.711 240.789 247.85 240.848 247.972 240.928L247.852 242.224C247.831 242.315 247.796 242.379 247.748 242.416C247.706 242.448 247.647 242.464 247.572 242.464C247.492 242.464 247.378 242.451 247.228 242.424C247.079 242.392 246.922 242.376 246.756 242.376C246.516 242.376 246.303 242.411 246.116 242.48C245.935 242.549 245.77 242.651 245.62 242.784C245.476 242.917 245.348 243.08 245.236 243.272C245.124 243.464 245.02 243.683 244.924 243.928V249H243.204V240.84H244.204C244.386 240.84 244.511 240.875 244.58 240.944C244.65 241.008 244.698 241.123 244.724 241.288L244.828 242.352Z" fill="white"/>
<defs>
<filter id="filter0_d_472_267" x="21" y="74" width="287" height="215" filterUnits="userSpaceOnUse" color-interpolation-filters="sRGB">
<feFlood flood-opacity="0" result="BackgroundImageFix"/>
<feColorMatrix in="SourceAlpha" type="matrix" values="0 0 0 0 0 0 0 0 0 0 0 0 0 0 0 0 0 0 127 0" result="hardAlpha"/>
<feOffset dy="4"/>
<feGaussianBlur stdDeviation="2"/>
<feComposite in2="hardAlpha" operator="out"/>
<feColorMatrix type="matrix" values="0 0 0 0 0 0 0 0 0 0 0 0 0 0 0 0 0 0 0.25 0"/>
<feBlend mode="normal" in2="BackgroundImageFix" result="effect1_dropShadow_472_267"/>
<feBlend mode="normal" in="SourceGraphic" in2="effect1_dropShadow_472_267" result="shape"/>
</filter>
</defs>
</svg>
