<svg xmlns="http://www.w3.org/2000/svg" viewBox="0 0 247 298"><defs><style>.cls-1{fill:#fff;}</style></defs><g id="Calque_2" data-name="Calque 2"><g id="Calque_1-2" data-name="Calque 1"><path d="M1,0H247V297c-1.66,0-3.31-.09-5-.09q-117.27,0-234.55,0H1.09v-6.4q0-93.43,0-186.87Q1.08,51.82,1,0ZM8.61,289.1h230.6V7.89H8.61Z" transform="translate(0)"/><path class="cls-1" d="M1,0q0,51.83.09,103.64,0,93.43,0,186.87v6.4H7.48q117.27,0,234.55,0c1.66,0,3.31.06,5,.09a21.11,21.11,0,0,1-4.48,1Q121.26,298,0,298,0,151.24,0,4.49A21.19,21.19,0,0,1,1,0Z" transform="translate(0)"/><path class="cls-1" d="M8.61,289.1V7.89h230.6V289.1Zm21.7-22.67.25,1.85c.43.18.87.54,1.3.53,26.69-.33,53.43.08,80.07-1.36,14.89-.81,27.69-8.2,36-21.23,6.25-9.77,9-20.82,9-32.44,0-43.52.17-87-.07-130.56-.08-15.91-4.26-30.56-16.69-41.67-11.27-10.07-25.16-13-39.58-13.28-22.23-.44-44.48-.16-66.72-.14a21.39,21.39,0,0,0-3.51.57l0,1.84H48V265.83c-3.27,0-6.22-.07-9.17,0S33.13,266.23,30.31,266.43Zm157-174.08c5,0,9.52.47,13.91-.09C213.66,90.66,221,86.72,220.05,73c-.67-9.57-.1-19.24-.14-28.86,0-8-4.61-14.06-12.46-14.79-11.48-1.08-23-1.2-34.57-1.72l-.08,1.18,6.62.84V131.51l-6.16.45v.24h23v-.6h-9Zm-15.4,51.71v6h46.94v-6Z" transform="translate(0)"/><path d="M30.31,266.43c2.82-.2,5.65-.48,8.47-.57s5.9,0,9.17,0V30.54H30.34l0-1.84a21.39,21.39,0,0,1,3.51-.57c22.24,0,44.49-.3,66.72.14,14.42.28,28.31,3.21,39.58,13.28,12.43,11.11,16.61,25.76,16.69,41.67.24,43.52.11,87,.07,130.56,0,11.62-2.74,22.67-9,32.44-8.32,13-21.12,20.42-36,21.23-26.64,1.44-53.38,1-80.07,1.36-.43,0-.87-.35-1.3-.53Zm108.6-118.16h.43c0-19.43.1-38.85,0-58.27-.09-11.76-.82-23.45-4.44-34.83-4.09-12.89-12.21-21.46-25.81-22.79-12.17-1.19-24.49-.93-36.74-1.18-6.48-.14-6.5,0-6.5,6.49V247.34c0,4.81.12,9.63,0,14.44-.09,3,1,4.15,4,4.08,11.94-.25,23.9,0,35.81-.59,14.43-.72,24.75-8.63,28.74-22.51a102.65,102.65,0,0,0,4.35-25.3C139.3,194.41,138.91,171.33,138.91,148.27Z" transform="translate(0)"/><path d="M187.27,92.35V131.6h9v.6h-23V132l6.16-.45V29.62l-6.62-.84.08-1.18c11.52.52,23.09.64,34.57,1.72,7.85.73,12.42,6.84,12.46,14.79,0,9.62-.53,19.29.14,28.86,1,13.75-6.39,17.69-18.87,19.29C196.79,92.82,192.27,92.35,187.27,92.35Zm0-63.48V91c4.87,0,9.47.06,14.07,0,6.55-.09,10.5-2.69,10.74-9.11.55-14.41.37-28.85,0-43.27-.09-3.79-2-7.8-6.49-8.42C199.68,29.38,193.6,29.29,187.32,28.87Z" transform="translate(0)"/><path d="M171.87,144.06h46.94v6H171.87Z" transform="translate(0)"/><path class="cls-1" d="M138.91,148.27c0,23.06.39,46.14-.2,69.19a102.65,102.65,0,0,1-4.35,25.3c-4,13.88-14.31,21.79-28.74,22.51-11.91.6-23.87.34-35.81.59-3,.07-4.12-1.09-4-4.08.16-4.81,0-9.63,0-14.44V37.69c0-6.5,0-6.63,6.5-6.49,12.25.25,24.57,0,36.74,1.18,13.6,1.33,21.72,9.9,25.81,22.79,3.62,11.38,4.35,23.07,4.44,34.83.13,19.42,0,38.84,0,58.27Z" transform="translate(0)"/><path class="cls-1" d="M187.32,28.87c6.28.42,12.36.51,18.35,1.34,4.45.62,6.4,4.63,6.49,8.42.34,14.42.52,28.86,0,43.27-.24,6.42-4.19,9-10.74,9.11-4.6.07-9.2,0-14.07,0Z" transform="translate(0)"/></g></g></svg>