<svg width="440" height="398" viewBox="0 0 440 398" fill="none" xmlns="http://www.w3.org/2000/svg">
<rect width="440" height="398" fill="white"/>
<rect width="404" height="40" transform="translate(18 12)" fill="#D1D1E9"/>
<path d="M229.023 25.7504C227.928 25.7294 227.031 26.6465 227.031 27.7417V32H226.641V23.396C226.641 22.3008 225.744 21.3837 224.649 21.4046C223.588 21.425 222.734 22.2915 222.734 23.3574V32H222.344V21.4917C222.344 20.3965 221.447 19.4794 220.352 19.5004C219.291 19.5207 218.438 20.3872 218.438 21.4531V32H218.047V23.4448C218.047 22.3496 217.151 21.4325 216.056 21.4535C214.995 21.4738 214.141 22.3403 214.141 23.4063V34.9293L212.595 32.8044C211.961 31.932 210.739 31.7391 209.867 32.3735C208.995 33.008 208.802 34.2295 209.436 35.1019L215.569 43.5348C215.786 43.8337 216.072 44.077 216.401 44.2448C216.73 44.4126 217.095 44.5 217.465 44.5H227.112C228.2 44.5 229.145 43.7518 229.394 42.6931L230.688 37.1921C230.854 36.4884 230.937 35.7678 230.937 35.0449V27.7031C230.938 26.6372 230.084 25.7707 229.023 25.7504V25.7504Z" fill="#7261E9"/>
<rect width="404" height="32" transform="translate(18 71)" fill="white"/>
<path d="M38.0841 87.3C37.7841 86.8933 37.4407 86.6033 37.0541 86.43C36.6741 86.2567 36.2574 86.17 35.8041 86.17C34.9107 86.17 34.2174 86.4933 33.7241 87.14C33.2374 87.78 32.9941 88.7167 32.9941 89.95C32.9941 90.5967 33.0474 91.15 33.1541 91.61C33.2674 92.0633 33.4274 92.4367 33.6341 92.73C33.8474 93.0167 34.1074 93.23 34.4141 93.37C34.7207 93.5033 35.0674 93.57 35.4541 93.57C36.0207 93.57 36.5107 93.4433 36.9241 93.19C37.3374 92.9367 37.7241 92.58 38.0841 92.12V87.3ZM40.0441 84.84V98.41H38.0841V93.55C37.6641 94.03 37.1874 94.4167 36.6541 94.71C36.1207 94.9967 35.5041 95.14 34.8041 95.14C34.2241 95.14 33.6974 95.0267 33.2241 94.8C32.7574 94.5733 32.3574 94.2433 32.0241 93.81C31.6907 93.37 31.4341 92.8267 31.2541 92.18C31.0741 91.5333 30.9841 90.79 30.9841 89.95C30.9841 89.1967 31.0841 88.4967 31.2841 87.85C31.4841 87.2033 31.7741 86.6433 32.1541 86.17C32.5341 85.6967 32.9941 85.3267 33.5341 85.06C34.0741 84.7867 34.6841 84.65 35.3641 84.65C35.6907 84.65 35.9907 84.68 36.2641 84.74C36.5374 84.8 36.7907 84.8867 37.0241 85C37.2574 85.1133 37.4707 85.25 37.6641 85.41C37.8641 85.57 38.0507 85.7533 38.2241 85.96L38.3541 85.23C38.4207 84.97 38.5907 84.84 38.8641 84.84H40.0441ZM51.2145 84.84V95H50.0445C49.7779 95 49.6045 94.87 49.5245 94.61L49.3845 93.59C49.1645 93.8233 48.9345 94.0367 48.6945 94.23C48.4545 94.4233 48.1979 94.59 47.9245 94.73C47.6512 94.8633 47.3612 94.9667 47.0545 95.04C46.7479 95.12 46.4179 95.16 46.0645 95.16C45.5045 95.16 45.0112 95.0667 44.5845 94.88C44.1645 94.6933 43.8112 94.4333 43.5245 94.1C43.2379 93.76 43.0212 93.3533 42.8745 92.88C42.7279 92.4067 42.6545 91.8833 42.6545 91.31V84.84H44.6145V91.31C44.6145 92.0367 44.7812 92.6033 45.1145 93.01C45.4479 93.41 45.9579 93.61 46.6445 93.61C47.1445 93.61 47.6112 93.4933 48.0445 93.26C48.4779 93.02 48.8845 92.6933 49.2645 92.28V84.84H51.2145ZM59.3964 90.49C58.6031 90.5167 57.9297 90.58 57.3764 90.68C56.8231 90.7733 56.3731 90.9 56.0264 91.06C55.6797 91.22 55.4297 91.41 55.2764 91.63C55.1231 91.8433 55.0464 92.0833 55.0464 92.35C55.0464 92.6033 55.0864 92.8233 55.1664 93.01C55.2531 93.19 55.3664 93.34 55.5064 93.46C55.6531 93.5733 55.8231 93.6567 56.0164 93.71C56.2097 93.7633 56.4197 93.79 56.6464 93.79C56.9464 93.79 57.2197 93.76 57.4664 93.7C57.7197 93.64 57.9564 93.5567 58.1764 93.45C58.3964 93.3367 58.6064 93.2 58.8064 93.04C59.0064 92.88 59.2031 92.6967 59.3964 92.49V90.49ZM53.6764 86.26C54.2431 85.72 54.8564 85.3167 55.5164 85.05C56.1831 84.7833 56.9131 84.65 57.7064 84.65C58.2864 84.65 58.7997 84.7467 59.2464 84.94C59.6931 85.1267 60.0697 85.39 60.3764 85.73C60.6831 86.07 60.9131 86.4767 61.0664 86.95C61.2264 87.4233 61.3064 87.9467 61.3064 88.52V95H60.4364C60.2431 95 60.0964 94.97 59.9964 94.91C59.8964 94.8433 59.8164 94.7233 59.7564 94.55L59.5464 93.66C59.2864 93.9 59.0297 94.1133 58.7764 94.3C58.5231 94.48 58.2564 94.6367 57.9764 94.77C57.7031 94.8967 57.4097 94.9933 57.0964 95.06C56.7831 95.1267 56.4364 95.16 56.0564 95.16C55.6564 95.16 55.2797 95.1067 54.9264 95C54.5797 94.8867 54.2764 94.7167 54.0164 94.49C53.7564 94.2633 53.5497 93.98 53.3964 93.64C53.2497 93.3 53.1764 92.9033 53.1764 92.45C53.1764 92.05 53.2831 91.6667 53.4964 91.3C53.7164 90.9267 54.0697 90.5933 54.5564 90.3C55.0497 90.0067 55.6897 89.7667 56.4764 89.58C57.2697 89.3933 58.2431 89.2867 59.3964 89.26V88.52C59.3964 87.7533 59.2331 87.18 58.9064 86.8C58.5797 86.42 58.0997 86.23 57.4664 86.23C57.0397 86.23 56.6797 86.2833 56.3864 86.39C56.0997 86.4967 55.8497 86.6167 55.6364 86.75C55.4297 86.8767 55.2464 86.9933 55.0864 87.1C54.9331 87.2067 54.7731 87.26 54.6064 87.26C54.4731 87.26 54.3564 87.2233 54.2564 87.15C54.1631 87.0767 54.0864 86.99 54.0264 86.89L53.6764 86.26ZM65.7469 86.25C65.9669 86.0167 66.1969 85.8033 66.4369 85.61C66.6769 85.4167 66.9302 85.2533 67.1969 85.12C67.4702 84.98 67.7602 84.8733 68.0669 84.8C68.3802 84.72 68.7135 84.68 69.0669 84.68C69.6269 84.68 70.1169 84.7733 70.5369 84.96C70.9635 85.1467 71.3202 85.41 71.6069 85.75C71.8935 86.0833 72.1102 86.4867 72.2569 86.96C72.4035 87.4333 72.4769 87.9567 72.4769 88.53V95H70.5169V88.53C70.5169 87.8033 70.3502 87.24 70.0169 86.84C69.6835 86.4333 69.1735 86.23 68.4869 86.23C67.9869 86.23 67.5169 86.35 67.0769 86.59C66.6435 86.8233 66.2402 87.1433 65.8669 87.55V95H63.9169V84.84H65.0869C65.3602 84.84 65.5302 84.97 65.5969 85.23L65.7469 86.25ZM84.6016 95H82.6416V86.42H77.5416V92.37C77.5416 92.77 77.6382 93.07 77.8316 93.27C78.0316 93.4633 78.2849 93.56 78.5916 93.56C78.7716 93.56 78.9249 93.5367 79.0516 93.49C79.1849 93.4433 79.2982 93.3933 79.3916 93.34C79.4849 93.28 79.5649 93.2267 79.6316 93.18C79.6982 93.1333 79.7582 93.11 79.8116 93.11C79.8782 93.11 79.9282 93.1267 79.9616 93.16C80.0016 93.1867 80.0416 93.2333 80.0816 93.3L80.6616 94.24C80.3416 94.5333 79.9616 94.76 79.5216 94.92C79.0816 95.08 78.6249 95.16 78.1516 95.16C77.3316 95.16 76.6982 94.93 76.2516 94.47C75.8116 94.01 75.5916 93.3533 75.5916 92.5V86.42H74.4116C74.2982 86.42 74.2016 86.3867 74.1216 86.32C74.0482 86.2467 74.0116 86.14 74.0116 86V85.21L75.6716 84.98L76.1016 81.95C76.1282 81.8367 76.1782 81.75 76.2516 81.69C76.3316 81.6233 76.4316 81.59 76.5516 81.59H77.5416V85H84.6016V95ZM85.0416 81.64C85.0416 81.82 85.0049 81.9933 84.9316 82.16C84.8582 82.32 84.7582 82.4633 84.6316 82.59C84.5116 82.71 84.3682 82.8067 84.2016 82.88C84.0349 82.9467 83.8616 82.98 83.6816 82.98C83.5016 82.98 83.3316 82.9467 83.1716 82.88C83.0116 82.8067 82.8682 82.71 82.7416 82.59C82.6216 82.4633 82.5249 82.32 82.4516 82.16C82.3849 81.9933 82.3516 81.82 82.3516 81.64C82.3516 81.4533 82.3849 81.2767 82.4516 81.11C82.5249 80.9433 82.6216 80.8 82.7416 80.68C82.8682 80.5533 83.0116 80.4567 83.1716 80.39C83.3316 80.3167 83.5016 80.28 83.6816 80.28C83.8616 80.28 84.0349 80.3167 84.2016 80.39C84.3682 80.4567 84.5116 80.5533 84.6316 80.68C84.7582 80.8 84.8582 80.9433 84.9316 81.11C85.0049 81.2767 85.0416 81.4533 85.0416 81.64ZM90.6125 95.16C89.7925 95.16 89.1592 94.93 88.7125 94.47C88.2725 94.01 88.0525 93.3533 88.0525 92.5V86.42H86.8725C86.7592 86.42 86.6625 86.3867 86.5825 86.32C86.5092 86.2467 86.4725 86.14 86.4725 86V85.21L88.1225 84.98L88.5625 81.95C88.5892 81.8367 88.6392 81.75 88.7125 81.69C88.7925 81.6233 88.8925 81.59 89.0125 81.59H90.0025V85H92.8825V86.42H90.0025V92.37C90.0025 92.77 90.0992 93.07 90.2925 93.27C90.4925 93.4633 90.7458 93.56 91.0525 93.56C91.2325 93.56 91.3858 93.5367 91.5125 93.49C91.6458 93.4433 91.7592 93.3933 91.8525 93.34C91.9458 93.28 92.0258 93.2267 92.0925 93.18C92.1592 93.1333 92.2192 93.11 92.2725 93.11C92.3392 93.11 92.3892 93.1267 92.4225 93.16C92.4625 93.1867 92.5025 93.2333 92.5425 93.3L93.1225 94.24C92.8025 94.5333 92.4225 94.76 91.9825 94.92C91.5425 95.08 91.0858 95.16 90.6125 95.16ZM101.35 88.79C101.35 88.4033 101.293 88.0467 101.18 87.72C101.073 87.3933 100.913 87.11 100.7 86.87C100.487 86.63 100.227 86.4433 99.92 86.31C99.6133 86.1767 99.26 86.11 98.86 86.11C98.04 86.11 97.3933 86.3467 96.92 86.82C96.4533 87.2933 96.1567 87.95 96.03 88.79H101.35ZM102.96 93.55C102.72 93.83 102.443 94.0733 102.13 94.28C101.817 94.48 101.483 94.6433 101.13 94.77C100.777 94.8967 100.41 94.99 100.03 95.05C99.6567 95.11 99.2867 95.14 98.92 95.14C98.22 95.14 97.57 95.0233 96.97 94.79C96.3767 94.55 95.86 94.2033 95.42 93.75C94.9867 93.29 94.6467 92.7233 94.4 92.05C94.16 91.37 94.04 90.59 94.04 89.71C94.04 89.0033 94.15 88.3467 94.37 87.74C94.59 87.1267 94.9033 86.5933 95.31 86.14C95.7233 85.6867 96.2267 85.33 96.82 85.07C97.4133 84.81 98.08 84.68 98.82 84.68C99.44 84.68 100.01 84.7833 100.53 84.99C101.057 85.19 101.51 85.4833 101.89 85.87C102.27 86.2567 102.567 86.7333 102.78 87.3C103 87.8667 103.11 88.5133 103.11 89.24C103.11 89.54 103.077 89.7433 103.01 89.85C102.943 89.95 102.82 90 102.64 90H95.98C96 90.6067 96.0867 91.1367 96.24 91.59C96.3933 92.0367 96.6033 92.41 96.87 92.71C97.1433 93.01 97.4667 93.2333 97.84 93.38C98.2133 93.5267 98.63 93.6 99.09 93.6C99.5233 93.6 99.8967 93.55 100.21 93.45C100.53 93.35 100.803 93.2433 101.03 93.13C101.263 93.01 101.457 92.9 101.61 92.8C101.77 92.7 101.91 92.65 102.03 92.65C102.19 92.65 102.313 92.71 102.4 92.83L102.96 93.55ZM101.91 80.48L99.54 83.06C99.44 83.1733 99.3433 83.2533 99.25 83.3C99.1567 83.34 99.0333 83.36 98.88 83.36H97.7L99.18 80.94C99.2733 80.7867 99.3733 80.6733 99.48 80.6C99.5933 80.52 99.7667 80.48 100 80.48H101.91Z" fill="black"/>
<path d="M415.219 87.82C415.219 89.0733 415.083 90.16 414.809 91.08C414.543 92 414.173 92.7633 413.699 93.37C413.233 93.97 412.679 94.4167 412.039 94.71C411.406 95.0033 410.723 95.15 409.989 95.15C409.256 95.15 408.569 95.0033 407.929 94.71C407.296 94.4167 406.746 93.97 406.279 93.37C405.813 92.7633 405.446 92 405.179 91.08C404.913 90.16 404.779 89.0733 404.779 87.82C404.779 86.5667 404.913 85.48 405.179 84.56C405.446 83.6333 405.813 82.87 406.279 82.27C406.746 81.6633 407.296 81.2133 407.929 80.92C408.569 80.6267 409.256 80.48 409.989 80.48C410.723 80.48 411.406 80.6267 412.039 80.92C412.679 81.2133 413.233 81.6633 413.699 82.27C414.173 82.87 414.543 83.6333 414.809 84.56C415.083 85.48 415.219 86.5667 415.219 87.82ZM413.199 87.82C413.199 86.74 413.109 85.8367 412.929 85.11C412.756 84.3833 412.519 83.8 412.219 83.36C411.926 82.9133 411.586 82.5967 411.199 82.41C410.813 82.2233 410.409 82.13 409.989 82.13C409.569 82.13 409.166 82.2233 408.779 82.41C408.393 82.5967 408.049 82.9133 407.749 83.36C407.456 83.8 407.223 84.3833 407.049 85.11C406.876 85.8367 406.789 86.74 406.789 87.82C406.789 88.9 406.876 89.8033 407.049 90.53C407.223 91.2567 407.456 91.84 407.749 92.28C408.049 92.72 408.393 93.0333 408.779 93.22C409.166 93.4067 409.569 93.5 409.989 93.5C410.409 93.5 410.813 93.4067 411.199 93.22C411.586 93.0333 411.926 92.72 412.219 92.28C412.519 91.84 412.756 91.2567 412.929 90.53C413.109 89.8033 413.199 88.9 413.199 87.82Z" fill="black"/>
<rect width="404" height="32" transform="translate(18 122)" fill="white"/>
<path d="M38.211 138.3C37.891 137.88 37.5443 137.587 37.171 137.42C36.8043 137.253 36.391 137.17 35.931 137.17C35.0377 137.17 34.3443 137.493 33.851 138.14C33.3643 138.78 33.121 139.717 33.121 140.95C33.121 141.597 33.1743 142.15 33.281 142.61C33.3943 143.063 33.5543 143.437 33.761 143.73C33.9743 144.017 34.2343 144.23 34.541 144.37C34.8477 144.503 35.1943 144.57 35.581 144.57C36.1477 144.57 36.6377 144.443 37.051 144.19C37.4643 143.937 37.851 143.58 38.211 143.12V138.3ZM40.171 131.24V146H38.991C38.7177 146 38.5477 145.87 38.481 145.61L38.311 144.44C37.8777 144.953 37.3843 145.367 36.831 145.68C36.2843 145.987 35.651 146.14 34.931 146.14C34.351 146.14 33.8243 146.027 33.351 145.8C32.8843 145.573 32.4843 145.243 32.151 144.81C31.8177 144.37 31.561 143.827 31.381 143.18C31.201 142.533 31.111 141.79 31.111 140.95C31.111 140.197 31.211 139.497 31.411 138.85C31.611 138.203 31.901 137.643 32.281 137.17C32.661 136.697 33.121 136.327 33.661 136.06C34.201 135.787 34.811 135.65 35.491 135.65C36.1043 135.65 36.6243 135.75 37.051 135.95C37.4843 136.15 37.871 136.433 38.211 136.8V131.24H40.171ZM49.6215 139.79C49.6215 139.403 49.5648 139.047 49.4515 138.72C49.3448 138.393 49.1848 138.11 48.9715 137.87C48.7582 137.63 48.4982 137.443 48.1915 137.31C47.8848 137.177 47.5315 137.11 47.1315 137.11C46.3115 137.11 45.6648 137.347 45.1915 137.82C44.7248 138.293 44.4282 138.95 44.3015 139.79H49.6215ZM51.2315 144.55C50.9915 144.83 50.7148 145.073 50.4015 145.28C50.0882 145.48 49.7548 145.643 49.4015 145.77C49.0482 145.897 48.6815 145.99 48.3015 146.05C47.9282 146.11 47.5582 146.14 47.1915 146.14C46.4915 146.14 45.8415 146.023 45.2415 145.79C44.6482 145.55 44.1315 145.203 43.6915 144.75C43.2582 144.29 42.9182 143.723 42.6715 143.05C42.4315 142.37 42.3115 141.59 42.3115 140.71C42.3115 140.003 42.4215 139.347 42.6415 138.74C42.8615 138.127 43.1748 137.593 43.5815 137.14C43.9948 136.687 44.4982 136.33 45.0915 136.07C45.6848 135.81 46.3515 135.68 47.0915 135.68C47.7115 135.68 48.2815 135.783 48.8015 135.99C49.3282 136.19 49.7815 136.483 50.1615 136.87C50.5415 137.257 50.8382 137.733 51.0515 138.3C51.2715 138.867 51.3815 139.513 51.3815 140.24C51.3815 140.54 51.3482 140.743 51.2815 140.85C51.2148 140.95 51.0915 141 50.9115 141H44.2515C44.2715 141.607 44.3582 142.137 44.5115 142.59C44.6648 143.037 44.8748 143.41 45.1415 143.71C45.4148 144.01 45.7382 144.233 46.1115 144.38C46.4848 144.527 46.9015 144.6 47.3615 144.6C47.7948 144.6 48.1682 144.55 48.4815 144.45C48.8015 144.35 49.0748 144.243 49.3015 144.13C49.5348 144.01 49.7282 143.9 49.8815 143.8C50.0415 143.7 50.1815 143.65 50.3015 143.65C50.4615 143.65 50.5848 143.71 50.6715 143.83L51.2315 144.55ZM59.4674 137.59C59.4141 137.677 59.3574 137.74 59.2974 137.78C59.2374 137.813 59.1608 137.83 59.0674 137.83C58.9608 137.83 58.8408 137.793 58.7074 137.72C58.5808 137.647 58.4241 137.567 58.2374 137.48C58.0574 137.393 57.8441 137.313 57.5974 137.24C57.3508 137.167 57.0574 137.13 56.7174 137.13C56.4374 137.13 56.1808 137.167 55.9474 137.24C55.7208 137.307 55.5274 137.403 55.3674 137.53C55.2074 137.65 55.0841 137.797 54.9974 137.97C54.9108 138.137 54.8674 138.317 54.8674 138.51C54.8674 138.763 54.9408 138.973 55.0874 139.14C55.2408 139.307 55.4374 139.45 55.6774 139.57C55.9241 139.69 56.2008 139.8 56.5074 139.9C56.8208 139.993 57.1374 140.093 57.4574 140.2C57.7841 140.307 58.1008 140.43 58.4074 140.57C58.7208 140.703 58.9974 140.873 59.2374 141.08C59.4841 141.28 59.6808 141.523 59.8274 141.81C59.9808 142.097 60.0574 142.447 60.0574 142.86C60.0574 143.333 59.9708 143.773 59.7974 144.18C59.6308 144.58 59.3808 144.927 59.0474 145.22C58.7208 145.513 58.3141 145.743 57.8274 145.91C57.3408 146.077 56.7841 146.16 56.1574 146.16C55.4574 146.16 54.8108 146.043 54.2174 145.81C53.6241 145.577 53.1274 145.28 52.7274 144.92L53.1874 144.17C53.2408 144.077 53.3074 144.007 53.3874 143.96C53.4674 143.907 53.5741 143.88 53.7074 143.88C53.8341 143.88 53.9641 143.927 54.0974 144.02C54.2308 144.113 54.3908 144.217 54.5774 144.33C54.7641 144.437 54.9908 144.537 55.2574 144.63C55.5241 144.717 55.8574 144.76 56.2574 144.76C56.5908 144.76 56.8808 144.72 57.1274 144.64C57.3741 144.553 57.5774 144.44 57.7374 144.3C57.9041 144.153 58.0274 143.987 58.1074 143.8C58.1874 143.613 58.2274 143.417 58.2274 143.21C58.2274 142.943 58.1508 142.723 57.9974 142.55C57.8508 142.37 57.6541 142.217 57.4074 142.09C57.1674 141.963 56.8908 141.853 56.5774 141.76C56.2641 141.667 55.9441 141.567 55.6174 141.46C55.2908 141.353 54.9708 141.23 54.6574 141.09C54.3441 140.95 54.0641 140.773 53.8174 140.56C53.5774 140.347 53.3808 140.087 53.2274 139.78C53.0808 139.473 53.0074 139.1 53.0074 138.66C53.0074 138.267 53.0874 137.89 53.2474 137.53C53.4141 137.17 53.6508 136.853 53.9574 136.58C54.2708 136.307 54.6541 136.09 55.1074 135.93C55.5674 135.763 56.0908 135.68 56.6774 135.68C57.3508 135.68 57.9574 135.787 58.4974 136C59.0441 136.213 59.5108 136.507 59.8974 136.88L59.4674 137.59ZM69.2888 137.74C69.2288 137.813 69.1688 137.873 69.1088 137.92C69.0555 137.96 68.9755 137.98 68.8688 137.98C68.7622 137.98 68.6488 137.94 68.5288 137.86C68.4155 137.773 68.2688 137.683 68.0888 137.59C67.9155 137.49 67.7022 137.4 67.4488 137.32C67.2022 137.233 66.8955 137.19 66.5288 137.19C66.0488 137.19 65.6255 137.277 65.2588 137.45C64.8922 137.623 64.5855 137.87 64.3388 138.19C64.0988 138.51 63.9155 138.9 63.7888 139.36C63.6622 139.82 63.5988 140.337 63.5988 140.91C63.5988 141.503 63.6655 142.033 63.7988 142.5C63.9322 142.96 64.1222 143.35 64.3688 143.67C64.6155 143.983 64.9155 144.223 65.2688 144.39C65.6222 144.55 66.0155 144.63 66.4488 144.63C66.8688 144.63 67.2155 144.58 67.4888 144.48C67.7622 144.373 67.9888 144.26 68.1688 144.14C68.3488 144.02 68.4988 143.91 68.6188 143.81C68.7388 143.703 68.8622 143.65 68.9888 143.65C69.1488 143.65 69.2722 143.71 69.3588 143.83L69.9188 144.55C69.6855 144.837 69.4222 145.08 69.1288 145.28C68.8422 145.48 68.5355 145.643 68.2088 145.77C67.8822 145.897 67.5388 145.99 67.1788 146.05C66.8255 146.11 66.4655 146.14 66.0988 146.14C65.4655 146.14 64.8722 146.023 64.3188 145.79C63.7722 145.557 63.2955 145.217 62.8888 144.77C62.4888 144.323 62.1722 143.777 61.9388 143.13C61.7055 142.477 61.5888 141.737 61.5888 140.91C61.5888 140.157 61.6922 139.46 61.8988 138.82C62.1122 138.18 62.4222 137.63 62.8288 137.17C63.2422 136.703 63.7488 136.34 64.3488 136.08C64.9488 135.813 65.6355 135.68 66.4088 135.68C67.1355 135.68 67.7755 135.797 68.3288 136.03C68.8822 136.263 69.3755 136.593 69.8088 137.02L69.2888 137.74ZM73.5791 137.79C73.9058 137.123 74.2991 136.6 74.7591 136.22C75.2191 135.84 75.7725 135.65 76.4191 135.65C76.6391 135.65 76.8458 135.677 77.0391 135.73C77.2391 135.777 77.4125 135.85 77.5591 135.95L77.4291 137.42C77.3825 137.6 77.2725 137.69 77.0991 137.69C77.0058 137.69 76.8658 137.673 76.6791 137.64C76.4925 137.6 76.2925 137.58 76.0791 137.58C75.7658 137.58 75.4891 137.627 75.2491 137.72C75.0091 137.807 74.7925 137.94 74.5991 138.12C74.4125 138.293 74.2458 138.51 74.0991 138.77C73.9525 139.023 73.8158 139.313 73.6891 139.64V146H71.7391V135.84H72.8591C73.0725 135.84 73.2158 135.88 73.2891 135.96C73.3691 136.033 73.4258 136.167 73.4591 136.36L73.5791 137.79ZM81.1034 135.84V146H79.1534V135.84H81.1034ZM81.4734 132.7C81.4734 132.88 81.4367 133.053 81.3634 133.22C81.29 133.38 81.19 133.523 81.0634 133.65C80.9434 133.77 80.8 133.867 80.6334 133.94C80.4667 134.007 80.2934 134.04 80.1134 134.04C79.9334 134.04 79.7634 134.007 79.6034 133.94C79.4434 133.867 79.3 133.77 79.1734 133.65C79.0534 133.523 78.9567 133.38 78.8834 133.22C78.8167 133.053 78.7834 132.88 78.7834 132.7C78.7834 132.513 78.8167 132.34 78.8834 132.18C78.9567 132.013 79.0534 131.87 79.1734 131.75C79.3 131.623 79.4434 131.527 79.6034 131.46C79.7634 131.387 79.9334 131.35 80.1134 131.35C80.2934 131.35 80.4667 131.387 80.6334 131.46C80.8 131.527 80.9434 131.623 81.0634 131.75C81.19 131.87 81.29 132.013 81.3634 132.18C81.4367 132.34 81.4734 132.513 81.4734 132.7ZM85.8766 143.5C86.1966 143.92 86.54 144.213 86.9066 144.38C87.28 144.547 87.6966 144.63 88.1566 144.63C89.05 144.63 89.74 144.31 90.2266 143.67C90.72 143.023 90.9666 142.083 90.9666 140.85C90.9666 140.203 90.91 139.653 90.7966 139.2C90.69 138.74 90.53 138.367 90.3166 138.08C90.11 137.787 89.8533 137.573 89.5466 137.44C89.24 137.3 88.8933 137.23 88.5066 137.23C87.94 137.23 87.4466 137.357 87.0266 137.61C86.6133 137.863 86.23 138.223 85.8766 138.69V143.5ZM85.7766 137.36C85.99 137.107 86.2166 136.877 86.4566 136.67C86.7033 136.457 86.9666 136.277 87.2466 136.13C87.5266 135.977 87.8233 135.86 88.1366 135.78C88.4566 135.693 88.7966 135.65 89.1566 135.65C89.7366 135.65 90.26 135.763 90.7266 135.99C91.2 136.217 91.6033 136.55 91.9366 136.99C92.27 137.43 92.5266 137.973 92.7066 138.62C92.8933 139.267 92.9866 140.01 92.9866 140.85C92.9866 141.603 92.8833 142.303 92.6766 142.95C92.4766 143.59 92.1866 144.147 91.8066 144.62C91.4333 145.093 90.9733 145.467 90.4266 145.74C89.8866 146.007 89.2766 146.14 88.5966 146.14C87.99 146.14 87.47 146.04 87.0366 145.84C86.6033 145.64 86.2166 145.36 85.8766 145V149.41H83.9266V135.84H85.0966C85.37 135.84 85.54 135.97 85.6066 136.23L85.7766 137.36ZM104.67 146H102.71V137.42H97.6099V143.37C97.6099 143.77 97.7066 144.07 97.8999 144.27C98.0999 144.463 98.3533 144.56 98.6599 144.56C98.8399 144.56 98.9933 144.537 99.1199 144.49C99.2533 144.443 99.3666 144.393 99.4599 144.34C99.5533 144.28 99.6333 144.227 99.6999 144.18C99.7666 144.133 99.8266 144.11 99.8799 144.11C99.9466 144.11 99.9966 144.127 100.03 144.16C100.07 144.187 100.11 144.233 100.15 144.3L100.73 145.24C100.41 145.533 100.03 145.76 99.5899 145.92C99.1499 146.08 98.6933 146.16 98.2199 146.16C97.3999 146.16 96.7666 145.93 96.3199 145.47C95.8799 145.01 95.6599 144.353 95.6599 143.5V137.42H94.4799C94.3666 137.42 94.2699 137.387 94.1899 137.32C94.1166 137.247 94.0799 137.14 94.0799 137V136.21L95.7399 135.98L96.1699 132.95C96.1966 132.837 96.2466 132.75 96.3199 132.69C96.3999 132.623 96.4999 132.59 96.6199 132.59H97.6099V136H104.67V146ZM105.11 132.64C105.11 132.82 105.073 132.993 105 133.16C104.927 133.32 104.827 133.463 104.7 133.59C104.58 133.71 104.437 133.807 104.27 133.88C104.103 133.947 103.93 133.98 103.75 133.98C103.57 133.98 103.4 133.947 103.24 133.88C103.08 133.807 102.937 133.71 102.81 133.59C102.69 133.463 102.593 133.32 102.52 133.16C102.453 132.993 102.42 132.82 102.42 132.64C102.42 132.453 102.453 132.277 102.52 132.11C102.593 131.943 102.69 131.8 102.81 131.68C102.937 131.553 103.08 131.457 103.24 131.39C103.4 131.317 103.57 131.28 103.75 131.28C103.93 131.28 104.103 131.317 104.27 131.39C104.437 131.457 104.58 131.553 104.7 131.68C104.827 131.8 104.927 131.943 105 132.11C105.073 132.277 105.11 132.453 105.11 132.64ZM111.831 135.68C112.578 135.68 113.251 135.803 113.851 136.05C114.458 136.29 114.971 136.64 115.391 137.1C115.818 137.553 116.144 138.103 116.371 138.75C116.598 139.39 116.711 140.11 116.711 140.91C116.711 141.71 116.598 142.433 116.371 143.08C116.144 143.727 115.818 144.277 115.391 144.73C114.971 145.183 114.458 145.533 113.851 145.78C113.251 146.02 112.578 146.14 111.831 146.14C111.078 146.14 110.398 146.02 109.791 145.78C109.191 145.533 108.678 145.183 108.251 144.73C107.824 144.277 107.494 143.727 107.261 143.08C107.034 142.433 106.921 141.71 106.921 140.91C106.921 140.11 107.034 139.39 107.261 138.75C107.494 138.103 107.824 137.553 108.251 137.1C108.678 136.64 109.191 136.29 109.791 136.05C110.398 135.803 111.078 135.68 111.831 135.68ZM111.831 144.62C112.791 144.62 113.508 144.297 113.981 143.65C114.454 143.003 114.691 142.093 114.691 140.92C114.691 139.747 114.454 138.837 113.981 138.19C113.508 137.537 112.791 137.21 111.831 137.21C110.858 137.21 110.131 137.537 109.651 138.19C109.178 138.837 108.941 139.747 108.941 140.92C108.941 142.093 109.178 143.003 109.651 143.65C110.131 144.297 110.858 144.62 111.831 144.62ZM120.718 137.25C120.938 137.017 121.168 136.803 121.408 136.61C121.648 136.417 121.901 136.253 122.168 136.12C122.441 135.98 122.731 135.873 123.038 135.8C123.351 135.72 123.684 135.68 124.038 135.68C124.598 135.68 125.088 135.773 125.508 135.96C125.934 136.147 126.291 136.41 126.578 136.75C126.864 137.083 127.081 137.487 127.228 137.96C127.374 138.433 127.448 138.957 127.448 139.53V146H125.488V139.53C125.488 138.803 125.321 138.24 124.988 137.84C124.654 137.433 124.144 137.23 123.458 137.23C122.958 137.23 122.488 137.35 122.048 137.59C121.614 137.823 121.211 138.143 120.838 138.55V146H118.888V135.84H120.058C120.331 135.84 120.501 135.97 120.568 136.23L120.718 137.25Z" fill="black"/>
<path d="M414.219 138.82C414.219 140.073 414.083 141.16 413.809 142.08C413.543 143 413.173 143.763 412.699 144.37C412.233 144.97 411.679 145.417 411.039 145.71C410.406 146.003 409.723 146.15 408.989 146.15C408.256 146.15 407.569 146.003 406.929 145.71C406.296 145.417 405.746 144.97 405.279 144.37C404.813 143.763 404.446 143 404.179 142.08C403.913 141.16 403.779 140.073 403.779 138.82C403.779 137.567 403.913 136.48 404.179 135.56C404.446 134.633 404.813 133.87 405.279 133.27C405.746 132.663 406.296 132.213 406.929 131.92C407.569 131.627 408.256 131.48 408.989 131.48C409.723 131.48 410.406 131.627 411.039 131.92C411.679 132.213 412.233 132.663 412.699 133.27C413.173 133.87 413.543 134.633 413.809 135.56C414.083 136.48 414.219 137.567 414.219 138.82ZM412.199 138.82C412.199 137.74 412.109 136.837 411.929 136.11C411.756 135.383 411.519 134.8 411.219 134.36C410.926 133.913 410.586 133.597 410.199 133.41C409.813 133.223 409.409 133.13 408.989 133.13C408.569 133.13 408.166 133.223 407.779 133.41C407.393 133.597 407.049 133.913 406.749 134.36C406.456 134.8 406.223 135.383 406.049 136.11C405.876 136.837 405.789 137.74 405.789 138.82C405.789 139.9 405.876 140.803 406.049 141.53C406.223 142.257 406.456 142.84 406.749 143.28C407.049 143.72 407.393 144.033 407.779 144.22C408.166 144.407 408.569 144.5 408.989 144.5C409.409 144.5 409.813 144.407 410.199 144.22C410.586 144.033 410.926 143.72 411.219 143.28C411.519 142.84 411.756 142.257 411.929 141.53C412.109 140.803 412.199 139.9 412.199 138.82Z" fill="black"/>
<rect width="404" height="32" transform="translate(18 173)" fill="white"/>
<path d="M33.6052 194.5C33.9252 194.92 34.2685 195.213 34.6352 195.38C35.0085 195.547 35.4252 195.63 35.8852 195.63C36.7785 195.63 37.4685 195.31 37.9552 194.67C38.4485 194.023 38.6952 193.083 38.6952 191.85C38.6952 191.203 38.6385 190.653 38.5252 190.2C38.4185 189.74 38.2585 189.367 38.0452 189.08C37.8385 188.787 37.5818 188.573 37.2752 188.44C36.9685 188.3 36.6218 188.23 36.2352 188.23C35.6685 188.23 35.1752 188.357 34.7552 188.61C34.3418 188.863 33.9585 189.223 33.6052 189.69V194.5ZM33.5052 188.36C33.7185 188.107 33.9452 187.877 34.1852 187.67C34.4318 187.457 34.6952 187.277 34.9752 187.13C35.2552 186.977 35.5518 186.86 35.8652 186.78C36.1852 186.693 36.5252 186.65 36.8852 186.65C37.4652 186.65 37.9885 186.763 38.4552 186.99C38.9285 187.217 39.3318 187.55 39.6652 187.99C39.9985 188.43 40.2552 188.973 40.4352 189.62C40.6218 190.267 40.7152 191.01 40.7152 191.85C40.7152 192.603 40.6118 193.303 40.4052 193.95C40.2052 194.59 39.9152 195.147 39.5352 195.62C39.1618 196.093 38.7018 196.467 38.1552 196.74C37.6152 197.007 37.0052 197.14 36.3252 197.14C35.7185 197.14 35.1985 197.04 34.7652 196.84C34.3318 196.64 33.9452 196.36 33.6052 196V200.41H31.6552V186.84H32.8252C33.0985 186.84 33.2685 186.97 33.3352 187.23L33.5052 188.36ZM44.7452 188.79C45.0718 188.123 45.4652 187.6 45.9252 187.22C46.3852 186.84 46.9385 186.65 47.5852 186.65C47.8052 186.65 48.0118 186.677 48.2052 186.73C48.4052 186.777 48.5785 186.85 48.7252 186.95L48.5952 188.42C48.5485 188.6 48.4385 188.69 48.2652 188.69C48.1718 188.69 48.0318 188.673 47.8452 188.64C47.6585 188.6 47.4585 188.58 47.2452 188.58C46.9318 188.58 46.6552 188.627 46.4152 188.72C46.1752 188.807 45.9585 188.94 45.7652 189.12C45.5785 189.293 45.4118 189.51 45.2652 189.77C45.1185 190.023 44.9818 190.313 44.8552 190.64V197H42.9052V186.84H44.0252C44.2385 186.84 44.3818 186.88 44.4552 186.96C44.5352 187.033 44.5918 187.167 44.6252 187.36L44.7452 188.79ZM52.2694 186.84V197H50.3194V186.84H52.2694ZM52.6394 183.7C52.6394 183.88 52.6027 184.053 52.5294 184.22C52.456 184.38 52.356 184.523 52.2294 184.65C52.1094 184.77 51.966 184.867 51.7994 184.94C51.6327 185.007 51.4594 185.04 51.2794 185.04C51.0994 185.04 50.9294 185.007 50.7694 184.94C50.6094 184.867 50.466 184.77 50.3394 184.65C50.2194 184.523 50.1227 184.38 50.0494 184.22C49.9827 184.053 49.9494 183.88 49.9494 183.7C49.9494 183.513 49.9827 183.34 50.0494 183.18C50.1227 183.013 50.2194 182.87 50.3394 182.75C50.466 182.623 50.6094 182.527 50.7694 182.46C50.9294 182.387 51.0994 182.35 51.2794 182.35C51.4594 182.35 51.6327 182.387 51.7994 182.46C51.966 182.527 52.1094 182.623 52.2294 182.75C52.356 182.87 52.456 183.013 52.5294 183.18C52.6027 183.34 52.6394 183.513 52.6394 183.7ZM63.6127 197H61.7327C61.5793 197 61.456 196.96 61.3627 196.88C61.276 196.793 61.206 196.703 61.1527 196.61L58.7027 192.74C58.6693 192.84 58.636 192.937 58.6027 193.03C58.5693 193.123 58.526 193.21 58.4727 193.29L56.2227 196.61C56.156 196.703 56.0793 196.793 55.9927 196.88C55.906 196.96 55.7927 197 55.6527 197H53.9127L57.4527 191.77L54.0527 186.84H55.9327C56.086 186.84 56.196 186.863 56.2627 186.91C56.336 186.957 56.3993 187.027 56.4527 187.12L58.8627 190.83C58.896 190.73 58.9327 190.633 58.9727 190.54C59.0127 190.44 59.066 190.337 59.1327 190.23L61.2027 187.16C61.3227 186.947 61.4827 186.84 61.6827 186.84H63.4727L60.0727 191.68L63.6127 197ZM78.6794 186.84V197H77.5094C77.2427 197 77.0694 196.87 76.9894 196.61L76.8494 195.59C76.6294 195.823 76.3994 196.037 76.1594 196.23C75.9194 196.423 75.6627 196.59 75.3894 196.73C75.116 196.863 74.826 196.967 74.5194 197.04C74.2127 197.12 73.8827 197.16 73.5294 197.16C72.9694 197.16 72.476 197.067 72.0494 196.88C71.6294 196.693 71.276 196.433 70.9894 196.1C70.7027 195.76 70.486 195.353 70.3394 194.88C70.1927 194.407 70.1194 193.883 70.1194 193.31V186.84H72.0794V193.31C72.0794 194.037 72.246 194.603 72.5794 195.01C72.9127 195.41 73.4227 195.61 74.1094 195.61C74.6094 195.61 75.076 195.493 75.5094 195.26C75.9427 195.02 76.3494 194.693 76.7294 194.28V186.84H78.6794ZM83.2313 188.25C83.4513 188.017 83.6813 187.803 83.9213 187.61C84.1613 187.417 84.4146 187.253 84.6813 187.12C84.9546 186.98 85.2446 186.873 85.5513 186.8C85.8646 186.72 86.1979 186.68 86.5513 186.68C87.1113 186.68 87.6013 186.773 88.0213 186.96C88.4479 187.147 88.8046 187.41 89.0913 187.75C89.3779 188.083 89.5946 188.487 89.7413 188.96C89.8879 189.433 89.9613 189.957 89.9613 190.53V197H88.0013V190.53C88.0013 189.803 87.8346 189.24 87.5013 188.84C87.1679 188.433 86.6579 188.23 85.9713 188.23C85.4713 188.23 85.0013 188.35 84.5613 188.59C84.1279 188.823 83.7246 189.143 83.3513 189.55V197H81.4013V186.84H82.5713C82.8446 186.84 83.0146 186.97 83.0813 187.23L83.2313 188.25ZM94.6327 186.84V197H92.6827V186.84H94.6327ZM95.0027 183.7C95.0027 183.88 94.966 184.053 94.8927 184.22C94.8193 184.38 94.7193 184.523 94.5927 184.65C94.4727 184.77 94.3293 184.867 94.1627 184.94C93.996 185.007 93.8227 185.04 93.6427 185.04C93.4627 185.04 93.2927 185.007 93.1327 184.94C92.9727 184.867 92.8293 184.77 92.7027 184.65C92.5827 184.523 92.486 184.38 92.4127 184.22C92.346 184.053 92.3127 183.88 92.3127 183.7C92.3127 183.513 92.346 183.34 92.4127 183.18C92.486 183.013 92.5827 182.87 92.7027 182.75C92.8293 182.623 92.9727 182.527 93.1327 182.46C93.2927 182.387 93.4627 182.35 93.6427 182.35C93.8227 182.35 93.996 182.387 94.1627 182.46C94.3293 182.527 94.4727 182.623 94.5927 182.75C94.7193 182.87 94.8193 183.013 94.8927 183.18C94.966 183.34 95.0027 183.513 95.0027 183.7ZM100.636 197.16C99.8159 197.16 99.1826 196.93 98.7359 196.47C98.2959 196.01 98.0759 195.353 98.0759 194.5V188.42H96.8959C96.7826 188.42 96.6859 188.387 96.6059 188.32C96.5326 188.247 96.4959 188.14 96.4959 188V187.21L98.1459 186.98L98.5859 183.95C98.6126 183.837 98.6626 183.75 98.7359 183.69C98.8159 183.623 98.9159 183.59 99.0359 183.59H100.026V187H102.906V188.42H100.026V194.37C100.026 194.77 100.123 195.07 100.316 195.27C100.516 195.463 100.769 195.56 101.076 195.56C101.256 195.56 101.409 195.537 101.536 195.49C101.669 195.443 101.783 195.393 101.876 195.34C101.969 195.28 102.049 195.227 102.116 195.18C102.183 195.133 102.243 195.11 102.296 195.11C102.363 195.11 102.413 195.127 102.446 195.16C102.486 195.187 102.526 195.233 102.566 195.3L103.146 196.24C102.826 196.533 102.446 196.76 102.006 196.92C101.566 197.08 101.109 197.16 100.636 197.16ZM110.162 192.49C109.369 192.517 108.695 192.58 108.142 192.68C107.589 192.773 107.139 192.9 106.792 193.06C106.445 193.22 106.195 193.41 106.042 193.63C105.889 193.843 105.812 194.083 105.812 194.35C105.812 194.603 105.852 194.823 105.932 195.01C106.019 195.19 106.132 195.34 106.272 195.46C106.419 195.573 106.589 195.657 106.782 195.71C106.975 195.763 107.185 195.79 107.412 195.79C107.712 195.79 107.985 195.76 108.232 195.7C108.485 195.64 108.722 195.557 108.942 195.45C109.162 195.337 109.372 195.2 109.572 195.04C109.772 194.88 109.969 194.697 110.162 194.49V192.49ZM104.442 188.26C105.009 187.72 105.622 187.317 106.282 187.05C106.949 186.783 107.679 186.65 108.472 186.65C109.052 186.65 109.565 186.747 110.012 186.94C110.459 187.127 110.835 187.39 111.142 187.73C111.449 188.07 111.679 188.477 111.832 188.95C111.992 189.423 112.072 189.947 112.072 190.52V197H111.202C111.009 197 110.862 196.97 110.762 196.91C110.662 196.843 110.582 196.723 110.522 196.55L110.312 195.66C110.052 195.9 109.795 196.113 109.542 196.3C109.289 196.48 109.022 196.637 108.742 196.77C108.469 196.897 108.175 196.993 107.862 197.06C107.549 197.127 107.202 197.16 106.822 197.16C106.422 197.16 106.045 197.107 105.692 197C105.345 196.887 105.042 196.717 104.782 196.49C104.522 196.263 104.315 195.98 104.162 195.64C104.015 195.3 103.942 194.903 103.942 194.45C103.942 194.05 104.049 193.667 104.262 193.3C104.482 192.927 104.835 192.593 105.322 192.3C105.815 192.007 106.455 191.767 107.242 191.58C108.035 191.393 109.009 191.287 110.162 191.26V190.52C110.162 189.753 109.999 189.18 109.672 188.8C109.345 188.42 108.865 188.23 108.232 188.23C107.805 188.23 107.445 188.283 107.152 188.39C106.865 188.497 106.615 188.617 106.402 188.75C106.195 188.877 106.012 188.993 105.852 189.1C105.699 189.207 105.539 189.26 105.372 189.26C105.239 189.26 105.122 189.223 105.022 189.15C104.929 189.077 104.852 188.99 104.792 188.89L104.442 188.26ZM116.723 186.84V197H114.773V186.84H116.723ZM117.093 183.7C117.093 183.88 117.056 184.053 116.983 184.22C116.909 184.38 116.809 184.523 116.683 184.65C116.563 184.77 116.419 184.867 116.252 184.94C116.086 185.007 115.913 185.04 115.733 185.04C115.553 185.04 115.383 185.007 115.223 184.94C115.063 184.867 114.919 184.77 114.793 184.65C114.673 184.523 114.576 184.38 114.503 184.22C114.436 184.053 114.403 183.88 114.403 183.7C114.403 183.513 114.436 183.34 114.503 183.18C114.576 183.013 114.673 182.87 114.793 182.75C114.919 182.623 115.063 182.527 115.223 182.46C115.383 182.387 115.553 182.35 115.733 182.35C115.913 182.35 116.086 182.387 116.252 182.46C116.419 182.527 116.563 182.623 116.683 182.75C116.809 182.87 116.909 183.013 116.983 183.18C117.056 183.34 117.093 183.513 117.093 183.7ZM121.386 188.79C121.712 188.123 122.106 187.6 122.566 187.22C123.026 186.84 123.579 186.65 124.226 186.65C124.446 186.65 124.652 186.677 124.846 186.73C125.046 186.777 125.219 186.85 125.366 186.95L125.236 188.42C125.189 188.6 125.079 188.69 124.906 188.69C124.812 188.69 124.672 188.673 124.486 188.64C124.299 188.6 124.099 188.58 123.886 188.58C123.572 188.58 123.296 188.627 123.056 188.72C122.816 188.807 122.599 188.94 122.406 189.12C122.219 189.293 122.052 189.51 121.906 189.77C121.759 190.023 121.622 190.313 121.496 190.64V197H119.546V186.84H120.666C120.879 186.84 121.022 186.88 121.096 186.96C121.176 187.033 121.232 187.167 121.266 187.36L121.386 188.79ZM133.229 190.79C133.229 190.403 133.172 190.047 133.059 189.72C132.952 189.393 132.792 189.11 132.579 188.87C132.366 188.63 132.106 188.443 131.799 188.31C131.492 188.177 131.139 188.11 130.739 188.11C129.919 188.11 129.272 188.347 128.799 188.82C128.332 189.293 128.036 189.95 127.909 190.79H133.229ZM134.839 195.55C134.599 195.83 134.322 196.073 134.009 196.28C133.696 196.48 133.362 196.643 133.009 196.77C132.656 196.897 132.289 196.99 131.909 197.05C131.536 197.11 131.166 197.14 130.799 197.14C130.099 197.14 129.449 197.023 128.849 196.79C128.256 196.55 127.739 196.203 127.299 195.75C126.866 195.29 126.526 194.723 126.279 194.05C126.039 193.37 125.919 192.59 125.919 191.71C125.919 191.003 126.029 190.347 126.249 189.74C126.469 189.127 126.782 188.593 127.189 188.14C127.602 187.687 128.106 187.33 128.699 187.07C129.292 186.81 129.959 186.68 130.699 186.68C131.319 186.68 131.889 186.783 132.409 186.99C132.936 187.19 133.389 187.483 133.769 187.87C134.149 188.257 134.446 188.733 134.659 189.3C134.879 189.867 134.989 190.513 134.989 191.24C134.989 191.54 134.956 191.743 134.889 191.85C134.822 191.95 134.699 192 134.519 192H127.859C127.879 192.607 127.966 193.137 128.119 193.59C128.272 194.037 128.482 194.41 128.749 194.71C129.022 195.01 129.346 195.233 129.719 195.38C130.092 195.527 130.509 195.6 130.969 195.6C131.402 195.6 131.776 195.55 132.089 195.45C132.409 195.35 132.682 195.243 132.909 195.13C133.142 195.01 133.336 194.9 133.489 194.8C133.649 194.7 133.789 194.65 133.909 194.65C134.069 194.65 134.192 194.71 134.279 194.83L134.839 195.55Z" fill="black"/>
<path d="M415.219 189.82C415.219 191.073 415.083 192.16 414.809 193.08C414.543 194 414.173 194.763 413.699 195.37C413.233 195.97 412.679 196.417 412.039 196.71C411.406 197.003 410.723 197.15 409.989 197.15C409.256 197.15 408.569 197.003 407.929 196.71C407.296 196.417 406.746 195.97 406.279 195.37C405.813 194.763 405.446 194 405.179 193.08C404.913 192.16 404.779 191.073 404.779 189.82C404.779 188.567 404.913 187.48 405.179 186.56C405.446 185.633 405.813 184.87 406.279 184.27C406.746 183.663 407.296 183.213 407.929 182.92C408.569 182.627 409.256 182.48 409.989 182.48C410.723 182.48 411.406 182.627 412.039 182.92C412.679 183.213 413.233 183.663 413.699 184.27C414.173 184.87 414.543 185.633 414.809 186.56C415.083 187.48 415.219 188.567 415.219 189.82ZM413.199 189.82C413.199 188.74 413.109 187.837 412.929 187.11C412.756 186.383 412.519 185.8 412.219 185.36C411.926 184.913 411.586 184.597 411.199 184.41C410.813 184.223 410.409 184.13 409.989 184.13C409.569 184.13 409.166 184.223 408.779 184.41C408.393 184.597 408.049 184.913 407.749 185.36C407.456 185.8 407.223 186.383 407.049 187.11C406.876 187.837 406.789 188.74 406.789 189.82C406.789 190.9 406.876 191.803 407.049 192.53C407.223 193.257 407.456 193.84 407.749 194.28C408.049 194.72 408.393 195.033 408.779 195.22C409.166 195.407 409.569 195.5 409.989 195.5C410.409 195.5 410.813 195.407 411.199 195.22C411.586 195.033 411.926 194.72 412.219 194.28C412.519 193.84 412.756 193.257 412.929 192.53C413.109 191.803 413.199 190.9 413.199 189.82Z" fill="black"/>
<rect width="404" height="32" transform="translate(18 224)" fill="white"/>
<path d="M31.6239 248V237.84H32.7939C33.0672 237.84 33.2372 237.97 33.3039 238.23L33.4439 239.2C33.8172 238.753 34.2306 238.39 34.6839 238.11C35.1439 237.823 35.6806 237.68 36.2939 237.68C36.9672 237.68 37.5139 237.867 37.9339 238.24C38.3539 238.607 38.6606 239.107 38.8539 239.74C39.0006 239.38 39.1906 239.07 39.4239 238.81C39.6572 238.55 39.9172 238.337 40.2039 238.17C40.4906 238.003 40.7939 237.88 41.1139 237.8C41.4406 237.72 41.7706 237.68 42.1039 237.68C42.6439 237.68 43.1239 237.767 43.5439 237.94C43.9706 238.107 44.3306 238.353 44.6239 238.68C44.9172 239.007 45.1406 239.41 45.2939 239.89C45.4472 240.37 45.5239 240.917 45.5239 241.53V248H43.5639V241.53C43.5639 240.77 43.3972 240.197 43.0639 239.81C42.7372 239.423 42.2572 239.23 41.6239 239.23C41.3439 239.23 41.0772 239.28 40.8239 239.38C40.5706 239.473 40.3472 239.617 40.1539 239.81C39.9672 240.003 39.8172 240.243 39.7039 240.53C39.5972 240.817 39.5439 241.15 39.5439 241.53V248H37.5839V241.53C37.5839 240.743 37.4272 240.163 37.1139 239.79C36.8006 239.417 36.3406 239.23 35.7339 239.23C35.3139 239.23 34.9239 239.34 34.5639 239.56C34.2039 239.78 33.8739 240.08 33.5739 240.46V248H31.6239ZM52.4773 237.68C53.224 237.68 53.8973 237.803 54.4973 238.05C55.104 238.29 55.6173 238.64 56.0373 239.1C56.464 239.553 56.7907 240.103 57.0173 240.75C57.244 241.39 57.3573 242.11 57.3573 242.91C57.3573 243.71 57.244 244.433 57.0173 245.08C56.7907 245.727 56.464 246.277 56.0373 246.73C55.6173 247.183 55.104 247.533 54.4973 247.78C53.8973 248.02 53.224 248.14 52.4773 248.14C51.724 248.14 51.044 248.02 50.4373 247.78C49.8373 247.533 49.324 247.183 48.8973 246.73C48.4707 246.277 48.1407 245.727 47.9073 245.08C47.6807 244.433 47.5673 243.71 47.5673 242.91C47.5673 242.11 47.6807 241.39 47.9073 240.75C48.1407 240.103 48.4707 239.553 48.8973 239.1C49.324 238.64 49.8373 238.29 50.4373 238.05C51.044 237.803 51.724 237.68 52.4773 237.68ZM52.4773 246.62C53.4373 246.62 54.154 246.297 54.6273 245.65C55.1007 245.003 55.3373 244.093 55.3373 242.92C55.3373 241.747 55.1007 240.837 54.6273 240.19C54.154 239.537 53.4373 239.21 52.4773 239.21C51.504 239.21 50.7773 239.537 50.2973 240.19C49.824 240.837 49.5873 241.747 49.5873 242.92C49.5873 244.093 49.824 245.003 50.2973 245.65C50.7773 246.297 51.504 246.62 52.4773 246.62ZM61.3641 239.25C61.5841 239.017 61.8141 238.803 62.0541 238.61C62.2941 238.417 62.5474 238.253 62.8141 238.12C63.0874 237.98 63.3774 237.873 63.6841 237.8C63.9974 237.72 64.3307 237.68 64.6841 237.68C65.2441 237.68 65.7341 237.773 66.1541 237.96C66.5807 238.147 66.9374 238.41 67.2241 238.75C67.5107 239.083 67.7274 239.487 67.8741 239.96C68.0207 240.433 68.0941 240.957 68.0941 241.53V248H66.1341V241.53C66.1341 240.803 65.9674 240.24 65.6341 239.84C65.3007 239.433 64.7907 239.23 64.1041 239.23C63.6041 239.23 63.1341 239.35 62.6941 239.59C62.2607 239.823 61.8574 240.143 61.4841 240.55V248H59.5341V237.84H60.7041C60.9774 237.84 61.1474 237.97 61.2141 238.23L61.3641 239.25ZM73.7688 248.16C72.9488 248.16 72.3154 247.93 71.8688 247.47C71.4288 247.01 71.2088 246.353 71.2088 245.5V239.42H70.0288C69.9154 239.42 69.8188 239.387 69.7388 239.32C69.6654 239.247 69.6288 239.14 69.6288 239V238.21L71.2788 237.98L71.7188 234.95C71.7454 234.837 71.7954 234.75 71.8688 234.69C71.9488 234.623 72.0488 234.59 72.1688 234.59H73.1588V238H76.0388V239.42H73.1588V245.37C73.1588 245.77 73.2554 246.07 73.4488 246.27C73.6488 246.463 73.9021 246.56 74.2088 246.56C74.3888 246.56 74.5421 246.537 74.6688 246.49C74.8021 246.443 74.9154 246.393 75.0088 246.34C75.1021 246.28 75.1821 246.227 75.2488 246.18C75.3154 246.133 75.3754 246.11 75.4288 246.11C75.4954 246.11 75.5454 246.127 75.5788 246.16C75.6188 246.187 75.6588 246.233 75.6988 246.3L76.2788 247.24C75.9588 247.533 75.5788 247.76 75.1388 247.92C74.6988 248.08 74.2421 248.16 73.7688 248.16ZM83.2948 243.49C82.5015 243.517 81.8282 243.58 81.2748 243.68C80.7215 243.773 80.2715 243.9 79.9248 244.06C79.5782 244.22 79.3282 244.41 79.1748 244.63C79.0215 244.843 78.9448 245.083 78.9448 245.35C78.9448 245.603 78.9848 245.823 79.0648 246.01C79.1515 246.19 79.2648 246.34 79.4048 246.46C79.5515 246.573 79.7215 246.657 79.9148 246.71C80.1082 246.763 80.3182 246.79 80.5448 246.79C80.8448 246.79 81.1182 246.76 81.3648 246.7C81.6182 246.64 81.8548 246.557 82.0748 246.45C82.2948 246.337 82.5048 246.2 82.7048 246.04C82.9048 245.88 83.1015 245.697 83.2948 245.49V243.49ZM77.5748 239.26C78.1415 238.72 78.7548 238.317 79.4148 238.05C80.0815 237.783 80.8115 237.65 81.6048 237.65C82.1848 237.65 82.6982 237.747 83.1448 237.94C83.5915 238.127 83.9682 238.39 84.2748 238.73C84.5815 239.07 84.8115 239.477 84.9648 239.95C85.1248 240.423 85.2048 240.947 85.2048 241.52V248H84.3348C84.1415 248 83.9948 247.97 83.8948 247.91C83.7948 247.843 83.7148 247.723 83.6548 247.55L83.4448 246.66C83.1848 246.9 82.9282 247.113 82.6748 247.3C82.4215 247.48 82.1548 247.637 81.8748 247.77C81.6015 247.897 81.3082 247.993 80.9948 248.06C80.6815 248.127 80.3348 248.16 79.9548 248.16C79.5548 248.16 79.1782 248.107 78.8248 248C78.4782 247.887 78.1748 247.717 77.9148 247.49C77.6548 247.263 77.4482 246.98 77.2948 246.64C77.1482 246.3 77.0748 245.903 77.0748 245.45C77.0748 245.05 77.1815 244.667 77.3948 244.3C77.6148 243.927 77.9682 243.593 78.4548 243.3C78.9482 243.007 79.5882 242.767 80.3748 242.58C81.1682 242.393 82.1415 242.287 83.2948 242.26V241.52C83.2948 240.753 83.1315 240.18 82.8048 239.8C82.4782 239.42 81.9982 239.23 81.3648 239.23C80.9382 239.23 80.5782 239.283 80.2848 239.39C79.9982 239.497 79.7482 239.617 79.5348 239.75C79.3282 239.877 79.1448 239.993 78.9848 240.1C78.8315 240.207 78.6715 240.26 78.5048 240.26C78.3715 240.26 78.2548 240.223 78.1548 240.15C78.0615 240.077 77.9848 239.99 77.9248 239.89L77.5748 239.26ZM89.6453 239.25C89.8653 239.017 90.0953 238.803 90.3353 238.61C90.5753 238.417 90.8286 238.253 91.0953 238.12C91.3686 237.98 91.6586 237.873 91.9653 237.8C92.2786 237.72 92.612 237.68 92.9653 237.68C93.5253 237.68 94.0153 237.773 94.4353 237.96C94.862 238.147 95.2186 238.41 95.5053 238.75C95.792 239.083 96.0086 239.487 96.1553 239.96C96.302 240.433 96.3753 240.957 96.3753 241.53V248H94.4153V241.53C94.4153 240.803 94.2486 240.24 93.9153 239.84C93.582 239.433 93.072 239.23 92.3853 239.23C91.8853 239.23 91.4153 239.35 90.9753 239.59C90.542 239.823 90.1386 240.143 89.7653 240.55V248H87.8153V237.84H88.9853C89.2586 237.84 89.4286 237.97 89.4953 238.23L89.6453 239.25ZM102.05 248.16C101.23 248.16 100.597 247.93 100.15 247.47C99.71 247.01 99.49 246.353 99.49 245.5V239.42H98.31C98.1967 239.42 98.1 239.387 98.02 239.32C97.9467 239.247 97.91 239.14 97.91 239V238.21L99.56 237.98L100 234.95C100.027 234.837 100.077 234.75 100.15 234.69C100.23 234.623 100.33 234.59 100.45 234.59H101.44V238H104.32V239.42H101.44V245.37C101.44 245.77 101.537 246.07 101.73 246.27C101.93 246.463 102.183 246.56 102.49 246.56C102.67 246.56 102.823 246.537 102.95 246.49C103.083 246.443 103.197 246.393 103.29 246.34C103.383 246.28 103.463 246.227 103.53 246.18C103.597 246.133 103.657 246.11 103.71 246.11C103.777 246.11 103.827 246.127 103.86 246.16C103.9 246.187 103.94 246.233 103.98 246.3L104.56 247.24C104.24 247.533 103.86 247.76 103.42 247.92C102.98 248.08 102.523 248.16 102.05 248.16Z" fill="black"/>
<path d="M415.219 240.82C415.219 242.073 415.083 243.16 414.809 244.08C414.543 245 414.173 245.763 413.699 246.37C413.233 246.97 412.679 247.417 412.039 247.71C411.406 248.003 410.723 248.15 409.989 248.15C409.256 248.15 408.569 248.003 407.929 247.71C407.296 247.417 406.746 246.97 406.279 246.37C405.813 245.763 405.446 245 405.179 244.08C404.913 243.16 404.779 242.073 404.779 240.82C404.779 239.567 404.913 238.48 405.179 237.56C405.446 236.633 405.813 235.87 406.279 235.27C406.746 234.663 407.296 234.213 407.929 233.92C408.569 233.627 409.256 233.48 409.989 233.48C410.723 233.48 411.406 233.627 412.039 233.92C412.679 234.213 413.233 234.663 413.699 235.27C414.173 235.87 414.543 236.633 414.809 237.56C415.083 238.48 415.219 239.567 415.219 240.82ZM413.199 240.82C413.199 239.74 413.109 238.837 412.929 238.11C412.756 237.383 412.519 236.8 412.219 236.36C411.926 235.913 411.586 235.597 411.199 235.41C410.813 235.223 410.409 235.13 409.989 235.13C409.569 235.13 409.166 235.223 408.779 235.41C408.393 235.597 408.049 235.913 407.749 236.36C407.456 236.8 407.223 237.383 407.049 238.11C406.876 238.837 406.789 239.74 406.789 240.82C406.789 241.9 406.876 242.803 407.049 243.53C407.223 244.257 407.456 244.84 407.749 245.28C408.049 245.72 408.393 246.033 408.779 246.22C409.166 246.407 409.569 246.5 409.989 246.5C410.409 246.5 410.813 246.407 411.199 246.22C411.586 246.033 411.926 245.72 412.219 245.28C412.519 244.84 412.756 244.257 412.929 243.53C413.109 242.803 413.199 241.9 413.199 240.82Z" fill="black"/>
<rect width="404" height="32" transform="translate(18 275)" fill="white"/>
<path d="M33.6084 290.79C33.9351 290.123 34.3284 289.6 34.7884 289.22C35.2484 288.84 35.8018 288.65 36.4484 288.65C36.6684 288.65 36.8751 288.677 37.0684 288.73C37.2684 288.777 37.4418 288.85 37.5884 288.95L37.4584 290.42C37.4118 290.6 37.3018 290.69 37.1284 290.69C37.0351 290.69 36.8951 290.673 36.7084 290.64C36.5218 290.6 36.3218 290.58 36.1084 290.58C35.7951 290.58 35.5184 290.627 35.2784 290.72C35.0384 290.807 34.8218 290.94 34.6284 291.12C34.4418 291.293 34.2751 291.51 34.1284 291.77C33.9818 292.023 33.8451 292.313 33.7184 292.64V299H31.7684V288.84H32.8884C33.1018 288.84 33.2451 288.88 33.3184 288.96C33.3984 289.033 33.4551 289.167 33.4884 289.36L33.6084 290.79ZM45.4516 292.79C45.4516 292.403 45.3949 292.047 45.2816 291.72C45.1749 291.393 45.0149 291.11 44.8016 290.87C44.5882 290.63 44.3282 290.443 44.0216 290.31C43.7149 290.177 43.3616 290.11 42.9616 290.11C42.1416 290.11 41.4949 290.347 41.0216 290.82C40.5549 291.293 40.2582 291.95 40.1316 292.79H45.4516ZM47.0616 297.55C46.8216 297.83 46.5449 298.073 46.2316 298.28C45.9182 298.48 45.5849 298.643 45.2316 298.77C44.8782 298.897 44.5116 298.99 44.1316 299.05C43.7582 299.11 43.3882 299.14 43.0216 299.14C42.3216 299.14 41.6716 299.023 41.0716 298.79C40.4782 298.55 39.9616 298.203 39.5216 297.75C39.0882 297.29 38.7482 296.723 38.5016 296.05C38.2616 295.37 38.1416 294.59 38.1416 293.71C38.1416 293.003 38.2516 292.347 38.4716 291.74C38.6916 291.127 39.0049 290.593 39.4116 290.14C39.8249 289.687 40.3282 289.33 40.9216 289.07C41.5149 288.81 42.1816 288.68 42.9216 288.68C43.5416 288.68 44.1116 288.783 44.6316 288.99C45.1582 289.19 45.6116 289.483 45.9916 289.87C46.3716 290.257 46.6682 290.733 46.8816 291.3C47.1016 291.867 47.2116 292.513 47.2116 293.24C47.2116 293.54 47.1782 293.743 47.1116 293.85C47.0449 293.95 46.9216 294 46.7416 294H40.0816C40.1016 294.607 40.1882 295.137 40.3416 295.59C40.4949 296.037 40.7049 296.41 40.9716 296.71C41.2449 297.01 41.5682 297.233 41.9416 297.38C42.3149 297.527 42.7316 297.6 43.1916 297.6C43.6249 297.6 43.9982 297.55 44.3116 297.45C44.6316 297.35 44.9049 297.243 45.1316 297.13C45.3649 297.01 45.5582 296.9 45.7116 296.8C45.8716 296.7 46.0116 296.65 46.1316 296.65C46.2916 296.65 46.4149 296.71 46.5016 296.83L47.0616 297.55ZM49.3075 299V288.84H50.4775C50.7508 288.84 50.9208 288.97 50.9875 289.23L51.1275 290.2C51.5008 289.753 51.9142 289.39 52.3675 289.11C52.8275 288.823 53.3642 288.68 53.9775 288.68C54.6508 288.68 55.1975 288.867 55.6175 289.24C56.0375 289.607 56.3442 290.107 56.5375 290.74C56.6842 290.38 56.8742 290.07 57.1075 289.81C57.3408 289.55 57.6008 289.337 57.8875 289.17C58.1742 289.003 58.4775 288.88 58.7975 288.8C59.1242 288.72 59.4542 288.68 59.7875 288.68C60.3275 288.68 60.8075 288.767 61.2275 288.94C61.6542 289.107 62.0142 289.353 62.3075 289.68C62.6008 290.007 62.8242 290.41 62.9775 290.89C63.1308 291.37 63.2075 291.917 63.2075 292.53V299H61.2475V292.53C61.2475 291.77 61.0808 291.197 60.7475 290.81C60.4208 290.423 59.9408 290.23 59.3075 290.23C59.0275 290.23 58.7608 290.28 58.5075 290.38C58.2542 290.473 58.0308 290.617 57.8375 290.81C57.6508 291.003 57.5008 291.243 57.3875 291.53C57.2808 291.817 57.2275 292.15 57.2275 292.53V299H55.2675V292.53C55.2675 291.743 55.1108 291.163 54.7975 290.79C54.4842 290.417 54.0242 290.23 53.4175 290.23C52.9975 290.23 52.6075 290.34 52.2475 290.56C51.8875 290.78 51.5575 291.08 51.2575 291.46V299H49.3075ZM67.8709 288.84V299H65.9209V288.84H67.8709ZM68.2409 285.7C68.2409 285.88 68.2043 286.053 68.1309 286.22C68.0576 286.38 67.9576 286.523 67.8309 286.65C67.7109 286.77 67.5676 286.867 67.4009 286.94C67.2343 287.007 67.0609 287.04 66.8809 287.04C66.7009 287.04 66.5309 287.007 66.3709 286.94C66.2109 286.867 66.0676 286.77 65.9409 286.65C65.8209 286.523 65.7243 286.38 65.6509 286.22C65.5843 286.053 65.5509 285.88 65.5509 285.7C65.5509 285.513 65.5843 285.34 65.6509 285.18C65.7243 285.013 65.8209 284.87 65.9409 284.75C66.0676 284.623 66.2109 284.527 66.3709 284.46C66.5309 284.387 66.7009 284.35 66.8809 284.35C67.0609 284.35 67.2343 284.387 67.4009 284.46C67.5676 284.527 67.7109 284.623 67.8309 284.75C67.9576 284.87 68.0576 285.013 68.1309 285.18C68.2043 285.34 68.2409 285.513 68.2409 285.7ZM76.6842 290.59C76.6309 290.677 76.5742 290.74 76.5142 290.78C76.4542 290.813 76.3776 290.83 76.2842 290.83C76.1776 290.83 76.0576 290.793 75.9242 290.72C75.7976 290.647 75.6409 290.567 75.4542 290.48C75.2742 290.393 75.0609 290.313 74.8142 290.24C74.5676 290.167 74.2742 290.13 73.9342 290.13C73.6542 290.13 73.3976 290.167 73.1642 290.24C72.9376 290.307 72.7442 290.403 72.5842 290.53C72.4242 290.65 72.3009 290.797 72.2142 290.97C72.1276 291.137 72.0842 291.317 72.0842 291.51C72.0842 291.763 72.1576 291.973 72.3042 292.14C72.4576 292.307 72.6542 292.45 72.8942 292.57C73.1409 292.69 73.4176 292.8 73.7242 292.9C74.0376 292.993 74.3542 293.093 74.6742 293.2C75.0009 293.307 75.3176 293.43 75.6242 293.57C75.9376 293.703 76.2142 293.873 76.4542 294.08C76.7009 294.28 76.8976 294.523 77.0442 294.81C77.1976 295.097 77.2742 295.447 77.2742 295.86C77.2742 296.333 77.1876 296.773 77.0142 297.18C76.8476 297.58 76.5976 297.927 76.2642 298.22C75.9376 298.513 75.5309 298.743 75.0442 298.91C74.5576 299.077 74.0009 299.16 73.3742 299.16C72.6742 299.16 72.0276 299.043 71.4342 298.81C70.8409 298.577 70.3442 298.28 69.9442 297.92L70.4042 297.17C70.4576 297.077 70.5242 297.007 70.6042 296.96C70.6842 296.907 70.7909 296.88 70.9242 296.88C71.0509 296.88 71.1809 296.927 71.3142 297.02C71.4476 297.113 71.6076 297.217 71.7942 297.33C71.9809 297.437 72.2076 297.537 72.4742 297.63C72.7409 297.717 73.0742 297.76 73.4742 297.76C73.8076 297.76 74.0976 297.72 74.3442 297.64C74.5909 297.553 74.7942 297.44 74.9542 297.3C75.1209 297.153 75.2442 296.987 75.3242 296.8C75.4042 296.613 75.4442 296.417 75.4442 296.21C75.4442 295.943 75.3676 295.723 75.2142 295.55C75.0676 295.37 74.8709 295.217 74.6242 295.09C74.3842 294.963 74.1076 294.853 73.7942 294.76C73.4809 294.667 73.1609 294.567 72.8342 294.46C72.5076 294.353 72.1876 294.23 71.8742 294.09C71.5609 293.95 71.2809 293.773 71.0342 293.56C70.7942 293.347 70.5976 293.087 70.4442 292.78C70.2976 292.473 70.2242 292.1 70.2242 291.66C70.2242 291.267 70.3042 290.89 70.4642 290.53C70.6309 290.17 70.8676 289.853 71.1742 289.58C71.4876 289.307 71.8709 289.09 72.3242 288.93C72.7842 288.763 73.3076 288.68 73.8942 288.68C74.5676 288.68 75.1742 288.787 75.7142 289C76.2609 289.213 76.7276 289.507 77.1142 289.88L76.6842 290.59ZM86.1156 292.79C86.1156 292.403 86.059 292.047 85.9456 291.72C85.839 291.393 85.679 291.11 85.4656 290.87C85.2523 290.63 84.9923 290.443 84.6856 290.31C84.379 290.177 84.0256 290.11 83.6256 290.11C82.8056 290.11 82.159 290.347 81.6856 290.82C81.219 291.293 80.9223 291.95 80.7956 292.79H86.1156ZM87.7256 297.55C87.4856 297.83 87.209 298.073 86.8956 298.28C86.5823 298.48 86.249 298.643 85.8956 298.77C85.5423 298.897 85.1756 298.99 84.7956 299.05C84.4223 299.11 84.0523 299.14 83.6856 299.14C82.9856 299.14 82.3356 299.023 81.7356 298.79C81.1423 298.55 80.6256 298.203 80.1856 297.75C79.7523 297.29 79.4123 296.723 79.1656 296.05C78.9256 295.37 78.8056 294.59 78.8056 293.71C78.8056 293.003 78.9156 292.347 79.1356 291.74C79.3556 291.127 79.669 290.593 80.0756 290.14C80.489 289.687 80.9923 289.33 81.5856 289.07C82.179 288.81 82.8456 288.68 83.5856 288.68C84.2056 288.68 84.7756 288.783 85.2956 288.99C85.8223 289.19 86.2756 289.483 86.6556 289.87C87.0356 290.257 87.3323 290.733 87.5456 291.3C87.7656 291.867 87.8756 292.513 87.8756 293.24C87.8756 293.54 87.8423 293.743 87.7756 293.85C87.709 293.95 87.5856 294 87.4056 294H80.7456C80.7656 294.607 80.8523 295.137 81.0056 295.59C81.159 296.037 81.369 296.41 81.6356 296.71C81.909 297.01 82.2323 297.233 82.6056 297.38C82.979 297.527 83.3956 297.6 83.8556 297.6C84.289 297.6 84.6623 297.55 84.9756 297.45C85.2956 297.35 85.569 297.243 85.7956 297.13C86.029 297.01 86.2223 296.9 86.3756 296.8C86.5356 296.7 86.6756 296.65 86.7956 296.65C86.9556 296.65 87.079 296.71 87.1656 296.83L87.7256 297.55Z" fill="black"/>
<path d="M415.219 291.82C415.219 293.073 415.083 294.16 414.809 295.08C414.543 296 414.173 296.763 413.699 297.37C413.233 297.97 412.679 298.417 412.039 298.71C411.406 299.003 410.723 299.15 409.989 299.15C409.256 299.15 408.569 299.003 407.929 298.71C407.296 298.417 406.746 297.97 406.279 297.37C405.813 296.763 405.446 296 405.179 295.08C404.913 294.16 404.779 293.073 404.779 291.82C404.779 290.567 404.913 289.48 405.179 288.56C405.446 287.633 405.813 286.87 406.279 286.27C406.746 285.663 407.296 285.213 407.929 284.92C408.569 284.627 409.256 284.48 409.989 284.48C410.723 284.48 411.406 284.627 412.039 284.92C412.679 285.213 413.233 285.663 413.699 286.27C414.173 286.87 414.543 287.633 414.809 288.56C415.083 289.48 415.219 290.567 415.219 291.82ZM413.199 291.82C413.199 290.74 413.109 289.837 412.929 289.11C412.756 288.383 412.519 287.8 412.219 287.36C411.926 286.913 411.586 286.597 411.199 286.41C410.813 286.223 410.409 286.13 409.989 286.13C409.569 286.13 409.166 286.223 408.779 286.41C408.393 286.597 408.049 286.913 407.749 287.36C407.456 287.8 407.223 288.383 407.049 289.11C406.876 289.837 406.789 290.74 406.789 291.82C406.789 292.9 406.876 293.803 407.049 294.53C407.223 295.257 407.456 295.84 407.749 296.28C408.049 296.72 408.393 297.033 408.779 297.22C409.166 297.407 409.569 297.5 409.989 297.5C410.409 297.5 410.813 297.407 411.199 297.22C411.586 297.033 411.926 296.72 412.219 296.28C412.519 295.84 412.756 295.257 412.929 294.53C413.109 293.803 413.199 292.9 413.199 291.82Z" fill="black"/>
<rect x="83" y="333" width="259" height="39.2941" rx="3" fill="#DC3545"/>
<path d="M169 344C166.348 344 163.804 344.911 161.929 346.533C160.054 348.154 159 350.354 159 352.647C159 354.94 160.054 357.14 161.929 358.761C163.804 360.383 166.348 361.294 169 361.294C171.652 361.294 174.196 360.383 176.071 358.761C177.946 357.14 179 354.94 179 352.647C179 350.354 177.946 348.154 176.071 346.533C174.196 344.911 171.652 344 169 344V344ZM174.701 355.798L172.643 357.578L169 354.427L165.356 357.577L163.298 355.797L166.943 352.647L163.299 349.496L165.357 347.717L169 350.867L172.644 347.716L174.702 349.496L171.057 352.647L174.701 355.798Z" fill="white"/>
<path d="M199.92 351.967C199.877 352.042 199.829 352.095 199.776 352.127C199.723 352.159 199.656 352.175 199.576 352.175C199.485 352.175 199.387 352.148 199.28 352.095C199.173 352.036 199.048 351.972 198.904 351.903C198.76 351.834 198.589 351.772 198.392 351.719C198.2 351.66 197.973 351.631 197.712 351.631C197.499 351.631 197.304 351.658 197.128 351.711C196.957 351.759 196.811 351.831 196.688 351.927C196.571 352.018 196.48 352.127 196.416 352.255C196.352 352.378 196.32 352.511 196.32 352.655C196.32 352.847 196.379 353.007 196.496 353.135C196.613 353.263 196.768 353.375 196.96 353.471C197.152 353.562 197.371 353.644 197.616 353.719C197.861 353.794 198.112 353.874 198.368 353.959C198.624 354.044 198.875 354.143 199.12 354.255C199.365 354.367 199.584 354.506 199.776 354.671C199.968 354.831 200.123 355.028 200.24 355.263C200.357 355.492 200.416 355.772 200.416 356.103C200.416 356.487 200.347 356.842 200.208 357.167C200.069 357.492 199.867 357.775 199.6 358.015C199.333 358.255 199 358.442 198.6 358.575C198.205 358.708 197.752 358.775 197.24 358.775C196.957 358.775 196.683 358.748 196.416 358.695C196.155 358.647 195.904 358.58 195.664 358.495C195.429 358.404 195.208 358.298 195 358.175C194.797 358.052 194.616 357.919 194.456 357.775L194.856 357.119C194.904 357.039 194.963 356.978 195.032 356.935C195.107 356.887 195.197 356.863 195.304 356.863C195.416 356.863 195.525 356.9 195.632 356.975C195.744 357.044 195.872 357.122 196.016 357.207C196.165 357.292 196.344 357.372 196.552 357.447C196.76 357.516 197.019 357.551 197.328 357.551C197.584 357.551 197.805 357.522 197.992 357.463C198.179 357.399 198.333 357.314 198.456 357.207C198.579 357.1 198.669 356.98 198.728 356.847C198.787 356.708 198.816 356.562 198.816 356.407C198.816 356.199 198.757 356.028 198.64 355.895C198.523 355.762 198.365 355.647 198.168 355.551C197.976 355.455 197.755 355.37 197.504 355.295C197.259 355.22 197.008 355.14 196.752 355.055C196.496 354.97 196.243 354.871 195.992 354.759C195.747 354.647 195.525 354.506 195.328 354.335C195.136 354.159 194.981 353.948 194.864 353.703C194.747 353.452 194.688 353.148 194.688 352.791C194.688 352.466 194.752 352.156 194.88 351.863C195.013 351.57 195.205 351.311 195.456 351.087C195.712 350.863 196.024 350.687 196.392 350.559C196.765 350.426 197.195 350.359 197.68 350.359C198.229 350.359 198.728 350.447 199.176 350.623C199.624 350.799 200 351.039 200.304 351.343L199.92 351.967ZM208.912 350.487V358.647H207.872C207.643 358.647 207.496 358.538 207.432 358.319L207.304 357.559C207.134 357.74 206.952 357.906 206.76 358.055C206.574 358.204 206.374 358.332 206.16 358.439C205.947 358.546 205.718 358.628 205.472 358.687C205.232 358.746 204.974 358.775 204.696 358.775C204.248 358.775 203.854 358.7 203.512 358.551C203.171 358.402 202.883 358.191 202.648 357.919C202.419 357.647 202.246 357.322 202.128 356.943C202.011 356.559 201.952 356.138 201.952 355.679V350.487H203.672V355.679C203.672 356.228 203.798 356.655 204.048 356.959C204.304 357.263 204.691 357.415 205.208 357.415C205.587 357.415 205.939 357.33 206.264 357.159C206.595 356.983 206.904 356.743 207.192 356.439V350.487H208.912ZM212.721 356.599C212.961 356.908 213.222 357.127 213.505 357.255C213.793 357.378 214.11 357.439 214.457 357.439C215.129 357.439 215.652 357.194 216.025 356.703C216.404 356.212 216.593 355.482 216.593 354.511C216.593 354.01 216.55 353.583 216.465 353.231C216.38 352.874 216.257 352.583 216.097 352.359C215.937 352.135 215.742 351.972 215.513 351.871C215.284 351.77 215.025 351.719 214.737 351.719C214.3 351.719 213.921 351.815 213.601 352.007C213.286 352.194 212.993 352.463 212.721 352.815V356.599ZM212.633 351.671C212.974 351.271 213.361 350.948 213.793 350.703C214.23 350.458 214.737 350.335 215.313 350.335C215.772 350.335 216.188 350.428 216.561 350.615C216.934 350.796 217.254 351.063 217.521 351.415C217.788 351.767 217.993 352.204 218.137 352.727C218.286 353.244 218.361 353.839 218.361 354.511C218.361 355.114 218.278 355.676 218.113 356.199C217.953 356.716 217.721 357.167 217.417 357.551C217.113 357.93 216.745 358.228 216.313 358.447C215.881 358.66 215.393 358.767 214.849 358.767C214.369 358.767 213.961 358.69 213.625 358.535C213.294 358.38 212.993 358.167 212.721 357.895V361.359H211.001V350.487H212.041C212.276 350.487 212.425 350.596 212.489 350.815L212.633 351.671ZM221.752 356.599C221.992 356.908 222.254 357.127 222.536 357.255C222.824 357.378 223.142 357.439 223.488 357.439C224.16 357.439 224.683 357.194 225.056 356.703C225.435 356.212 225.624 355.482 225.624 354.511C225.624 354.01 225.582 353.583 225.496 353.231C225.411 352.874 225.288 352.583 225.128 352.359C224.968 352.135 224.774 351.972 224.544 351.871C224.315 351.77 224.056 351.719 223.768 351.719C223.331 351.719 222.952 351.815 222.632 352.007C222.318 352.194 222.024 352.463 221.752 352.815V356.599ZM221.664 351.671C222.006 351.271 222.392 350.948 222.824 350.703C223.262 350.458 223.768 350.335 224.344 350.335C224.803 350.335 225.219 350.428 225.592 350.615C225.966 350.796 226.286 351.063 226.552 351.415C226.819 351.767 227.024 352.204 227.168 352.727C227.318 353.244 227.392 353.839 227.392 354.511C227.392 355.114 227.31 355.676 227.144 356.199C226.984 356.716 226.752 357.167 226.448 357.551C226.144 357.93 225.776 358.228 225.344 358.447C224.912 358.66 224.424 358.767 223.88 358.767C223.4 358.767 222.992 358.69 222.656 358.535C222.326 358.38 222.024 358.167 221.752 357.895V361.359H220.032V350.487H221.072C221.307 350.487 221.456 350.596 221.52 350.815L221.664 351.671ZM230.688 351.999C230.944 351.482 231.253 351.076 231.616 350.783C231.978 350.484 232.413 350.335 232.92 350.335C233.096 350.335 233.261 350.356 233.416 350.399C233.57 350.436 233.709 350.495 233.832 350.575L233.712 351.871C233.69 351.962 233.656 352.026 233.608 352.063C233.565 352.095 233.506 352.111 233.432 352.111C233.352 352.111 233.237 352.098 233.088 352.071C232.938 352.039 232.781 352.023 232.616 352.023C232.376 352.023 232.162 352.058 231.976 352.127C231.794 352.196 231.629 352.298 231.48 352.431C231.336 352.564 231.208 352.727 231.096 352.919C230.984 353.111 230.88 353.33 230.784 353.575V358.647H229.064V350.487H230.064C230.245 350.487 230.37 350.522 230.44 350.591C230.509 350.655 230.557 350.77 230.584 350.935L230.688 351.999ZM236.762 350.487V358.647H235.042V350.487H236.762ZM237.05 348.023C237.05 348.178 237.018 348.324 236.954 348.463C236.895 348.602 236.813 348.724 236.706 348.831C236.599 348.932 236.474 349.015 236.33 349.079C236.191 349.138 236.042 349.167 235.882 349.167C235.727 349.167 235.581 349.138 235.442 349.079C235.309 349.015 235.191 348.932 235.09 348.831C234.989 348.724 234.906 348.602 234.842 348.463C234.783 348.324 234.754 348.178 234.754 348.023C234.754 347.863 234.783 347.714 234.842 347.575C234.906 347.436 234.989 347.316 235.09 347.215C235.191 347.108 235.309 347.026 235.442 346.967C235.581 346.903 235.727 346.871 235.882 346.871C236.042 346.871 236.191 346.903 236.33 346.967C236.474 347.026 236.599 347.108 236.706 347.215C236.813 347.316 236.895 347.436 236.954 347.575C237.018 347.714 237.05 347.863 237.05 348.023ZM238.923 358.647V350.487H239.963C240.198 350.487 240.347 350.596 240.411 350.815L240.523 351.527C240.672 351.356 240.827 351.202 240.987 351.063C241.147 350.919 241.318 350.796 241.499 350.695C241.686 350.588 241.883 350.506 242.091 350.447C242.304 350.388 242.534 350.359 242.779 350.359C243.04 350.359 243.28 350.396 243.499 350.471C243.718 350.546 243.91 350.652 244.075 350.791C244.246 350.93 244.392 351.098 244.515 351.295C244.638 351.492 244.739 351.714 244.819 351.959C244.942 351.676 245.096 351.434 245.283 351.231C245.47 351.028 245.678 350.863 245.907 350.735C246.136 350.607 246.379 350.514 246.635 350.455C246.896 350.391 247.16 350.359 247.427 350.359C247.864 350.359 248.254 350.428 248.595 350.567C248.942 350.706 249.232 350.908 249.467 351.175C249.707 351.436 249.888 351.759 250.011 352.143C250.134 352.527 250.195 352.964 250.195 353.455V358.647H248.475V353.455C248.475 352.879 248.35 352.447 248.099 352.159C247.854 351.866 247.488 351.719 247.003 351.719C246.784 351.719 246.579 351.756 246.387 351.831C246.195 351.906 246.027 352.015 245.883 352.159C245.739 352.303 245.624 352.484 245.539 352.703C245.459 352.916 245.419 353.167 245.419 353.455V358.647H243.699V353.455C243.699 352.858 243.579 352.42 243.339 352.143C243.099 351.86 242.747 351.719 242.283 351.719C241.963 351.719 241.667 351.802 241.395 351.967C241.123 352.127 240.872 352.348 240.643 352.631V358.647H238.923ZM257.556 353.647C257.556 353.359 257.514 353.092 257.428 352.847C257.348 352.596 257.228 352.38 257.068 352.199C256.908 352.012 256.708 351.868 256.468 351.767C256.234 351.66 255.962 351.607 255.652 351.607C255.028 351.607 254.538 351.786 254.18 352.143C253.823 352.5 253.596 353.002 253.5 353.647H257.556ZM253.452 354.703C253.474 355.167 253.546 355.57 253.668 355.911C253.791 356.247 253.954 356.527 254.156 356.751C254.364 356.975 254.61 357.143 254.892 357.255C255.18 357.362 255.5 357.415 255.852 357.415C256.188 357.415 256.479 357.378 256.724 357.303C256.97 357.223 257.183 357.138 257.364 357.047C257.546 356.951 257.7 356.866 257.828 356.791C257.956 356.711 258.074 356.671 258.18 356.671C258.319 356.671 258.426 356.724 258.5 356.831L258.988 357.463C258.786 357.703 258.556 357.906 258.3 358.071C258.044 358.236 257.772 358.372 257.484 358.479C257.196 358.58 256.9 358.652 256.596 358.695C256.292 358.743 255.996 358.767 255.708 358.767C255.143 358.767 254.618 358.674 254.132 358.487C253.652 358.295 253.234 358.015 252.876 357.647C252.524 357.279 252.247 356.823 252.044 356.279C251.847 355.735 251.748 355.108 251.748 354.399C251.748 353.834 251.836 353.306 252.012 352.815C252.194 352.324 252.45 351.898 252.78 351.535C253.116 351.172 253.522 350.887 253.996 350.679C254.476 350.466 255.018 350.359 255.62 350.359C256.122 350.359 256.586 350.442 257.012 350.607C257.439 350.767 257.807 351.004 258.116 351.319C258.426 351.634 258.666 352.02 258.836 352.479C259.012 352.932 259.1 353.45 259.1 354.031C259.1 354.298 259.071 354.476 259.012 354.567C258.954 354.658 258.847 354.703 258.692 354.703H253.452ZM262.328 351.999C262.584 351.482 262.894 351.076 263.256 350.783C263.619 350.484 264.054 350.335 264.56 350.335C264.736 350.335 264.902 350.356 265.056 350.399C265.211 350.436 265.35 350.495 265.472 350.575L265.352 351.871C265.331 351.962 265.296 352.026 265.248 352.063C265.206 352.095 265.147 352.111 265.072 352.111C264.992 352.111 264.878 352.098 264.728 352.071C264.579 352.039 264.422 352.023 264.256 352.023C264.016 352.023 263.803 352.058 263.616 352.127C263.435 352.196 263.27 352.298 263.12 352.431C262.976 352.564 262.848 352.727 262.736 352.919C262.624 353.111 262.52 353.33 262.424 353.575V358.647H260.704V350.487H261.704C261.886 350.487 262.011 350.522 262.08 350.591C262.15 350.655 262.198 350.77 262.224 350.935L262.328 351.999Z" fill="white"/>
</svg>
