<svg width="1333" height="278" viewBox="0 0 1333 278" fill="none" xmlns="http://www.w3.org/2000/svg">
<rect width="1301" height="221" transform="translate(32)" fill="white"/>
<rect width="1301" height="73" transform="translate(32)" fill="#DFD9EA"/>
<path d="M249.14 42.44L251.68 41.88C252.307 42.2267 252.867 42.5133 253.36 42.74C253.867 42.9667 254.34 43.16 254.78 43.32C255.22 43.48 255.66 43.6333 256.1 43.78C256.127 43.8733 256.14 43.9467 256.14 44C256.14 44.0667 256.14 44.1267 256.14 44.18C256.14 44.6733 256 45.04 255.72 45.28C255.453 45.5333 255.093 45.66 254.64 45.66C254.133 45.66 253.54 45.48 252.86 45.12C252.193 44.7733 251.467 44.2867 250.68 43.66L249.14 42.44ZM255.5 36.42C255.5 37.8067 255.233 38.9733 254.7 39.92C254.18 40.8667 253.46 41.58 252.54 42.06C251.633 42.54 250.6 42.78 249.44 42.78C248.293 42.78 247.26 42.54 246.34 42.06C245.433 41.5667 244.713 40.8533 244.18 39.92C243.66 38.9733 243.4 37.8067 243.4 36.42C243.4 35.0333 243.667 33.8667 244.2 32.92C244.747 31.9733 245.473 31.26 246.38 30.78C247.3 30.2867 248.32 30.04 249.44 30.04C250.587 30.04 251.613 30.2867 252.52 30.78C253.44 31.26 254.167 31.9733 254.7 32.92C255.233 33.8667 255.5 35.0333 255.5 36.42ZM252.92 36.42C252.92 35.02 252.6 33.9533 251.96 33.22C251.333 32.4867 250.493 32.12 249.44 32.12C248.413 32.12 247.58 32.4867 246.94 33.22C246.313 33.94 246 35.0067 246 36.42C246 37.82 246.313 38.8867 246.94 39.62C247.567 40.3533 248.407 40.72 249.46 40.72C250.513 40.72 251.353 40.3533 251.98 39.62C252.607 38.8867 252.92 37.82 252.92 36.42ZM257.725 38.88V37.3H260.185V38.84C260.185 39.5467 260.365 40.0533 260.725 40.36C261.099 40.6667 261.612 40.82 262.265 40.82C262.692 40.82 263.052 40.78 263.345 40.7C263.639 40.62 263.859 40.5333 264.005 40.44V37.3H266.465V40.64C266.465 40.9467 266.412 41.2067 266.305 41.42C266.212 41.62 266.025 41.8067 265.745 41.98C265.359 42.2067 264.865 42.3933 264.265 42.54C263.679 42.7 263.005 42.78 262.245 42.78C261.325 42.78 260.525 42.6467 259.845 42.38C259.165 42.1133 258.639 41.6933 258.265 41.12C257.905 40.5333 257.725 39.7867 257.725 38.88ZM266.465 38.26H264.005V33.06C264.112 33.0333 264.265 33.0067 264.465 32.98C264.679 32.94 264.899 32.92 265.125 32.92C265.592 32.92 265.932 33 266.145 33.16C266.359 33.32 266.465 33.62 266.465 34.06V38.26ZM260.185 38.26H257.725V33.06C257.832 33.0333 257.985 33.0067 258.185 32.98C258.385 32.94 258.605 32.92 258.845 32.92C259.312 32.92 259.652 33 259.865 33.16C260.079 33.32 260.185 33.62 260.185 34.06V38.26ZM272.754 40.92C273.154 40.92 273.514 40.88 273.834 40.8C274.154 40.72 274.387 40.6333 274.534 40.54V38.26L272.554 38.46C272.007 38.5 271.587 38.62 271.294 38.82C271.014 39.0067 270.874 39.2867 270.874 39.66C270.874 40.0467 271.027 40.3533 271.334 40.58C271.641 40.8067 272.114 40.92 272.754 40.92ZM272.654 32.76C273.961 32.76 275.001 33.04 275.774 33.6C276.547 34.1467 276.934 35.0133 276.934 36.2V40.8C276.934 41.12 276.854 41.3733 276.694 41.56C276.547 41.7467 276.354 41.9133 276.114 42.06C275.741 42.2733 275.267 42.4467 274.694 42.58C274.121 42.7267 273.474 42.8 272.754 42.8C271.421 42.8 270.374 42.5467 269.614 42.04C268.854 41.52 268.474 40.7533 268.474 39.74C268.474 38.8467 268.754 38.1667 269.314 37.7C269.887 37.22 270.714 36.9267 271.794 36.82L274.514 36.54V36.18C274.514 35.6467 274.327 35.26 273.954 35.02C273.594 34.78 273.081 34.66 272.414 34.66C271.894 34.66 271.387 34.7267 270.894 34.86C270.401 34.9933 269.961 35.1533 269.574 35.34C269.441 35.2333 269.321 35.0867 269.214 34.9C269.107 34.7133 269.054 34.52 269.054 34.32C269.054 33.84 269.321 33.4867 269.854 33.26C270.227 33.0867 270.661 32.96 271.154 32.88C271.661 32.8 272.161 32.76 272.654 32.76ZM288.204 36.32V38.26H285.744V36.42C285.744 35.8333 285.577 35.4067 285.244 35.14C284.91 34.86 284.464 34.72 283.904 34.72C283.49 34.72 283.117 34.7733 282.784 34.88C282.464 34.9733 282.177 35.0867 281.924 35.22V38.26H279.464V35.06C279.464 34.74 279.53 34.48 279.664 34.28C279.797 34.0667 279.997 33.8733 280.264 33.7C280.664 33.4333 281.177 33.2133 281.804 33.04C282.444 32.8533 283.15 32.76 283.924 32.76C285.27 32.76 286.317 33.06 287.064 33.66C287.824 34.26 288.204 35.1467 288.204 36.32ZM279.464 37.28H281.924V42.46C281.817 42.5 281.664 42.5333 281.464 42.56C281.264 42.6 281.044 42.62 280.804 42.62C280.35 42.62 280.01 42.54 279.784 42.38C279.57 42.2067 279.464 41.9067 279.464 41.48V37.28ZM285.744 37.28H288.204V42.46C288.11 42.5 287.957 42.5333 287.744 42.56C287.544 42.6 287.33 42.62 287.104 42.62C286.637 42.62 286.29 42.54 286.064 42.38C285.85 42.2067 285.744 41.9067 285.744 41.48V37.28ZM290.812 37.22H293.272V39.58C293.272 40.02 293.398 40.3333 293.652 40.52C293.918 40.7067 294.292 40.8 294.772 40.8C294.985 40.8 295.212 40.7733 295.452 40.72C295.705 40.6667 295.918 40.6 296.092 40.52C296.185 40.6267 296.272 40.7533 296.352 40.9C296.432 41.0467 296.472 41.2267 296.472 41.44C296.472 41.8267 296.285 42.1467 295.912 42.4C295.552 42.6533 294.985 42.78 294.212 42.78C293.158 42.78 292.325 42.5467 291.712 42.08C291.112 41.6 290.812 40.8267 290.812 39.76V37.22ZM292.312 35.18V33.24H296.232C296.285 33.3333 296.338 33.4667 296.392 33.64C296.458 33.8133 296.492 33.9933 296.492 34.18C296.492 34.5133 296.412 34.7667 296.252 34.94C296.092 35.1 295.885 35.18 295.632 35.18H292.312ZM293.272 37.76H290.812V30.56C290.918 30.52 291.072 30.48 291.272 30.44C291.485 30.4 291.705 30.38 291.932 30.38C292.398 30.38 292.738 30.4667 292.952 30.64C293.165 30.8 293.272 31.0933 293.272 31.52V37.76ZM298.348 30.22C298.348 29.8333 298.481 29.5067 298.748 29.24C299.028 28.9733 299.374 28.84 299.788 28.84C300.214 28.84 300.554 28.9733 300.808 29.24C301.074 29.5067 301.208 29.8333 301.208 30.22C301.208 30.5933 301.074 30.92 300.808 31.2C300.554 31.4667 300.214 31.6 299.788 31.6C299.374 31.6 299.028 31.4667 298.748 31.2C298.481 30.92 298.348 30.5933 298.348 30.22ZM298.548 37.22H301.028V42.46C300.921 42.5 300.768 42.5333 300.568 42.56C300.368 42.6 300.148 42.62 299.908 42.62C299.454 42.62 299.114 42.54 298.888 42.38C298.661 42.2067 298.548 41.9067 298.548 41.48V37.22ZM301.028 38.48H298.548V33.12C298.654 33.08 298.808 33.0467 299.008 33.02C299.221 32.98 299.448 32.96 299.688 32.96C300.154 32.96 300.494 33.0467 300.708 33.22C300.921 33.38 301.028 33.68 301.028 34.12V38.48ZM303.702 37.22H306.162V39.58C306.162 40.02 306.289 40.3333 306.542 40.52C306.809 40.7067 307.182 40.8 307.662 40.8C307.876 40.8 308.102 40.7733 308.342 40.72C308.596 40.6667 308.809 40.6 308.982 40.52C309.076 40.6267 309.162 40.7533 309.242 40.9C309.322 41.0467 309.362 41.2267 309.362 41.44C309.362 41.8267 309.176 42.1467 308.802 42.4C308.442 42.6533 307.876 42.78 307.102 42.78C306.049 42.78 305.216 42.5467 304.602 42.08C304.002 41.6 303.702 40.8267 303.702 39.76V37.22ZM305.202 35.18V33.24H309.122C309.176 33.3333 309.229 33.4667 309.282 33.64C309.349 33.8133 309.382 33.9933 309.382 34.18C309.382 34.5133 309.302 34.7667 309.142 34.94C308.982 35.1 308.776 35.18 308.522 35.18H305.202ZM306.162 37.76H303.702V30.56C303.809 30.52 303.962 30.48 304.162 30.44C304.376 30.4 304.596 30.38 304.822 30.38C305.289 30.38 305.629 30.4667 305.842 30.64C306.056 30.8 306.162 31.0933 306.162 31.52V37.76ZM312.243 39.02L312.143 37.3L317.503 36.5C317.463 35.9933 317.269 35.5533 316.923 35.18C316.576 34.8067 316.069 34.62 315.403 34.62C314.723 34.62 314.156 34.86 313.703 35.34C313.249 35.8067 313.016 36.48 313.003 37.36L313.063 38.4C313.183 39.2533 313.509 39.88 314.043 40.28C314.589 40.68 315.276 40.88 316.103 40.88C316.663 40.88 317.183 40.8 317.663 40.64C318.143 40.4667 318.523 40.28 318.803 40.08C318.989 40.2 319.136 40.3533 319.243 40.54C319.363 40.7133 319.423 40.9067 319.423 41.12C319.423 41.4667 319.269 41.7667 318.963 42.02C318.656 42.26 318.243 42.4467 317.723 42.58C317.203 42.7133 316.609 42.78 315.943 42.78C314.916 42.78 314.003 42.5933 313.203 42.22C312.416 41.8333 311.796 41.26 311.343 40.5C310.903 39.74 310.683 38.7933 310.683 37.66C310.683 36.8467 310.809 36.1333 311.063 35.52C311.316 34.9067 311.656 34.4 312.083 34C312.523 33.5867 313.029 33.28 313.603 33.08C314.176 32.8667 314.776 32.76 315.403 32.76C316.283 32.76 317.049 32.94 317.703 33.3C318.369 33.6467 318.889 34.1333 319.263 34.76C319.649 35.3867 319.843 36.1067 319.843 36.92C319.843 37.2933 319.743 37.5733 319.543 37.76C319.356 37.9333 319.089 38.04 318.743 38.08L312.243 39.02ZM314.763 30.32L316.743 28.14C317.236 28.14 317.609 28.2533 317.863 28.48C318.129 28.6933 318.263 28.94 318.263 29.22C318.263 29.46 318.209 29.66 318.103 29.82C317.996 29.98 317.816 30.1733 317.563 30.4L315.703 32.06C315.289 32.06 314.963 31.96 314.723 31.76C314.496 31.5467 314.383 31.32 314.383 31.08C314.383 30.9333 314.416 30.8067 314.483 30.7C314.549 30.58 314.643 30.4533 314.763 30.32Z" fill="black"/>
<path d="M433.18 36.38C433.18 37.8067 432.833 38.8867 432.14 39.62C431.447 40.34 430.48 40.7 429.24 40.7C428.947 40.7 428.653 40.6933 428.36 40.68C428.067 40.6533 427.8 40.6133 427.56 40.56V32.26C427.8 32.22 428.047 32.1933 428.3 32.18C428.567 32.1533 428.847 32.14 429.14 32.14C429.913 32.14 430.6 32.2933 431.2 32.6C431.813 32.8933 432.293 33.3533 432.64 33.98C433 34.5933 433.18 35.3933 433.18 36.38ZM435.78 36.34C435.78 34.9267 435.493 33.76 434.92 32.84C434.36 31.92 433.573 31.2333 432.56 30.78C431.56 30.3133 430.387 30.08 429.04 30.08C428.533 30.08 427.987 30.1067 427.4 30.16C426.827 30.2133 426.293 30.3133 425.8 30.46C425.573 30.54 425.387 30.6467 425.24 30.78C425.107 30.9133 425.04 31.1067 425.04 31.36V41.18C425.04 41.74 425.367 42.1333 426.02 42.36C426.527 42.5333 427.08 42.64 427.68 42.68C428.28 42.7333 428.8 42.76 429.24 42.76C430.56 42.76 431.707 42.5267 432.68 42.06C433.653 41.5933 434.413 40.8867 434.96 39.94C435.507 38.98 435.78 37.78 435.78 36.34ZM439.063 39.02L438.963 37.3L444.323 36.5C444.283 35.9933 444.09 35.5533 443.743 35.18C443.396 34.8067 442.89 34.62 442.223 34.62C441.543 34.62 440.976 34.86 440.523 35.34C440.07 35.8067 439.836 36.48 439.823 37.36L439.883 38.4C440.003 39.2533 440.33 39.88 440.863 40.28C441.41 40.68 442.096 40.88 442.923 40.88C443.483 40.88 444.003 40.8 444.483 40.64C444.963 40.4667 445.343 40.28 445.623 40.08C445.81 40.2 445.956 40.3533 446.063 40.54C446.183 40.7133 446.243 40.9067 446.243 41.12C446.243 41.4667 446.09 41.7667 445.783 42.02C445.476 42.26 445.063 42.4467 444.543 42.58C444.023 42.7133 443.43 42.78 442.763 42.78C441.736 42.78 440.823 42.5933 440.023 42.22C439.236 41.8333 438.616 41.26 438.163 40.5C437.723 39.74 437.503 38.7933 437.503 37.66C437.503 36.8467 437.63 36.1333 437.883 35.52C438.136 34.9067 438.476 34.4 438.903 34C439.343 33.5867 439.85 33.28 440.423 33.08C440.996 32.8667 441.596 32.76 442.223 32.76C443.103 32.76 443.87 32.94 444.523 33.3C445.19 33.6467 445.71 34.1333 446.083 34.76C446.47 35.3867 446.663 36.1067 446.663 36.92C446.663 37.2933 446.563 37.5733 446.363 37.76C446.176 37.9333 445.91 38.04 445.563 38.08L439.063 39.02ZM441.583 30.32L443.563 28.14C444.056 28.14 444.43 28.2533 444.683 28.48C444.95 28.6933 445.083 28.94 445.083 29.22C445.083 29.46 445.03 29.66 444.923 29.82C444.816 29.98 444.636 30.1733 444.383 30.4L442.523 32.06C442.11 32.06 441.783 31.96 441.543 31.76C441.316 31.5467 441.203 31.32 441.203 31.08C441.203 30.9333 441.236 30.8067 441.303 30.7C441.37 30.58 441.463 30.4533 441.583 30.32ZM456.026 39.82C456.026 40.7533 455.679 41.4867 454.986 42.02C454.292 42.54 453.286 42.8 451.966 42.8C450.899 42.8 450.026 42.64 449.346 42.32C448.666 42 448.326 41.5733 448.326 41.04C448.326 40.8133 448.379 40.6067 448.486 40.42C448.592 40.22 448.732 40.0667 448.906 39.96C449.279 40.2 449.712 40.4133 450.206 40.6C450.699 40.7867 451.259 40.88 451.886 40.88C453.019 40.88 453.586 40.5333 453.586 39.84C453.586 39.5467 453.486 39.3133 453.286 39.14C453.086 38.9533 452.779 38.82 452.366 38.74L451.226 38.44C450.252 38.2267 449.526 37.8933 449.046 37.44C448.579 36.9867 448.346 36.38 448.346 35.62C448.346 34.78 448.692 34.0933 449.386 33.56C450.079 33.0133 451.039 32.74 452.266 32.74C452.906 32.74 453.479 32.8067 453.986 32.94C454.492 33.06 454.886 33.24 455.166 33.48C455.459 33.72 455.606 34.0067 455.606 34.34C455.606 34.5667 455.552 34.7733 455.446 34.96C455.352 35.1333 455.226 35.2667 455.066 35.36C454.906 35.2667 454.686 35.1667 454.406 35.06C454.139 34.94 453.832 34.8467 453.486 34.78C453.139 34.7 452.792 34.66 452.446 34.66C451.926 34.66 451.512 34.7467 451.206 34.92C450.912 35.08 450.766 35.3133 450.766 35.62C450.766 35.8467 450.852 36.04 451.026 36.2C451.199 36.36 451.492 36.4867 451.906 36.58L452.926 36.82C454.006 37.0733 454.792 37.4467 455.286 37.94C455.779 38.42 456.026 39.0467 456.026 39.82ZM463.038 34.74C462.238 34.74 461.565 35 461.018 35.52C460.485 36.04 460.218 36.8 460.218 37.8C460.218 38.7867 460.478 39.5333 460.998 40.04C461.518 40.5467 462.192 40.8 463.018 40.8C463.512 40.8 463.925 40.74 464.258 40.62C464.605 40.4867 464.905 40.3467 465.158 40.2C465.358 40.32 465.512 40.4667 465.618 40.64C465.738 40.8 465.798 41 465.798 41.24C465.798 41.6933 465.525 42.0667 464.978 42.36C464.432 42.64 463.712 42.78 462.818 42.78C461.805 42.78 460.912 42.6 460.138 42.24C459.378 41.8667 458.778 41.3067 458.338 40.56C457.912 39.8133 457.698 38.8933 457.698 37.8C457.698 36.6667 457.925 35.7267 458.378 34.98C458.845 34.2333 459.458 33.68 460.218 33.32C460.992 32.9467 461.838 32.76 462.758 32.76C463.638 32.76 464.345 32.9133 464.878 33.22C465.412 33.5267 465.678 33.9067 465.678 34.36C465.678 34.56 465.625 34.7467 465.518 34.92C465.412 35.0933 465.285 35.2333 465.138 35.34C464.872 35.18 464.572 35.04 464.238 34.92C463.905 34.8 463.505 34.74 463.038 34.74ZM470.306 35.3V38.04H467.846V35.1C467.846 34.7667 467.926 34.4867 468.086 34.26C468.246 34.02 468.473 33.8 468.766 33.6C469.166 33.36 469.673 33.16 470.286 33C470.9 32.84 471.56 32.76 472.266 32.76C473.52 32.76 474.146 33.1467 474.146 33.92C474.146 34.1067 474.12 34.28 474.066 34.44C474.013 34.5867 473.946 34.72 473.866 34.84C473.733 34.8133 473.566 34.7933 473.366 34.78C473.166 34.7533 472.953 34.74 472.726 34.74C472.246 34.74 471.793 34.7933 471.366 34.9C470.953 34.9933 470.6 35.1267 470.306 35.3ZM467.846 37.22L470.306 37.34V42.46C470.2 42.5 470.046 42.5333 469.846 42.56C469.646 42.6 469.426 42.62 469.186 42.62C468.733 42.62 468.393 42.54 468.166 42.38C467.953 42.2067 467.846 41.9067 467.846 41.48V37.22ZM475.656 30.22C475.656 29.8333 475.789 29.5067 476.056 29.24C476.336 28.9733 476.683 28.84 477.096 28.84C477.523 28.84 477.863 28.9733 478.116 29.24C478.383 29.5067 478.516 29.8333 478.516 30.22C478.516 30.5933 478.383 30.92 478.116 31.2C477.863 31.4667 477.523 31.6 477.096 31.6C476.683 31.6 476.336 31.4667 476.056 31.2C475.789 30.92 475.656 30.5933 475.656 30.22ZM475.856 37.22H478.336V42.46C478.229 42.5 478.076 42.5333 477.876 42.56C477.676 42.6 477.456 42.62 477.216 42.62C476.763 42.62 476.423 42.54 476.196 42.38C475.969 42.2067 475.856 41.9067 475.856 41.48V37.22ZM478.336 38.48H475.856V33.12C475.963 33.08 476.116 33.0467 476.316 33.02C476.529 32.98 476.756 32.96 476.996 32.96C477.463 32.96 477.803 33.0467 478.016 33.22C478.229 33.38 478.336 33.68 478.336 34.12V38.48ZM485.451 42.78C486.371 42.78 487.184 42.5933 487.891 42.22C488.611 41.8333 489.171 41.2667 489.571 40.52C489.984 39.7733 490.191 38.84 490.191 37.72C490.191 36.56 489.971 35.6133 489.531 34.88C489.104 34.1467 488.511 33.6133 487.751 33.28C486.991 32.9333 486.124 32.76 485.151 32.76C484.431 32.76 483.784 32.8467 483.211 33.02C482.638 33.18 482.158 33.3733 481.771 33.6C481.491 33.7733 481.291 33.96 481.171 34.16C481.051 34.36 480.991 34.6133 480.991 34.92V41.48H483.451V35.16C483.651 35.04 483.891 34.94 484.171 34.86C484.451 34.7667 484.778 34.72 485.151 34.72C485.631 34.72 486.064 34.82 486.451 35.02C486.838 35.22 487.138 35.54 487.351 35.98C487.578 36.4067 487.691 36.9867 487.691 37.72C487.691 38.7733 487.458 39.5533 486.991 40.06C486.524 40.5533 485.891 40.8 485.091 40.8C484.611 40.8 484.191 40.72 483.831 40.56C483.484 40.3867 483.184 40.1933 482.931 39.98V42.1C483.211 42.2733 483.564 42.4267 483.991 42.56C484.431 42.7067 484.918 42.78 485.451 42.78ZM483.451 40.8L480.991 40.78V45.08C480.991 45.5067 481.098 45.8067 481.311 45.98C481.538 46.1533 481.878 46.24 482.331 46.24C482.571 46.24 482.791 46.22 482.991 46.18C483.191 46.1533 483.344 46.12 483.451 46.08V40.8ZM492.32 37.22H494.78V39.58C494.78 40.02 494.906 40.3333 495.16 40.52C495.426 40.7067 495.8 40.8 496.28 40.8C496.493 40.8 496.72 40.7733 496.96 40.72C497.213 40.6667 497.426 40.6 497.6 40.52C497.693 40.6267 497.78 40.7533 497.86 40.9C497.94 41.0467 497.98 41.2267 497.98 41.44C497.98 41.8267 497.793 42.1467 497.42 42.4C497.06 42.6533 496.493 42.78 495.72 42.78C494.666 42.78 493.833 42.5467 493.22 42.08C492.62 41.6 492.32 40.8267 492.32 39.76V37.22ZM493.82 35.18V33.24H497.74C497.793 33.3333 497.846 33.4667 497.9 33.64C497.966 33.8133 498 33.9933 498 34.18C498 34.5133 497.92 34.7667 497.76 34.94C497.6 35.1 497.393 35.18 497.14 35.18H493.82ZM494.78 37.76H492.32V30.56C492.426 30.52 492.58 30.48 492.78 30.44C492.993 30.4 493.213 30.38 493.44 30.38C493.906 30.38 494.246 30.4667 494.46 30.64C494.673 30.8 494.78 31.0933 494.78 31.52V37.76ZM499.855 30.22C499.855 29.8333 499.989 29.5067 500.255 29.24C500.535 28.9733 500.882 28.84 501.295 28.84C501.722 28.84 502.062 28.9733 502.315 29.24C502.582 29.5067 502.715 29.8333 502.715 30.22C502.715 30.5933 502.582 30.92 502.315 31.2C502.062 31.4667 501.722 31.6 501.295 31.6C500.882 31.6 500.535 31.4667 500.255 31.2C499.989 30.92 499.855 30.5933 499.855 30.22ZM500.055 37.22H502.535V42.46C502.429 42.5 502.275 42.5333 502.075 42.56C501.875 42.6 501.655 42.62 501.415 42.62C500.962 42.62 500.622 42.54 500.395 42.38C500.169 42.2067 500.055 41.9067 500.055 41.48V37.22ZM502.535 38.48H500.055V33.12C500.162 33.08 500.315 33.0467 500.515 33.02C500.729 32.98 500.955 32.96 501.195 32.96C501.662 32.96 502.002 33.0467 502.215 33.22C502.429 33.38 502.535 33.68 502.535 34.12V38.48ZM514.47 37.76C514.47 38.7867 514.27 39.68 513.87 40.44C513.47 41.1867 512.903 41.7667 512.17 42.18C511.45 42.58 510.597 42.78 509.61 42.78C508.623 42.78 507.763 42.58 507.03 42.18C506.297 41.7667 505.723 41.1867 505.31 40.44C504.91 39.6933 504.71 38.8 504.71 37.76C504.71 36.7333 504.917 35.8467 505.33 35.1C505.743 34.3533 506.317 33.78 507.05 33.38C507.783 32.9667 508.637 32.76 509.61 32.76C510.583 32.76 511.43 32.9667 512.15 33.38C512.883 33.78 513.45 34.36 513.85 35.12C514.263 35.8667 514.47 36.7467 514.47 37.76ZM509.61 34.72C508.877 34.72 508.297 34.9867 507.87 35.52C507.457 36.0533 507.25 36.8 507.25 37.76C507.25 38.7467 507.457 39.5067 507.87 40.04C508.283 40.56 508.863 40.82 509.61 40.82C510.343 40.82 510.917 40.5533 511.33 40.02C511.743 39.4867 511.95 38.7333 511.95 37.76C511.95 36.8133 511.743 36.0733 511.33 35.54C510.917 34.9933 510.343 34.72 509.61 34.72ZM525.317 36.32V38.26H522.857V36.42C522.857 35.8333 522.69 35.4067 522.357 35.14C522.024 34.86 521.577 34.72 521.017 34.72C520.604 34.72 520.23 34.7733 519.897 34.88C519.577 34.9733 519.29 35.0867 519.037 35.22V38.26H516.577V35.06C516.577 34.74 516.644 34.48 516.777 34.28C516.91 34.0667 517.11 33.8733 517.377 33.7C517.777 33.4333 518.29 33.2133 518.917 33.04C519.557 32.8533 520.264 32.76 521.037 32.76C522.384 32.76 523.43 33.06 524.177 33.66C524.937 34.26 525.317 35.1467 525.317 36.32ZM516.577 37.28H519.037V42.46C518.93 42.5 518.777 42.5333 518.577 42.56C518.377 42.6 518.157 42.62 517.917 42.62C517.464 42.62 517.124 42.54 516.897 42.38C516.684 42.2067 516.577 41.9067 516.577 41.48V37.28ZM522.857 37.28H525.317V42.46C525.224 42.5 525.07 42.5333 524.857 42.56C524.657 42.6 524.444 42.62 524.217 42.62C523.75 42.62 523.404 42.54 523.177 42.38C522.964 42.2067 522.857 41.9067 522.857 41.48V37.28Z" fill="black"/>
<path d="M633.56 36.42H635.04C635.853 36.42 636.493 36.24 636.96 35.88C637.427 35.5067 637.66 34.9667 637.66 34.26C637.66 33.54 637.433 33.0067 636.98 32.66C636.54 32.3133 635.907 32.14 635.08 32.14C634.787 32.14 634.513 32.1533 634.26 32.18C634.007 32.1933 633.773 32.22 633.56 32.26V36.42ZM635.18 38.44H631.04V31.36C631.04 31.12 631.107 30.9333 631.24 30.8C631.387 30.6667 631.573 30.56 631.8 30.48C632.227 30.3467 632.733 30.2467 633.32 30.18C633.907 30.1133 634.453 30.08 634.96 30.08C636.72 30.08 638.033 30.4533 638.9 31.2C639.78 31.9467 640.22 32.96 640.22 34.24C640.22 35.0933 640.027 35.8333 639.64 36.46C639.253 37.0867 638.687 37.5733 637.94 37.92C637.193 38.2667 636.273 38.44 635.18 38.44ZM631.04 37.3H633.58V42.46C633.473 42.5 633.307 42.5333 633.08 42.56C632.867 42.6 632.64 42.62 632.4 42.62C631.92 42.62 631.573 42.5333 631.36 42.36C631.147 42.1733 631.04 41.8667 631.04 41.44V37.3ZM644.334 35.3V38.04H641.874V35.1C641.874 34.7667 641.954 34.4867 642.114 34.26C642.274 34.02 642.5 33.8 642.794 33.6C643.194 33.36 643.7 33.16 644.314 33C644.927 32.84 645.587 32.76 646.294 32.76C647.547 32.76 648.174 33.1467 648.174 33.92C648.174 34.1067 648.147 34.28 648.094 34.44C648.04 34.5867 647.974 34.72 647.894 34.84C647.76 34.8133 647.594 34.7933 647.394 34.78C647.194 34.7533 646.98 34.74 646.754 34.74C646.274 34.74 645.82 34.7933 645.394 34.9C644.98 34.9933 644.627 35.1267 644.334 35.3ZM641.874 37.22L644.334 37.34V42.46C644.227 42.5 644.074 42.5333 643.874 42.56C643.674 42.6 643.454 42.62 643.214 42.62C642.76 42.62 642.42 42.54 642.194 42.38C641.98 42.2067 641.874 41.9067 641.874 41.48V37.22ZM649.683 30.22C649.683 29.8333 649.817 29.5067 650.083 29.24C650.363 28.9733 650.71 28.84 651.123 28.84C651.55 28.84 651.89 28.9733 652.143 29.24C652.41 29.5067 652.543 29.8333 652.543 30.22C652.543 30.5933 652.41 30.92 652.143 31.2C651.89 31.4667 651.55 31.6 651.123 31.6C650.71 31.6 650.363 31.4667 650.083 31.2C649.817 30.92 649.683 30.5933 649.683 30.22ZM649.883 37.22H652.363V42.46C652.257 42.5 652.103 42.5333 651.903 42.56C651.703 42.6 651.483 42.62 651.243 42.62C650.79 42.62 650.45 42.54 650.223 42.38C649.997 42.2067 649.883 41.9067 649.883 41.48V37.22ZM652.363 38.48H649.883V33.12C649.99 33.08 650.143 33.0467 650.343 33.02C650.557 32.98 650.783 32.96 651.023 32.96C651.49 32.96 651.83 33.0467 652.043 33.22C652.257 33.38 652.363 33.68 652.363 34.12V38.48ZM657.998 36.8L658.438 36.72C658.945 36.0667 659.425 35.44 659.878 34.84C660.345 34.2267 660.825 33.58 661.318 32.9C661.372 32.8867 661.418 32.88 661.458 32.88C661.498 32.88 661.538 32.88 661.578 32.88C662.032 32.88 662.385 32.98 662.638 33.18C662.905 33.38 663.038 33.6333 663.038 33.94C663.038 34.18 662.978 34.4 662.858 34.6C662.752 34.8 662.558 35.0667 662.278 35.4C661.878 35.8667 661.472 36.34 661.058 36.82C660.658 37.2867 660.265 37.7533 659.878 38.22L659.118 38.64C658.652 39.2933 658.172 39.96 657.678 40.64C657.198 41.3067 656.725 41.9667 656.258 42.62C656.205 42.62 656.145 42.62 656.078 42.62C656.025 42.6333 655.972 42.64 655.918 42.64C655.438 42.64 655.072 42.54 654.818 42.34C654.565 42.1267 654.438 41.8733 654.438 41.58C654.438 41.3667 654.485 41.1733 654.578 41C654.672 40.8133 654.858 40.56 655.138 40.24C655.592 39.6667 656.058 39.1 656.538 38.54C657.032 37.9667 657.518 37.3867 657.998 36.8ZM659.458 36.98L660.018 37.3C660.538 37.9933 661.065 38.6867 661.598 39.38C662.145 40.0733 662.678 40.7667 663.198 41.46C663.158 41.8333 663.018 42.1267 662.778 42.34C662.538 42.5533 662.245 42.66 661.898 42.66C661.552 42.66 661.265 42.5667 661.038 42.38C660.825 42.18 660.598 41.92 660.358 41.6C659.998 41.0933 659.625 40.5667 659.238 40.02C658.865 39.4733 658.498 38.9533 658.138 38.46L657.658 38.08C657.085 37.4133 656.532 36.76 655.998 36.12C655.478 35.4667 654.952 34.8133 654.418 34.16C654.498 33.7733 654.652 33.4667 654.878 33.24C655.105 33 655.385 32.88 655.718 32.88C656.052 32.88 656.305 32.9667 656.478 33.14C656.665 33.3 656.865 33.52 657.078 33.8C657.452 34.2933 657.832 34.8133 658.218 35.36C658.618 35.9067 659.032 36.4467 659.458 36.98ZM669.061 38.88V37.3H671.521V38.84C671.521 39.5467 671.701 40.0533 672.061 40.36C672.435 40.6667 672.948 40.82 673.601 40.82C674.028 40.82 674.388 40.78 674.681 40.7C674.975 40.62 675.195 40.5333 675.341 40.44V37.3H677.801V40.64C677.801 40.9467 677.748 41.2067 677.641 41.42C677.548 41.62 677.361 41.8067 677.081 41.98C676.695 42.2067 676.201 42.3933 675.601 42.54C675.015 42.7 674.341 42.78 673.581 42.78C672.661 42.78 671.861 42.6467 671.181 42.38C670.501 42.1133 669.975 41.6933 669.601 41.12C669.241 40.5333 669.061 39.7867 669.061 38.88ZM677.801 38.26H675.341V33.06C675.448 33.0333 675.601 33.0067 675.801 32.98C676.015 32.94 676.235 32.92 676.461 32.92C676.928 32.92 677.268 33 677.481 33.16C677.695 33.32 677.801 33.62 677.801 34.06V38.26ZM671.521 38.26H669.061V33.06C669.168 33.0333 669.321 33.0067 669.521 32.98C669.721 32.94 669.941 32.92 670.181 32.92C670.648 32.92 670.988 33 671.201 33.16C671.415 33.32 671.521 33.62 671.521 34.06V38.26ZM689.11 36.32V38.26H686.65V36.42C686.65 35.8333 686.483 35.4067 686.15 35.14C685.817 34.86 685.37 34.72 684.81 34.72C684.397 34.72 684.023 34.7733 683.69 34.88C683.37 34.9733 683.083 35.0867 682.83 35.22V38.26H680.37V35.06C680.37 34.74 680.437 34.48 680.57 34.28C680.703 34.0667 680.903 33.8733 681.17 33.7C681.57 33.4333 682.083 33.2133 682.71 33.04C683.35 32.8533 684.057 32.76 684.83 32.76C686.177 32.76 687.223 33.06 687.97 33.66C688.73 34.26 689.11 35.1467 689.11 36.32ZM680.37 37.28H682.83V42.46C682.723 42.5 682.57 42.5333 682.37 42.56C682.17 42.6 681.95 42.62 681.71 42.62C681.257 42.62 680.917 42.54 680.69 42.38C680.477 42.2067 680.37 41.9067 680.37 41.48V37.28ZM686.65 37.28H689.11V42.46C689.017 42.5 688.863 42.5333 688.65 42.56C688.45 42.6 688.237 42.62 688.01 42.62C687.543 42.62 687.197 42.54 686.97 42.38C686.757 42.2067 686.65 41.9067 686.65 41.48V37.28ZM691.578 30.22C691.578 29.8333 691.711 29.5067 691.978 29.24C692.258 28.9733 692.605 28.84 693.018 28.84C693.445 28.84 693.785 28.9733 694.038 29.24C694.305 29.5067 694.438 29.8333 694.438 30.22C694.438 30.5933 694.305 30.92 694.038 31.2C693.785 31.4667 693.445 31.6 693.018 31.6C692.605 31.6 692.258 31.4667 691.978 31.2C691.711 30.92 691.578 30.5933 691.578 30.22ZM691.778 37.22H694.258V42.46C694.151 42.5 693.998 42.5333 693.798 42.56C693.598 42.6 693.378 42.62 693.138 42.62C692.685 42.62 692.345 42.54 692.118 42.38C691.891 42.2067 691.778 41.9067 691.778 41.48V37.22ZM694.258 38.48H691.778V33.12C691.885 33.08 692.038 33.0467 692.238 33.02C692.451 32.98 692.678 32.96 692.918 32.96C693.385 32.96 693.725 33.0467 693.938 33.22C694.151 33.38 694.258 33.68 694.258 34.12V38.48ZM696.933 37.22H699.393V39.58C699.393 40.02 699.519 40.3333 699.773 40.52C700.039 40.7067 700.413 40.8 700.893 40.8C701.106 40.8 701.333 40.7733 701.573 40.72C701.826 40.6667 702.039 40.6 702.213 40.52C702.306 40.6267 702.393 40.7533 702.473 40.9C702.553 41.0467 702.593 41.2267 702.593 41.44C702.593 41.8267 702.406 42.1467 702.033 42.4C701.673 42.6533 701.106 42.78 700.333 42.78C699.279 42.78 698.446 42.5467 697.833 42.08C697.233 41.6 696.933 40.8267 696.933 39.76V37.22ZM698.433 35.18V33.24H702.353C702.406 33.3333 702.459 33.4667 702.513 33.64C702.579 33.8133 702.613 33.9933 702.613 34.18C702.613 34.5133 702.533 34.7667 702.373 34.94C702.213 35.1 702.006 35.18 701.753 35.18H698.433ZM699.393 37.76H696.933V30.56C697.039 30.52 697.193 30.48 697.393 30.44C697.606 30.4 697.826 30.38 698.053 30.38C698.519 30.38 698.859 30.4667 699.073 30.64C699.286 30.8 699.393 31.0933 699.393 31.52V37.76ZM708.367 40.92C708.767 40.92 709.127 40.88 709.447 40.8C709.767 40.72 710.001 40.6333 710.147 40.54V38.26L708.167 38.46C707.621 38.5 707.201 38.62 706.907 38.82C706.627 39.0067 706.487 39.2867 706.487 39.66C706.487 40.0467 706.641 40.3533 706.947 40.58C707.254 40.8067 707.727 40.92 708.367 40.92ZM708.267 32.76C709.574 32.76 710.614 33.04 711.387 33.6C712.161 34.1467 712.547 35.0133 712.547 36.2V40.8C712.547 41.12 712.467 41.3733 712.307 41.56C712.161 41.7467 711.967 41.9133 711.727 42.06C711.354 42.2733 710.881 42.4467 710.307 42.58C709.734 42.7267 709.087 42.8 708.367 42.8C707.034 42.8 705.987 42.5467 705.227 42.04C704.467 41.52 704.087 40.7533 704.087 39.74C704.087 38.8467 704.367 38.1667 704.927 37.7C705.501 37.22 706.327 36.9267 707.407 36.82L710.127 36.54V36.18C710.127 35.6467 709.941 35.26 709.567 35.02C709.207 34.78 708.694 34.66 708.027 34.66C707.507 34.66 707.001 34.7267 706.507 34.86C706.014 34.9933 705.574 35.1533 705.187 35.34C705.054 35.2333 704.934 35.0867 704.827 34.9C704.721 34.7133 704.667 34.52 704.667 34.32C704.667 33.84 704.934 33.4867 705.467 33.26C705.841 33.0867 706.274 32.96 706.767 32.88C707.274 32.8 707.774 32.76 708.267 32.76ZM714.957 30.22C714.957 29.8333 715.09 29.5067 715.357 29.24C715.637 28.9733 715.984 28.84 716.397 28.84C716.824 28.84 717.164 28.9733 717.417 29.24C717.684 29.5067 717.817 29.8333 717.817 30.22C717.817 30.5933 717.684 30.92 717.417 31.2C717.164 31.4667 716.824 31.6 716.397 31.6C715.984 31.6 715.637 31.4667 715.357 31.2C715.09 30.92 714.957 30.5933 714.957 30.22ZM715.157 37.22H717.637V42.46C717.53 42.5 717.377 42.5333 717.177 42.56C716.977 42.6 716.757 42.62 716.517 42.62C716.064 42.62 715.724 42.54 715.497 42.38C715.27 42.2067 715.157 41.9067 715.157 41.48V37.22ZM717.637 38.48H715.157V33.12C715.264 33.08 715.417 33.0467 715.617 33.02C715.83 32.98 716.057 32.96 716.297 32.96C716.764 32.96 717.104 33.0467 717.317 33.22C717.53 33.38 717.637 33.68 717.637 34.12V38.48ZM722.752 35.3V38.04H720.292V35.1C720.292 34.7667 720.372 34.4867 720.532 34.26C720.692 34.02 720.918 33.8 721.212 33.6C721.612 33.36 722.118 33.16 722.732 33C723.345 32.84 724.005 32.76 724.712 32.76C725.965 32.76 726.592 33.1467 726.592 33.92C726.592 34.1067 726.565 34.28 726.512 34.44C726.458 34.5867 726.392 34.72 726.312 34.84C726.178 34.8133 726.012 34.7933 725.812 34.78C725.612 34.7533 725.398 34.74 725.172 34.74C724.692 34.74 724.238 34.7933 723.812 34.9C723.398 34.9933 723.045 35.1267 722.752 35.3ZM720.292 37.22L722.752 37.34V42.46C722.645 42.5 722.492 42.5333 722.292 42.56C722.092 42.6 721.872 42.62 721.632 42.62C721.178 42.62 720.838 42.54 720.612 42.38C720.398 42.2067 720.292 41.9067 720.292 41.48V37.22ZM729.028 39.02L728.928 37.3L734.288 36.5C734.248 35.9933 734.055 35.5533 733.708 35.18C733.361 34.8067 732.855 34.62 732.188 34.62C731.508 34.62 730.941 34.86 730.488 35.34C730.035 35.8067 729.801 36.48 729.788 37.36L729.848 38.4C729.968 39.2533 730.295 39.88 730.828 40.28C731.375 40.68 732.061 40.88 732.888 40.88C733.448 40.88 733.968 40.8 734.448 40.64C734.928 40.4667 735.308 40.28 735.588 40.08C735.775 40.2 735.921 40.3533 736.028 40.54C736.148 40.7133 736.208 40.9067 736.208 41.12C736.208 41.4667 736.055 41.7667 735.748 42.02C735.441 42.26 735.028 42.4467 734.508 42.58C733.988 42.7133 733.395 42.78 732.728 42.78C731.701 42.78 730.788 42.5933 729.988 42.22C729.201 41.8333 728.581 41.26 728.128 40.5C727.688 39.74 727.468 38.7933 727.468 37.66C727.468 36.8467 727.595 36.1333 727.848 35.52C728.101 34.9067 728.441 34.4 728.868 34C729.308 33.5867 729.815 33.28 730.388 33.08C730.961 32.8667 731.561 32.76 732.188 32.76C733.068 32.76 733.835 32.94 734.488 33.3C735.155 33.6467 735.675 34.1333 736.048 34.76C736.435 35.3867 736.628 36.1067 736.628 36.92C736.628 37.2933 736.528 37.5733 736.328 37.76C736.141 37.9333 735.875 38.04 735.528 38.08L729.028 39.02Z" fill="black"/>
<path d="M848.68 39.42C848.547 39.5267 848.373 39.62 848.16 39.7C847.947 39.7667 847.707 39.8 847.44 39.8C847.093 39.8 846.8 39.7533 846.56 39.66C846.333 39.5667 846.18 39.4067 846.1 39.18C845.553 37.8467 845.08 36.6867 844.68 35.7C844.293 34.7 843.987 33.86 843.76 33.18H843.68C843.64 34.0733 843.6 34.9 843.56 35.66C843.52 36.42 843.487 37.16 843.46 37.88C843.433 38.5867 843.4 39.3133 843.36 40.06C843.333 40.7933 843.293 41.5933 843.24 42.46C843.107 42.5 842.94 42.54 842.74 42.58C842.54 42.62 842.333 42.64 842.12 42.64C841.693 42.64 841.367 42.5667 841.14 42.42C840.927 42.26 840.82 42.0067 840.82 41.66C840.82 41.4067 840.833 40.9933 840.86 40.42C840.9 39.8333 840.94 39.1467 840.98 38.36C841.033 37.5733 841.087 36.7467 841.14 35.88C841.193 35 841.253 34.1333 841.32 33.28C841.387 32.4133 841.447 31.62 841.5 30.9C841.607 30.7667 841.793 30.6333 842.06 30.5C842.34 30.3533 842.707 30.28 843.16 30.28C843.653 30.28 844.053 30.3667 844.36 30.54C844.667 30.7133 844.893 30.98 845.04 31.34C845.293 31.9 845.553 32.5267 845.82 33.22C846.1 33.9133 846.367 34.6133 846.62 35.32C846.887 36.0133 847.133 36.66 847.36 37.26H847.46C847.913 35.9933 848.367 34.7667 848.82 33.58C849.287 32.3933 849.687 31.3933 850.02 30.58C850.18 30.4867 850.38 30.4133 850.62 30.36C850.873 30.3067 851.133 30.28 851.4 30.28C851.867 30.28 852.247 30.3533 852.54 30.5C852.833 30.6467 853.013 30.8667 853.08 31.16C853.133 31.4 853.187 31.7933 853.24 32.34C853.307 32.8867 853.373 33.5267 853.44 34.26C853.507 34.98 853.573 35.74 853.64 36.54C853.707 37.3267 853.767 38.1 853.82 38.86C853.873 39.6067 853.92 40.2867 853.96 40.9C854.013 41.5 854.047 41.98 854.06 42.34C853.887 42.4467 853.707 42.52 853.52 42.56C853.333 42.6133 853.1 42.64 852.82 42.64C852.473 42.64 852.173 42.5733 851.92 42.44C851.68 42.3067 851.547 42.0467 851.52 41.66C851.453 40.5267 851.393 39.4333 851.34 38.38C851.287 37.3133 851.24 36.34 851.2 35.46C851.173 34.58 851.147 33.84 851.12 33.24H851.02C850.807 33.8667 850.507 34.6733 850.12 35.66C849.733 36.6333 849.253 37.8867 848.68 39.42ZM865.744 37.76C865.744 38.7867 865.544 39.68 865.144 40.44C864.744 41.1867 864.177 41.7667 863.444 42.18C862.724 42.58 861.87 42.78 860.884 42.78C859.897 42.78 859.037 42.58 858.304 42.18C857.57 41.7667 856.997 41.1867 856.584 40.44C856.184 39.6933 855.984 38.8 855.984 37.76C855.984 36.7333 856.19 35.8467 856.604 35.1C857.017 34.3533 857.59 33.78 858.324 33.38C859.057 32.9667 859.91 32.76 860.884 32.76C861.857 32.76 862.704 32.9667 863.424 33.38C864.157 33.78 864.724 34.36 865.124 35.12C865.537 35.8667 865.744 36.7467 865.744 37.76ZM860.884 34.72C860.15 34.72 859.57 34.9867 859.144 35.52C858.73 36.0533 858.524 36.8 858.524 37.76C858.524 38.7467 858.73 39.5067 859.144 40.04C859.557 40.56 860.137 40.82 860.884 40.82C861.617 40.82 862.19 40.5533 862.604 40.02C863.017 39.4867 863.224 38.7333 863.224 37.76C863.224 36.8133 863.017 36.0733 862.604 35.54C862.19 34.9933 861.617 34.72 860.884 34.72ZM876.59 36.32V38.26H874.13V36.42C874.13 35.8333 873.964 35.4067 873.63 35.14C873.297 34.86 872.85 34.72 872.29 34.72C871.877 34.72 871.504 34.7733 871.17 34.88C870.85 34.9733 870.564 35.0867 870.31 35.22V38.26H867.85V35.06C867.85 34.74 867.917 34.48 868.05 34.28C868.184 34.0667 868.384 33.8733 868.65 33.7C869.05 33.4333 869.564 33.2133 870.19 33.04C870.83 32.8533 871.537 32.76 872.31 32.76C873.657 32.76 874.704 33.06 875.45 33.66C876.21 34.26 876.59 35.1467 876.59 36.32ZM867.85 37.28H870.31V42.46C870.204 42.5 870.05 42.5333 869.85 42.56C869.65 42.6 869.43 42.62 869.19 42.62C868.737 42.62 868.397 42.54 868.17 42.38C867.957 42.2067 867.85 41.9067 867.85 41.48V37.28ZM874.13 37.28H876.59V42.46C876.497 42.5 876.344 42.5333 876.13 42.56C875.93 42.6 875.717 42.62 875.49 42.62C875.024 42.62 874.677 42.54 874.45 42.38C874.237 42.2067 874.13 41.9067 874.13 41.48V37.28ZM879.198 37.22H881.658V39.58C881.658 40.02 881.785 40.3333 882.038 40.52C882.305 40.7067 882.678 40.8 883.158 40.8C883.372 40.8 883.598 40.7733 883.838 40.72C884.092 40.6667 884.305 40.6 884.478 40.52C884.572 40.6267 884.658 40.7533 884.738 40.9C884.818 41.0467 884.858 41.2267 884.858 41.44C884.858 41.8267 884.672 42.1467 884.298 42.4C883.938 42.6533 883.372 42.78 882.598 42.78C881.545 42.78 880.712 42.5467 880.098 42.08C879.498 41.6 879.198 40.8267 879.198 39.76V37.22ZM880.698 35.18V33.24H884.618C884.672 33.3333 884.725 33.4667 884.778 33.64C884.845 33.8133 884.878 33.9933 884.878 34.18C884.878 34.5133 884.798 34.7667 884.638 34.94C884.478 35.1 884.272 35.18 884.018 35.18H880.698ZM881.658 37.76H879.198V30.56C879.305 30.52 879.458 30.48 879.658 30.44C879.872 30.4 880.092 30.38 880.318 30.38C880.785 30.38 881.125 30.4667 881.338 30.64C881.552 30.8 881.658 31.0933 881.658 31.52V37.76ZM890.633 40.92C891.033 40.92 891.393 40.88 891.713 40.8C892.033 40.72 892.266 40.6333 892.413 40.54V38.26L890.433 38.46C889.886 38.5 889.466 38.62 889.173 38.82C888.893 39.0067 888.753 39.2867 888.753 39.66C888.753 40.0467 888.906 40.3533 889.213 40.58C889.519 40.8067 889.993 40.92 890.633 40.92ZM890.533 32.76C891.839 32.76 892.879 33.04 893.653 33.6C894.426 34.1467 894.813 35.0133 894.813 36.2V40.8C894.813 41.12 894.733 41.3733 894.573 41.56C894.426 41.7467 894.233 41.9133 893.993 42.06C893.619 42.2733 893.146 42.4467 892.573 42.58C891.999 42.7267 891.353 42.8 890.633 42.8C889.299 42.8 888.253 42.5467 887.493 42.04C886.733 41.52 886.353 40.7533 886.353 39.74C886.353 38.8467 886.633 38.1667 887.193 37.7C887.766 37.22 888.593 36.9267 889.673 36.82L892.393 36.54V36.18C892.393 35.6467 892.206 35.26 891.833 35.02C891.473 34.78 890.959 34.66 890.293 34.66C889.773 34.66 889.266 34.7267 888.773 34.86C888.279 34.9933 887.839 35.1533 887.453 35.34C887.319 35.2333 887.199 35.0867 887.093 34.9C886.986 34.7133 886.933 34.52 886.933 34.32C886.933 33.84 887.199 33.4867 887.733 33.26C888.106 33.0867 888.539 32.96 889.033 32.88C889.539 32.8 890.039 32.76 890.533 32.76ZM906.083 36.32V38.26H903.623V36.42C903.623 35.8333 903.456 35.4067 903.123 35.14C902.789 34.86 902.343 34.72 901.783 34.72C901.369 34.72 900.996 34.7733 900.663 34.88C900.343 34.9733 900.056 35.0867 899.803 35.22V38.26H897.343V35.06C897.343 34.74 897.409 34.48 897.543 34.28C897.676 34.0667 897.876 33.8733 898.143 33.7C898.543 33.4333 899.056 33.2133 899.683 33.04C900.323 32.8533 901.029 32.76 901.803 32.76C903.149 32.76 904.196 33.06 904.943 33.66C905.703 34.26 906.083 35.1467 906.083 36.32ZM897.343 37.28H899.803V42.46C899.696 42.5 899.543 42.5333 899.343 42.56C899.143 42.6 898.923 42.62 898.683 42.62C898.229 42.62 897.889 42.54 897.663 42.38C897.449 42.2067 897.343 41.9067 897.343 41.48V37.28ZM903.623 37.28H906.083V42.46C905.989 42.5 905.836 42.5333 905.623 42.56C905.423 42.6 905.209 42.62 904.983 42.62C904.516 42.62 904.169 42.54 903.943 42.38C903.729 42.2067 903.623 41.9067 903.623 41.48V37.28ZM908.691 37.22H911.151V39.58C911.151 40.02 911.277 40.3333 911.531 40.52C911.797 40.7067 912.171 40.8 912.651 40.8C912.864 40.8 913.091 40.7733 913.331 40.72C913.584 40.6667 913.797 40.6 913.971 40.52C914.064 40.6267 914.151 40.7533 914.231 40.9C914.311 41.0467 914.351 41.2267 914.351 41.44C914.351 41.8267 914.164 42.1467 913.791 42.4C913.431 42.6533 912.864 42.78 912.091 42.78C911.037 42.78 910.204 42.5467 909.591 42.08C908.991 41.6 908.691 40.8267 908.691 39.76V37.22ZM910.191 35.18V33.24H914.111C914.164 33.3333 914.217 33.4667 914.271 33.64C914.337 33.8133 914.371 33.9933 914.371 34.18C914.371 34.5133 914.291 34.7667 914.131 34.94C913.971 35.1 913.764 35.18 913.511 35.18H910.191ZM911.151 37.76H908.691V30.56C908.797 30.52 908.951 30.48 909.151 30.44C909.364 30.4 909.584 30.38 909.811 30.38C910.277 30.38 910.617 30.4667 910.831 30.64C911.044 30.8 911.151 31.0933 911.151 31.52V37.76Z" fill="black"/>
<path d="M1021.56 36.24H1023.22C1024.01 36.24 1024.63 36.0667 1025.1 35.72C1025.57 35.3733 1025.8 34.86 1025.8 34.18C1025.8 33.5133 1025.57 33.0067 1025.1 32.66C1024.63 32.3133 1023.95 32.14 1023.04 32.14C1022.77 32.14 1022.51 32.1533 1022.26 32.18C1022.01 32.1933 1021.77 32.22 1021.56 32.26V36.24ZM1023.4 38.22H1019.04V31.36C1019.04 31.12 1019.11 30.9333 1019.24 30.8C1019.39 30.6667 1019.57 30.56 1019.8 30.48C1020.23 30.3467 1020.73 30.2467 1021.3 30.18C1021.89 30.1133 1022.48 30.08 1023.08 30.08C1024.84 30.08 1026.15 30.4467 1027.02 31.18C1027.9 31.9 1028.34 32.8933 1028.34 34.16C1028.34 34.96 1028.13 35.6667 1027.72 36.28C1027.32 36.8933 1026.75 37.3733 1026.02 37.72C1025.29 38.0533 1024.41 38.22 1023.4 38.22ZM1023.06 37.58L1025.22 36.96C1025.55 37.4 1025.89 37.8467 1026.24 38.3C1026.6 38.74 1026.94 39.1733 1027.26 39.6C1027.59 40.0133 1027.89 40.3933 1028.14 40.74C1028.41 41.0867 1028.61 41.3733 1028.76 41.6C1028.67 41.9333 1028.49 42.1933 1028.22 42.38C1027.97 42.5667 1027.69 42.66 1027.38 42.66C1026.98 42.66 1026.67 42.5733 1026.44 42.4C1026.23 42.2133 1026.02 41.9667 1025.82 41.66L1023.06 37.58ZM1019.04 37.34H1021.58V42.46C1021.47 42.5 1021.31 42.5333 1021.08 42.56C1020.87 42.6 1020.64 42.62 1020.4 42.62C1019.92 42.62 1019.57 42.5333 1019.36 42.36C1019.15 42.1733 1019.04 41.8667 1019.04 41.44V37.34ZM1031.6 39.02L1031.5 37.3L1036.86 36.5C1036.82 35.9933 1036.62 35.5533 1036.28 35.18C1035.93 34.8067 1035.42 34.62 1034.76 34.62C1034.08 34.62 1033.51 34.86 1033.06 35.34C1032.6 35.8067 1032.37 36.48 1032.36 37.36L1032.42 38.4C1032.54 39.2533 1032.86 39.88 1033.4 40.28C1033.94 40.68 1034.63 40.88 1035.46 40.88C1036.02 40.88 1036.54 40.8 1037.02 40.64C1037.5 40.4667 1037.88 40.28 1038.16 40.08C1038.34 40.2 1038.49 40.3533 1038.6 40.54C1038.72 40.7133 1038.78 40.9067 1038.78 41.12C1038.78 41.4667 1038.62 41.7667 1038.32 42.02C1038.01 42.26 1037.6 42.4467 1037.08 42.58C1036.56 42.7133 1035.96 42.78 1035.3 42.78C1034.27 42.78 1033.36 42.5933 1032.56 42.22C1031.77 41.8333 1031.15 41.26 1030.7 40.5C1030.26 39.74 1030.04 38.7933 1030.04 37.66C1030.04 36.8467 1030.16 36.1333 1030.42 35.52C1030.67 34.9067 1031.01 34.4 1031.44 34C1031.88 33.5867 1032.38 33.28 1032.96 33.08C1033.53 32.8667 1034.13 32.76 1034.76 32.76C1035.64 32.76 1036.4 32.94 1037.06 33.3C1037.72 33.6467 1038.24 34.1333 1038.62 34.76C1039 35.3867 1039.2 36.1067 1039.2 36.92C1039.2 37.2933 1039.1 37.5733 1038.9 37.76C1038.71 37.9333 1038.44 38.04 1038.1 38.08L1031.6 39.02ZM1049.44 35.96V38.24H1046.98V36.24C1046.98 35.72 1046.82 35.34 1046.5 35.1C1046.2 34.8467 1045.8 34.72 1045.32 34.72C1044.98 34.72 1044.66 34.7733 1044.36 34.88C1044.08 34.9733 1043.84 35.0867 1043.64 35.22V38.24H1041.18V35.06C1041.18 34.74 1041.25 34.48 1041.38 34.28C1041.52 34.0667 1041.72 33.8733 1041.98 33.7C1042.4 33.42 1042.9 33.1933 1043.5 33.02C1044.12 32.8467 1044.75 32.76 1045.4 32.76C1046.06 32.76 1046.66 32.86 1047.2 33.06C1047.75 33.26 1048.2 33.5533 1048.54 33.94C1048.64 34.02 1048.72 34.1 1048.8 34.18C1048.88 34.26 1048.95 34.3533 1049 34.46C1049.12 34.66 1049.22 34.8933 1049.3 35.16C1049.4 35.4133 1049.44 35.68 1049.44 35.96ZM1055.22 36.16V38.24H1052.76V36.24C1052.76 35.72 1052.62 35.34 1052.32 35.1C1052.03 34.8467 1051.64 34.72 1051.14 34.72C1050.78 34.72 1050.43 34.7933 1050.08 34.94C1049.75 35.0867 1049.46 35.28 1049.22 35.52L1047.98 34.02C1048.4 33.6733 1048.88 33.38 1049.44 33.14C1050 32.8867 1050.67 32.76 1051.44 32.76C1052.15 32.76 1052.79 32.8733 1053.36 33.1C1053.94 33.3267 1054.39 33.6933 1054.72 34.2C1055.06 34.7067 1055.22 35.36 1055.22 36.16ZM1041.18 37.28H1043.64V42.46C1043.54 42.5 1043.38 42.5333 1043.18 42.56C1042.98 42.6 1042.76 42.62 1042.52 42.62C1042.07 42.62 1041.73 42.54 1041.5 42.38C1041.29 42.2067 1041.18 41.9067 1041.18 41.48V37.28ZM1046.98 37.28H1049.44V42.46C1049.34 42.5 1049.18 42.5333 1048.96 42.56C1048.76 42.6 1048.55 42.62 1048.32 42.62C1047.86 42.62 1047.52 42.54 1047.3 42.38C1047.09 42.2067 1046.98 41.9067 1046.98 41.48V37.28ZM1052.76 37.28H1055.22V42.46C1055.13 42.5 1054.98 42.5333 1054.76 42.56C1054.56 42.6 1054.35 42.62 1054.12 42.62C1053.66 42.62 1053.31 42.54 1053.08 42.38C1052.87 42.2067 1052.76 41.9067 1052.76 41.48V37.28ZM1057.68 30.22C1057.68 29.8333 1057.82 29.5067 1058.08 29.24C1058.36 28.9733 1058.71 28.84 1059.12 28.84C1059.55 28.84 1059.89 28.9733 1060.14 29.24C1060.41 29.5067 1060.54 29.8333 1060.54 30.22C1060.54 30.5933 1060.41 30.92 1060.14 31.2C1059.89 31.4667 1059.55 31.6 1059.12 31.6C1058.71 31.6 1058.36 31.4667 1058.08 31.2C1057.82 30.92 1057.68 30.5933 1057.68 30.22ZM1057.88 37.22H1060.36V42.46C1060.26 42.5 1060.1 42.5333 1059.9 42.56C1059.7 42.6 1059.48 42.62 1059.24 42.62C1058.79 42.62 1058.45 42.54 1058.22 42.38C1058 42.2067 1057.88 41.9067 1057.88 41.48V37.22ZM1060.36 38.48H1057.88V33.12C1057.99 33.08 1058.14 33.0467 1058.34 33.02C1058.56 32.98 1058.78 32.96 1059.02 32.96C1059.49 32.96 1059.83 33.0467 1060.04 33.22C1060.26 33.38 1060.36 33.68 1060.36 34.12V38.48ZM1070.34 39.82C1070.34 40.7533 1069.99 41.4867 1069.3 42.02C1068.6 42.54 1067.6 42.8 1066.28 42.8C1065.21 42.8 1064.34 42.64 1063.66 42.32C1062.98 42 1062.64 41.5733 1062.64 41.04C1062.64 40.8133 1062.69 40.6067 1062.8 40.42C1062.9 40.22 1063.04 40.0667 1063.22 39.96C1063.59 40.2 1064.02 40.4133 1064.52 40.6C1065.01 40.7867 1065.57 40.88 1066.2 40.88C1067.33 40.88 1067.9 40.5333 1067.9 39.84C1067.9 39.5467 1067.8 39.3133 1067.6 39.14C1067.4 38.9533 1067.09 38.82 1066.68 38.74L1065.54 38.44C1064.56 38.2267 1063.84 37.8933 1063.36 37.44C1062.89 36.9867 1062.66 36.38 1062.66 35.62C1062.66 34.78 1063 34.0933 1063.7 33.56C1064.39 33.0133 1065.35 32.74 1066.58 32.74C1067.22 32.74 1067.79 32.8067 1068.3 32.94C1068.8 33.06 1069.2 33.24 1069.48 33.48C1069.77 33.72 1069.92 34.0067 1069.92 34.34C1069.92 34.5667 1069.86 34.7733 1069.76 34.96C1069.66 35.1333 1069.54 35.2667 1069.38 35.36C1069.22 35.2667 1069 35.1667 1068.72 35.06C1068.45 34.94 1068.14 34.8467 1067.8 34.78C1067.45 34.7 1067.1 34.66 1066.76 34.66C1066.24 34.66 1065.82 34.7467 1065.52 34.92C1065.22 35.08 1065.08 35.3133 1065.08 35.62C1065.08 35.8467 1065.16 36.04 1065.34 36.2C1065.51 36.36 1065.8 36.4867 1066.22 36.58L1067.24 36.82C1068.32 37.0733 1069.1 37.4467 1069.6 37.94C1070.09 38.42 1070.34 39.0467 1070.34 39.82ZM1073.57 39.02L1073.47 37.3L1078.83 36.5C1078.79 35.9933 1078.6 35.5533 1078.25 35.18C1077.9 34.8067 1077.4 34.62 1076.73 34.62C1076.05 34.62 1075.48 34.86 1075.03 35.34C1074.58 35.8067 1074.34 36.48 1074.33 37.36L1074.39 38.4C1074.51 39.2533 1074.84 39.88 1075.37 40.28C1075.92 40.68 1076.6 40.88 1077.43 40.88C1077.99 40.88 1078.51 40.8 1078.99 40.64C1079.47 40.4667 1079.85 40.28 1080.13 40.08C1080.32 40.2 1080.46 40.3533 1080.57 40.54C1080.69 40.7133 1080.75 40.9067 1080.75 41.12C1080.75 41.4667 1080.6 41.7667 1080.29 42.02C1079.98 42.26 1079.57 42.4467 1079.05 42.58C1078.53 42.7133 1077.94 42.78 1077.27 42.78C1076.24 42.78 1075.33 42.5933 1074.53 42.22C1073.74 41.8333 1073.12 41.26 1072.67 40.5C1072.23 39.74 1072.01 38.7933 1072.01 37.66C1072.01 36.8467 1072.14 36.1333 1072.39 35.52C1072.64 34.9067 1072.98 34.4 1073.41 34C1073.85 33.5867 1074.36 33.28 1074.93 33.08C1075.5 32.8667 1076.1 32.76 1076.73 32.76C1077.61 32.76 1078.38 32.94 1079.03 33.3C1079.7 33.6467 1080.22 34.1333 1080.59 34.76C1080.98 35.3867 1081.17 36.1067 1081.17 36.92C1081.17 37.2933 1081.07 37.5733 1080.87 37.76C1080.68 37.9333 1080.42 38.04 1080.07 38.08L1073.57 39.02ZM1092.74 33.18C1092.74 34.1 1092.45 34.8333 1091.88 35.38C1091.31 35.9133 1090.59 36.18 1089.72 36.18C1088.85 36.18 1088.13 35.9133 1087.56 35.38C1086.99 34.8333 1086.7 34.1 1086.7 33.18C1086.7 32.2467 1086.99 31.5133 1087.56 30.98C1088.13 30.4467 1088.85 30.18 1089.72 30.18C1090.59 30.18 1091.31 30.4467 1091.88 30.98C1092.45 31.5133 1092.74 32.2467 1092.74 33.18ZM1088.6 33.18C1088.6 33.6333 1088.71 33.9867 1088.92 34.24C1089.13 34.48 1089.4 34.6 1089.72 34.6C1090.04 34.6 1090.31 34.48 1090.52 34.24C1090.73 33.9867 1090.84 33.6333 1090.84 33.18C1090.84 32.7133 1090.73 32.3667 1090.52 32.14C1090.31 31.9 1090.04 31.78 1089.72 31.78C1089.4 31.78 1089.13 31.9 1088.92 32.14C1088.71 32.3667 1088.6 32.7133 1088.6 33.18ZM1089.7 40.72L1096.84 30.18C1097.23 30.22 1097.55 30.3133 1097.82 30.46C1098.09 30.6067 1098.22 30.8067 1098.22 31.06C1098.22 31.22 1098.18 31.3933 1098.1 31.58C1098.02 31.7533 1097.91 31.9333 1097.78 32.12L1090.64 42.64C1090.24 42.6133 1089.91 42.52 1089.64 42.36C1089.39 42.1867 1089.26 41.98 1089.26 41.74C1089.26 41.5933 1089.3 41.4333 1089.38 41.26C1089.46 41.0867 1089.57 40.9067 1089.7 40.72ZM1100.74 39.64C1100.74 40.5733 1100.45 41.3133 1099.88 41.86C1099.32 42.3933 1098.61 42.66 1097.74 42.66C1096.89 42.66 1096.17 42.3933 1095.58 41.86C1095.01 41.3133 1094.72 40.5733 1094.72 39.64C1094.72 38.72 1095.01 37.9933 1095.58 37.46C1096.17 36.9267 1096.89 36.66 1097.74 36.66C1098.61 36.66 1099.32 36.9267 1099.88 37.46C1100.45 37.9933 1100.74 38.72 1100.74 39.64ZM1096.62 39.64C1096.62 40.12 1096.73 40.48 1096.94 40.72C1097.15 40.96 1097.42 41.08 1097.74 41.08C1098.06 41.08 1098.32 40.96 1098.52 40.72C1098.73 40.48 1098.84 40.12 1098.84 39.64C1098.84 39.2 1098.73 38.86 1098.52 38.62C1098.32 38.38 1098.06 38.26 1097.74 38.26C1097.42 38.26 1097.15 38.38 1096.94 38.62C1096.73 38.86 1096.62 39.2 1096.62 39.64Z" fill="black"/>
<path d="M1210.68 32.42H1210.58C1210.41 32.9 1210.21 33.4467 1210 34.06C1209.8 34.6733 1209.59 35.3133 1209.36 35.98C1209.13 36.6333 1208.92 37.2667 1208.72 37.88L1208.44 39.12C1208.36 39.3733 1208.27 39.6533 1208.18 39.96C1208.1 40.2667 1208.01 40.58 1207.9 40.9C1207.81 41.2067 1207.71 41.5 1207.62 41.78C1207.54 42.06 1207.47 42.3067 1207.4 42.52C1207.27 42.56 1207.12 42.5933 1206.96 42.62C1206.81 42.66 1206.63 42.68 1206.42 42.68C1205.99 42.68 1205.65 42.6 1205.4 42.44C1205.16 42.2667 1205.04 42.0133 1205.04 41.68C1205.04 41.5333 1205.06 41.38 1205.1 41.22C1205.15 41.06 1205.21 40.88 1205.26 40.68C1205.39 40.24 1205.57 39.6933 1205.8 39.04C1206.03 38.3733 1206.27 37.6533 1206.54 36.88C1206.81 36.1067 1207.08 35.3267 1207.36 34.54C1207.65 33.7533 1207.93 33.02 1208.18 32.34C1208.43 31.6467 1208.65 31.0667 1208.84 30.6C1209 30.5067 1209.25 30.42 1209.58 30.34C1209.91 30.26 1210.25 30.22 1210.6 30.22C1211.05 30.22 1211.47 30.2867 1211.84 30.42C1212.23 30.5533 1212.47 30.7667 1212.56 31.06C1212.84 31.7933 1213.14 32.6333 1213.46 33.58C1213.78 34.5267 1214.11 35.5133 1214.44 36.54C1214.77 37.5667 1215.09 38.5667 1215.4 39.54C1215.71 40.5133 1215.98 41.3933 1216.22 42.18C1216.09 42.3267 1215.9 42.4467 1215.66 42.54C1215.43 42.6333 1215.17 42.68 1214.86 42.68C1214.42 42.68 1214.1 42.6 1213.9 42.44C1213.71 42.2667 1213.57 42.0067 1213.46 41.66L1212.64 39.04L1212.38 37.76C1212.17 37.08 1211.95 36.4133 1211.74 35.76C1211.54 35.0933 1211.35 34.4733 1211.16 33.9C1210.97 33.3267 1210.81 32.8333 1210.68 32.42ZM1207.32 39.6L1208.26 37.62H1213.26L1213.64 39.6H1207.32ZM1222.77 34.74C1221.97 34.74 1221.3 35 1220.75 35.52C1220.22 36.04 1219.95 36.8 1219.95 37.8C1219.95 38.7867 1220.21 39.5333 1220.73 40.04C1221.25 40.5467 1221.92 40.8 1222.75 40.8C1223.24 40.8 1223.66 40.74 1223.99 40.62C1224.34 40.4867 1224.64 40.3467 1224.89 40.2C1225.09 40.32 1225.24 40.4667 1225.35 40.64C1225.47 40.8 1225.53 41 1225.53 41.24C1225.53 41.6933 1225.26 42.0667 1224.71 42.36C1224.16 42.64 1223.44 42.78 1222.55 42.78C1221.54 42.78 1220.64 42.6 1219.87 42.24C1219.11 41.8667 1218.51 41.3067 1218.07 40.56C1217.64 39.8133 1217.43 38.8933 1217.43 37.8C1217.43 36.6667 1217.66 35.7267 1218.11 34.98C1218.58 34.2333 1219.19 33.68 1219.95 33.32C1220.72 32.9467 1221.57 32.76 1222.49 32.76C1223.37 32.76 1224.08 32.9133 1224.61 33.22C1225.14 33.5267 1225.41 33.9067 1225.41 34.36C1225.41 34.56 1225.36 34.7467 1225.25 34.92C1225.14 35.0933 1225.02 35.2333 1224.87 35.34C1224.6 35.18 1224.3 35.04 1223.97 34.92C1223.64 34.8 1223.24 34.74 1222.77 34.74ZM1227.6 37.22H1230.06V39.58C1230.06 40.02 1230.18 40.3333 1230.44 40.52C1230.7 40.7067 1231.08 40.8 1231.56 40.8C1231.77 40.8 1232 40.7733 1232.24 40.72C1232.49 40.6667 1232.7 40.6 1232.88 40.52C1232.97 40.6267 1233.06 40.7533 1233.14 40.9C1233.22 41.0467 1233.26 41.2267 1233.26 41.44C1233.26 41.8267 1233.07 42.1467 1232.7 42.4C1232.34 42.6533 1231.77 42.78 1231 42.78C1229.94 42.78 1229.11 42.5467 1228.5 42.08C1227.9 41.6 1227.6 40.8267 1227.6 39.76V37.22ZM1229.1 35.18V33.24H1233.02C1233.07 33.3333 1233.12 33.4667 1233.18 33.64C1233.24 33.8133 1233.28 33.9933 1233.28 34.18C1233.28 34.5133 1233.2 34.7667 1233.04 34.94C1232.88 35.1 1232.67 35.18 1232.42 35.18H1229.1ZM1230.06 37.76H1227.6V30.56C1227.7 30.52 1227.86 30.48 1228.06 30.44C1228.27 30.4 1228.49 30.38 1228.72 30.38C1229.18 30.38 1229.52 30.4667 1229.74 30.64C1229.95 30.8 1230.06 31.0933 1230.06 31.52V37.76ZM1235.13 30.22C1235.13 29.8333 1235.27 29.5067 1235.53 29.24C1235.81 28.9733 1236.16 28.84 1236.57 28.84C1237 28.84 1237.34 28.9733 1237.59 29.24C1237.86 29.5067 1237.99 29.8333 1237.99 30.22C1237.99 30.5933 1237.86 30.92 1237.59 31.2C1237.34 31.4667 1237 31.6 1236.57 31.6C1236.16 31.6 1235.81 31.4667 1235.53 31.2C1235.27 30.92 1235.13 30.5933 1235.13 30.22ZM1235.33 37.22H1237.81V42.46C1237.71 42.5 1237.55 42.5333 1237.35 42.56C1237.15 42.6 1236.93 42.62 1236.69 42.62C1236.24 42.62 1235.9 42.54 1235.67 42.38C1235.45 42.2067 1235.33 41.9067 1235.33 41.48V37.22ZM1237.81 38.48H1235.33V33.12C1235.44 33.08 1235.59 33.0467 1235.79 33.02C1236.01 32.98 1236.23 32.96 1236.47 32.96C1236.94 32.96 1237.28 33.0467 1237.49 33.22C1237.71 33.38 1237.81 33.68 1237.81 34.12V38.48ZM1249.75 37.76C1249.75 38.7867 1249.55 39.68 1249.15 40.44C1248.75 41.1867 1248.18 41.7667 1247.45 42.18C1246.73 42.58 1245.87 42.78 1244.89 42.78C1243.9 42.78 1243.04 42.58 1242.31 42.18C1241.57 41.7667 1241 41.1867 1240.59 40.44C1240.19 39.6933 1239.99 38.8 1239.99 37.76C1239.99 36.7333 1240.19 35.8467 1240.61 35.1C1241.02 34.3533 1241.59 33.78 1242.33 33.38C1243.06 32.9667 1243.91 32.76 1244.89 32.76C1245.86 32.76 1246.71 32.9667 1247.43 33.38C1248.16 33.78 1248.73 34.36 1249.13 35.12C1249.54 35.8667 1249.75 36.7467 1249.75 37.76ZM1244.89 34.72C1244.15 34.72 1243.57 34.9867 1243.15 35.52C1242.73 36.0533 1242.53 36.8 1242.53 37.76C1242.53 38.7467 1242.73 39.5067 1243.15 40.04C1243.56 40.56 1244.14 40.82 1244.89 40.82C1245.62 40.82 1246.19 40.5533 1246.61 40.02C1247.02 39.4867 1247.23 38.7333 1247.23 37.76C1247.23 36.8133 1247.02 36.0733 1246.61 35.54C1246.19 34.9933 1245.62 34.72 1244.89 34.72ZM1260.59 36.32V38.26H1258.13V36.42C1258.13 35.8333 1257.97 35.4067 1257.63 35.14C1257.3 34.86 1256.85 34.72 1256.29 34.72C1255.88 34.72 1255.51 34.7733 1255.17 34.88C1254.85 34.9733 1254.57 35.0867 1254.31 35.22V38.26H1251.85V35.06C1251.85 34.74 1251.92 34.48 1252.05 34.28C1252.19 34.0667 1252.39 33.8733 1252.65 33.7C1253.05 33.4333 1253.57 33.2133 1254.19 33.04C1254.83 32.8533 1255.54 32.76 1256.31 32.76C1257.66 32.76 1258.71 33.06 1259.45 33.66C1260.21 34.26 1260.59 35.1467 1260.59 36.32ZM1251.85 37.28H1254.31V42.46C1254.21 42.5 1254.05 42.5333 1253.85 42.56C1253.65 42.6 1253.43 42.62 1253.19 42.62C1252.74 42.62 1252.4 42.54 1252.17 42.38C1251.96 42.2067 1251.85 41.9067 1251.85 41.48V37.28ZM1258.13 37.28H1260.59V42.46C1260.5 42.5 1260.35 42.5333 1260.13 42.56C1259.93 42.6 1259.72 42.62 1259.49 42.62C1259.03 42.62 1258.68 42.54 1258.45 42.38C1258.24 42.2067 1258.13 41.9067 1258.13 41.48V37.28Z" fill="black"/>
<rect width="1301" height="73" transform="translate(32 74)" fill="white"/>
<path d="M1232 94C1228.29 94 1224.73 95.475 1222.1 98.1005C1219.47 100.726 1218 104.287 1218 108C1218 111.713 1219.47 115.274 1222.1 117.899C1224.73 120.525 1228.29 122 1232 122C1235.71 122 1239.27 120.525 1241.9 117.899C1244.53 115.274 1246 111.713 1246 108C1246 104.287 1244.53 100.726 1241.9 98.1005C1239.27 95.475 1235.71 94 1232 94V94ZM1239.98 113.102L1237.1 115.983L1232 110.882L1226.9 115.982L1224.02 113.1L1229.12 108L1224.02 102.898L1226.9 100.018L1232 105.118L1237.1 100.017L1239.98 102.898L1234.88 108L1239.98 113.102Z" fill="#BE3846"/>
<path d="M291.157 104.34L290.637 105.92L290.377 109.14C290.604 109.047 290.884 108.96 291.217 108.88C291.564 108.787 291.951 108.74 292.377 108.74C293.244 108.74 293.984 108.907 294.597 109.24C295.211 109.56 295.684 110.013 296.017 110.6C296.364 111.187 296.537 111.88 296.537 112.68C296.537 113.44 296.364 114.133 296.017 114.76C295.671 115.373 295.144 115.867 294.437 116.24C293.731 116.6 292.844 116.78 291.777 116.78C290.991 116.78 290.297 116.693 289.697 116.52C289.111 116.36 288.651 116.14 288.317 115.86C287.984 115.567 287.817 115.24 287.817 114.88C287.817 114.587 287.904 114.34 288.077 114.14C288.264 113.927 288.457 113.773 288.657 113.68C288.991 113.947 289.397 114.2 289.877 114.44C290.357 114.68 290.951 114.8 291.657 114.8C292.444 114.8 293.037 114.6 293.437 114.2C293.837 113.8 294.037 113.3 294.037 112.7C294.037 112.087 293.837 111.6 293.437 111.24C293.051 110.88 292.504 110.7 291.797 110.7C291.384 110.7 291.017 110.76 290.697 110.88C290.377 110.987 290.057 111.127 289.737 111.3C289.244 111.273 288.844 111.133 288.537 110.88C288.244 110.613 288.097 110.24 288.097 109.76C288.097 109.68 288.097 109.587 288.097 109.48C288.111 109.36 288.124 109.227 288.137 109.08L288.417 105.72C288.457 105.293 288.591 104.96 288.817 104.72C289.044 104.467 289.371 104.34 289.797 104.34H291.157ZM290.057 106.36V104.34H295.737C295.804 104.433 295.864 104.567 295.917 104.74C295.971 104.913 295.997 105.1 295.997 105.3C295.997 105.647 295.917 105.913 295.757 106.1C295.611 106.273 295.391 106.36 295.097 106.36H290.057Z" fill="black"/>
<path d="M682.125 105.84C682.125 105.493 682.278 105.187 682.585 104.92C682.892 104.653 683.305 104.447 683.825 104.3C684.358 104.153 684.965 104.08 685.645 104.08C686.592 104.08 687.392 104.233 688.045 104.54C688.712 104.833 689.218 105.253 689.565 105.8C689.912 106.333 690.085 106.953 690.085 107.66C690.085 108.38 689.885 109.087 689.485 109.78C689.085 110.46 688.432 111.187 687.525 111.96L684.585 114.54H689.965C690.032 114.633 690.092 114.767 690.145 114.94C690.212 115.113 690.245 115.3 690.245 115.5C690.245 115.847 690.158 116.1 689.985 116.26C689.825 116.42 689.618 116.5 689.365 116.5H682.365C682.152 116.353 681.985 116.167 681.865 115.94C681.758 115.713 681.705 115.46 681.705 115.18C681.705 114.847 681.772 114.567 681.905 114.34C682.038 114.1 682.198 113.893 682.385 113.72L685.565 110.8C686.338 110.12 686.865 109.56 687.145 109.12C687.425 108.667 687.565 108.22 687.565 107.78C687.565 107.273 687.378 106.867 687.005 106.56C686.645 106.24 686.112 106.08 685.405 106.08C684.845 106.08 684.345 106.173 683.905 106.36C683.465 106.547 683.098 106.74 682.805 106.94C682.618 106.833 682.458 106.687 682.325 106.5C682.192 106.313 682.125 106.093 682.125 105.84ZM699.64 110.42C699.64 109.42 699.527 108.6 699.3 107.96C699.087 107.32 698.787 106.847 698.4 106.54C698.027 106.233 697.587 106.08 697.08 106.08C696.6 106.08 696.167 106.24 695.78 106.56C695.393 106.867 695.093 107.34 694.88 107.98C694.667 108.62 694.56 109.433 694.56 110.42C694.56 111.86 694.78 112.947 695.22 113.68C695.66 114.413 696.28 114.78 697.08 114.78C697.893 114.78 698.52 114.413 698.96 113.68C699.413 112.947 699.64 111.86 699.64 110.42ZM697.1 116.78C696.1 116.78 695.22 116.547 694.46 116.08C693.713 115.613 693.127 114.913 692.7 113.98C692.273 113.033 692.06 111.847 692.06 110.42C692.06 108.967 692.287 107.773 692.74 106.84C693.193 105.907 693.8 105.213 694.56 104.76C695.32 104.307 696.167 104.08 697.1 104.08C698.02 104.08 698.86 104.307 699.62 104.76C700.393 105.213 701.007 105.913 701.46 106.86C701.913 107.793 702.14 108.98 702.14 110.42C702.14 111.833 701.927 113.013 701.5 113.96C701.073 114.893 700.48 115.6 699.72 116.08C698.96 116.547 698.087 116.78 697.1 116.78Z" fill="black"/>
<path d="M882.145 112.92H879.665V106.7L877.385 107.62C877.198 107.527 877.025 107.387 876.865 107.2C876.718 107.013 876.645 106.767 876.645 106.46C876.645 105.873 876.998 105.453 877.705 105.2L880.245 104.2H880.805C881.218 104.2 881.545 104.32 881.785 104.56C882.025 104.8 882.145 105.133 882.145 105.56V112.92ZM879.665 111.22H882.145V116.5C882.038 116.54 881.885 116.573 881.685 116.6C881.485 116.64 881.265 116.66 881.025 116.66C880.558 116.66 880.211 116.573 879.985 116.4C879.771 116.227 879.665 115.927 879.665 115.5V111.22ZM892.345 110.42C892.345 109.42 892.232 108.6 892.005 107.96C891.792 107.32 891.492 106.847 891.105 106.54C890.732 106.233 890.292 106.08 889.785 106.08C889.305 106.08 888.872 106.24 888.485 106.56C888.099 106.867 887.799 107.34 887.585 107.98C887.372 108.62 887.265 109.433 887.265 110.42C887.265 111.86 887.485 112.947 887.925 113.68C888.365 114.413 888.985 114.78 889.785 114.78C890.599 114.78 891.225 114.413 891.665 113.68C892.119 112.947 892.345 111.86 892.345 110.42ZM889.805 116.78C888.805 116.78 887.925 116.547 887.165 116.08C886.419 115.613 885.832 114.913 885.405 113.98C884.979 113.033 884.765 111.847 884.765 110.42C884.765 108.967 884.992 107.773 885.445 106.84C885.899 105.907 886.505 105.213 887.265 104.76C888.025 104.307 888.872 104.08 889.805 104.08C890.725 104.08 891.565 104.307 892.325 104.76C893.099 105.213 893.712 105.913 894.165 106.86C894.619 107.793 894.845 108.98 894.845 110.42C894.845 111.833 894.632 113.013 894.205 113.96C893.779 114.893 893.185 115.6 892.425 116.08C891.665 116.547 890.792 116.78 889.805 116.78ZM904.22 110.42C904.22 109.42 904.107 108.6 903.88 107.96C903.667 107.32 903.367 106.847 902.98 106.54C902.607 106.233 902.167 106.08 901.66 106.08C901.18 106.08 900.747 106.24 900.36 106.56C899.974 106.867 899.674 107.34 899.46 107.98C899.247 108.62 899.14 109.433 899.14 110.42C899.14 111.86 899.36 112.947 899.8 113.68C900.24 114.413 900.86 114.78 901.66 114.78C902.474 114.78 903.1 114.413 903.54 113.68C903.994 112.947 904.22 111.86 904.22 110.42ZM901.68 116.78C900.68 116.78 899.8 116.547 899.04 116.08C898.294 115.613 897.707 114.913 897.28 113.98C896.854 113.033 896.64 111.847 896.64 110.42C896.64 108.967 896.867 107.773 897.32 106.84C897.774 105.907 898.38 105.213 899.14 104.76C899.9 104.307 900.747 104.08 901.68 104.08C902.6 104.08 903.44 104.307 904.2 104.76C904.974 105.213 905.587 105.913 906.04 106.86C906.494 107.793 906.72 108.98 906.72 110.42C906.72 111.833 906.507 113.013 906.08 113.96C905.654 114.893 905.06 115.6 904.3 116.08C903.54 116.547 902.667 116.78 901.68 116.78Z" fill="black"/>
<path d="M1065.04 110.42C1065.04 109.42 1064.93 108.6 1064.7 107.96C1064.49 107.32 1064.19 106.847 1063.8 106.54C1063.43 106.233 1062.99 106.08 1062.48 106.08C1062 106.08 1061.57 106.24 1061.18 106.56C1060.8 106.867 1060.5 107.34 1060.28 107.98C1060.07 108.62 1059.96 109.433 1059.96 110.42C1059.96 111.86 1060.18 112.947 1060.62 113.68C1061.06 114.413 1061.68 114.78 1062.48 114.78C1063.3 114.78 1063.92 114.413 1064.36 113.68C1064.82 112.947 1065.04 111.86 1065.04 110.42ZM1062.5 116.78C1061.5 116.78 1060.62 116.547 1059.86 116.08C1059.12 115.613 1058.53 114.913 1058.1 113.98C1057.68 113.033 1057.46 111.847 1057.46 110.42C1057.46 108.967 1057.69 107.773 1058.14 106.84C1058.6 105.907 1059.2 105.213 1059.96 104.76C1060.72 104.307 1061.57 104.08 1062.5 104.08C1063.42 104.08 1064.26 104.307 1065.02 104.76C1065.8 105.213 1066.41 105.913 1066.86 106.86C1067.32 107.793 1067.54 108.98 1067.54 110.42C1067.54 111.833 1067.33 113.013 1066.9 113.96C1066.48 114.893 1065.88 115.6 1065.12 116.08C1064.36 116.547 1063.49 116.78 1062.5 116.78Z" fill="black"/>
<path d="M125.96 103.25C124.865 103.229 123.969 104.146 123.969 105.242V109.5H123.578V100.896C123.578 99.8008 122.682 98.8837 121.587 98.9046C120.526 98.925 119.672 99.7915 119.672 100.857V109.5H119.281V98.9917C119.281 97.8965 118.385 96.9794 117.29 97.0004C116.229 97.0207 115.375 97.8872 115.375 98.9531V109.5H114.984V100.945C114.984 99.8496 114.088 98.9325 112.993 98.9535C111.932 98.9738 111.078 99.8403 111.078 100.906V112.429L109.533 110.304C108.898 109.432 107.677 109.239 106.804 109.874C105.932 110.508 105.739 111.73 106.374 112.602L112.507 121.035C112.724 121.334 113.009 121.577 113.338 121.745C113.668 121.913 114.032 122 114.402 122H124.05C125.138 122 126.082 121.252 126.331 120.193L127.626 114.692C127.791 113.988 127.875 113.268 127.875 112.545V105.203C127.875 104.137 127.021 103.271 125.96 103.25V103.25Z" fill="#7261E9"/>
<rect width="1301" height="73" transform="translate(32 148)" fill="white"/>
<path d="M1232 168C1228.29 168 1224.73 169.475 1222.1 172.101C1219.47 174.726 1218 178.287 1218 182C1218 185.713 1219.47 189.274 1222.1 191.899C1224.73 194.525 1228.29 196 1232 196C1235.71 196 1239.27 194.525 1241.9 191.899C1244.53 189.274 1246 185.713 1246 182C1246 178.287 1244.53 174.726 1241.9 172.101C1239.27 169.475 1235.71 168 1232 168V168ZM1239.98 187.102L1237.1 189.983L1232 184.882L1226.9 189.982L1224.02 187.1L1229.12 182L1224.02 176.898L1226.9 174.018L1232 179.118L1237.1 174.017L1239.98 176.898L1234.88 182L1239.98 187.102Z" fill="#BE3846"/>
<path d="M288.082 186.92H285.602V180.7L283.322 181.62C283.136 181.527 282.962 181.387 282.802 181.2C282.656 181.013 282.582 180.767 282.582 180.46C282.582 179.873 282.936 179.453 283.642 179.2L286.182 178.2H286.742C287.156 178.2 287.482 178.32 287.722 178.56C287.962 178.8 288.082 179.133 288.082 179.56V186.92ZM285.602 185.22H288.082V190.5C287.976 190.54 287.822 190.573 287.622 190.6C287.422 190.64 287.202 190.66 286.962 190.66C286.496 190.66 286.149 190.573 285.922 190.4C285.709 190.227 285.602 189.927 285.602 189.5V185.22ZM298.283 184.42C298.283 183.42 298.169 182.6 297.943 181.96C297.729 181.32 297.429 180.847 297.043 180.54C296.669 180.233 296.229 180.08 295.723 180.08C295.243 180.08 294.809 180.24 294.423 180.56C294.036 180.867 293.736 181.34 293.523 181.98C293.309 182.62 293.203 183.433 293.203 184.42C293.203 185.86 293.423 186.947 293.863 187.68C294.303 188.413 294.923 188.78 295.723 188.78C296.536 188.78 297.163 188.413 297.603 187.68C298.056 186.947 298.283 185.86 298.283 184.42ZM295.743 190.78C294.743 190.78 293.863 190.547 293.103 190.08C292.356 189.613 291.769 188.913 291.343 187.98C290.916 187.033 290.703 185.847 290.703 184.42C290.703 182.967 290.929 181.773 291.383 180.84C291.836 179.907 292.443 179.213 293.203 178.76C293.963 178.307 294.809 178.08 295.743 178.08C296.663 178.08 297.503 178.307 298.263 178.76C299.036 179.213 299.649 179.913 300.103 180.86C300.556 181.793 300.783 182.98 300.783 184.42C300.783 185.833 300.569 187.013 300.143 187.96C299.716 188.893 299.123 189.6 298.363 190.08C297.603 190.547 296.729 190.78 295.743 190.78Z" fill="black"/>
<path d="M691.157 178.34L690.637 179.92L690.377 183.14C690.604 183.047 690.884 182.96 691.217 182.88C691.564 182.787 691.951 182.74 692.377 182.74C693.244 182.74 693.984 182.907 694.597 183.24C695.211 183.56 695.684 184.013 696.017 184.6C696.364 185.187 696.537 185.88 696.537 186.68C696.537 187.44 696.364 188.133 696.017 188.76C695.671 189.373 695.144 189.867 694.437 190.24C693.731 190.6 692.844 190.78 691.777 190.78C690.991 190.78 690.297 190.693 689.697 190.52C689.111 190.36 688.651 190.14 688.317 189.86C687.984 189.567 687.817 189.24 687.817 188.88C687.817 188.587 687.904 188.34 688.077 188.14C688.264 187.927 688.457 187.773 688.657 187.68C688.991 187.947 689.397 188.2 689.877 188.44C690.357 188.68 690.951 188.8 691.657 188.8C692.444 188.8 693.037 188.6 693.437 188.2C693.837 187.8 694.037 187.3 694.037 186.7C694.037 186.087 693.837 185.6 693.437 185.24C693.051 184.88 692.504 184.7 691.797 184.7C691.384 184.7 691.017 184.76 690.697 184.88C690.377 184.987 690.057 185.127 689.737 185.3C689.244 185.273 688.844 185.133 688.537 184.88C688.244 184.613 688.097 184.24 688.097 183.76C688.097 183.68 688.097 183.587 688.097 183.48C688.111 183.36 688.124 183.227 688.137 183.08L688.417 179.72C688.457 179.293 688.591 178.96 688.817 178.72C689.044 178.467 689.371 178.34 689.797 178.34H691.157ZM690.057 180.36V178.34H695.737C695.804 178.433 695.864 178.567 695.917 178.74C695.971 178.913 695.997 179.1 695.997 179.3C695.997 179.647 695.917 179.913 695.757 180.1C695.611 180.273 695.391 180.36 695.097 180.36H690.057Z" fill="black"/>
<path d="M881.629 185.36L886.849 178.4C887.036 178.347 887.249 178.307 887.489 178.28C887.729 178.24 887.942 178.22 888.129 178.22C888.422 178.22 888.696 178.26 888.949 178.34C889.216 178.407 889.429 178.54 889.589 178.74C889.762 178.94 889.849 179.233 889.849 179.62V185.8H891.649C891.702 185.907 891.756 186.047 891.809 186.22C891.876 186.393 891.909 186.587 891.909 186.8C891.909 187.147 891.829 187.407 891.669 187.58C891.509 187.74 891.289 187.82 891.009 187.82H889.849V190.52C889.756 190.533 889.602 190.56 889.389 190.6C889.176 190.64 888.969 190.66 888.769 190.66C888.342 190.66 888.016 190.593 887.789 190.46C887.562 190.327 887.449 190.047 887.449 189.62V187.82H882.169C881.956 187.713 881.769 187.54 881.609 187.3C881.449 187.047 881.369 186.76 881.369 186.44C881.369 186.253 881.389 186.067 881.429 185.88C881.469 185.68 881.536 185.507 881.629 185.36ZM887.549 185.8L887.569 180.72H887.509L884.009 185.8H887.549ZM893.637 189.28C893.637 189.067 893.691 188.86 893.797 188.66C893.904 188.46 894.031 188.313 894.177 188.22C894.484 188.367 894.837 188.5 895.237 188.62C895.637 188.727 896.064 188.78 896.517 188.78C897.157 188.78 897.724 188.653 898.217 188.4C898.724 188.147 899.124 187.76 899.417 187.24C899.711 186.707 899.851 186.033 899.837 185.22C899.691 185.353 899.484 185.493 899.217 185.64C898.964 185.787 898.664 185.913 898.317 186.02C897.971 186.127 897.577 186.18 897.137 186.18C896.364 186.18 895.657 186.04 895.017 185.76C894.391 185.48 893.891 185.047 893.517 184.46C893.144 183.873 892.957 183.133 892.957 182.24C892.957 181.427 893.137 180.707 893.497 180.08C893.871 179.453 894.391 178.967 895.057 178.62C895.737 178.26 896.531 178.08 897.437 178.08C898.424 178.08 899.277 178.3 899.997 178.74C900.731 179.18 901.297 179.847 901.697 180.74C902.111 181.633 902.317 182.747 902.317 184.08C902.317 185.64 902.084 186.913 901.617 187.9C901.151 188.887 900.504 189.613 899.677 190.08C898.851 190.547 897.891 190.78 896.797 190.78C895.877 190.78 895.117 190.653 894.517 190.4C893.931 190.147 893.637 189.773 893.637 189.28ZM897.617 184.24C898.097 184.24 898.537 184.127 898.937 183.9C899.337 183.673 899.624 183.407 899.797 183.1H899.777C899.777 182.14 899.577 181.393 899.177 180.86C898.777 180.327 898.191 180.06 897.417 180.06C896.831 180.06 896.351 180.253 895.977 180.64C895.604 181.013 895.417 181.527 895.417 182.18C895.417 182.887 895.631 183.407 896.057 183.74C896.484 184.073 897.004 184.24 897.617 184.24Z" fill="black"/>
<path d="M1058.51 179.84C1058.51 179.493 1058.67 179.187 1058.97 178.92C1059.28 178.653 1059.69 178.447 1060.21 178.3C1060.75 178.153 1061.35 178.08 1062.03 178.08C1062.98 178.08 1063.78 178.233 1064.43 178.54C1065.1 178.833 1065.61 179.253 1065.95 179.8C1066.3 180.333 1066.47 180.953 1066.47 181.66C1066.47 182.38 1066.27 183.087 1065.87 183.78C1065.47 184.46 1064.82 185.187 1063.91 185.96L1060.97 188.54H1066.35C1066.42 188.633 1066.48 188.767 1066.53 188.94C1066.6 189.113 1066.63 189.3 1066.63 189.5C1066.63 189.847 1066.55 190.1 1066.37 190.26C1066.21 190.42 1066.01 190.5 1065.75 190.5H1058.75C1058.54 190.353 1058.37 190.167 1058.25 189.94C1058.15 189.713 1058.09 189.46 1058.09 189.18C1058.09 188.847 1058.16 188.567 1058.29 188.34C1058.43 188.1 1058.59 187.893 1058.77 187.72L1061.95 184.8C1062.73 184.12 1063.25 183.56 1063.53 183.12C1063.81 182.667 1063.95 182.22 1063.95 181.78C1063.95 181.273 1063.77 180.867 1063.39 180.56C1063.03 180.24 1062.5 180.08 1061.79 180.08C1061.23 180.08 1060.73 180.173 1060.29 180.36C1059.85 180.547 1059.49 180.74 1059.19 180.94C1059.01 180.833 1058.85 180.687 1058.71 180.5C1058.58 180.313 1058.51 180.093 1058.51 179.84Z" fill="black"/>
<path d="M125.96 177.25C124.865 177.229 123.969 178.146 123.969 179.242V183.5H123.578V174.896C123.578 173.801 122.682 172.884 121.587 172.905C120.526 172.925 119.672 173.791 119.672 174.857V183.5H119.281V172.992C119.281 171.896 118.385 170.979 117.29 171C116.229 171.021 115.375 171.887 115.375 172.953V183.5H114.984V174.945C114.984 173.85 114.088 172.933 112.993 172.953C111.932 172.974 111.078 173.84 111.078 174.906V186.429L109.533 184.304C108.898 183.432 107.677 183.239 106.804 183.874C105.932 184.508 105.739 185.73 106.374 186.602L112.507 195.035C112.724 195.334 113.009 195.577 113.338 195.745C113.668 195.913 114.032 196 114.402 196H124.05C125.138 196 126.082 195.252 126.331 194.193L127.626 188.692C127.791 187.988 127.875 187.268 127.875 186.545V179.203C127.875 178.137 127.021 177.271 125.96 177.25V177.25Z" fill="#7261E9"/>
<g filter="url(#filter0_d_459_378)">
<rect width="1301" height="73" transform="translate(0 197)" fill="white"/>
<path d="M1200 217C1196.29 217 1192.73 218.475 1190.1 221.101C1187.47 223.726 1186 227.287 1186 231C1186 234.713 1187.47 238.274 1190.1 240.899C1192.73 243.525 1196.29 245 1200 245C1203.71 245 1207.27 243.525 1209.9 240.899C1212.53 238.274 1214 234.713 1214 231C1214 227.287 1212.53 223.726 1209.9 221.101C1207.27 218.475 1203.71 217 1200 217V217ZM1207.98 236.102L1205.1 238.983L1200 233.882L1194.9 238.982L1192.02 236.1L1197.12 231L1192.02 225.898L1194.9 223.018L1200 228.118L1205.1 223.017L1207.98 225.898L1202.88 231L1207.98 236.102Z" fill="#BE3846"/>
<path d="M256.014 228.84C256.014 228.493 256.167 228.187 256.474 227.92C256.78 227.653 257.194 227.447 257.714 227.3C258.247 227.153 258.854 227.08 259.534 227.08C260.48 227.08 261.28 227.233 261.934 227.54C262.6 227.833 263.107 228.253 263.454 228.8C263.8 229.333 263.974 229.953 263.974 230.66C263.974 231.38 263.774 232.087 263.374 232.78C262.974 233.46 262.32 234.187 261.414 234.96L258.474 237.54H263.854C263.92 237.633 263.98 237.767 264.034 237.94C264.1 238.113 264.134 238.3 264.134 238.5C264.134 238.847 264.047 239.1 263.874 239.26C263.714 239.42 263.507 239.5 263.254 239.5H256.254C256.04 239.353 255.874 239.167 255.754 238.94C255.647 238.713 255.594 238.46 255.594 238.18C255.594 237.847 255.66 237.567 255.794 237.34C255.927 237.1 256.087 236.893 256.274 236.72L259.454 233.8C260.227 233.12 260.754 232.56 261.034 232.12C261.314 231.667 261.454 231.22 261.454 230.78C261.454 230.273 261.267 229.867 260.894 229.56C260.534 229.24 260 229.08 259.294 229.08C258.734 229.08 258.234 229.173 257.794 229.36C257.354 229.547 256.987 229.74 256.694 229.94C256.507 229.833 256.347 229.687 256.214 229.5C256.08 229.313 256.014 229.093 256.014 228.84Z" fill="black"/>
<path d="M657.926 232.8L659.186 232.5C659.959 232.327 660.546 232.093 660.946 231.8C661.346 231.493 661.546 231.08 661.546 230.56C661.546 230.053 661.366 229.66 661.006 229.38C660.646 229.1 660.146 228.96 659.506 228.96C658.906 228.96 658.419 229.107 658.046 229.4C657.686 229.693 657.506 230.08 657.506 230.56C657.506 230.96 657.612 231.287 657.826 231.54C658.039 231.78 658.326 231.973 658.686 232.12C659.059 232.253 659.466 232.347 659.906 232.4L661.326 232.92C661.819 233.04 662.292 233.233 662.746 233.5C663.199 233.767 663.566 234.12 663.846 234.56C664.139 235 664.286 235.56 664.286 236.24C664.286 236.987 664.086 237.627 663.686 238.16C663.286 238.693 662.726 239.1 662.006 239.38C661.299 239.66 660.466 239.8 659.506 239.8C658.559 239.8 657.726 239.66 657.006 239.38C656.299 239.087 655.746 238.673 655.346 238.14C654.959 237.607 654.766 236.967 654.766 236.22C654.766 235.54 654.919 234.967 655.226 234.5C655.532 234.033 655.926 233.66 656.406 233.38C656.899 233.087 657.406 232.893 657.926 232.8ZM661.406 233.36L659.806 233.86C658.979 233.98 658.339 234.24 657.886 234.64C657.446 235.04 657.226 235.527 657.226 236.1C657.226 236.66 657.426 237.1 657.826 237.42C658.239 237.727 658.799 237.88 659.506 237.88C660.199 237.88 660.759 237.733 661.186 237.44C661.612 237.133 661.826 236.687 661.826 236.1C661.826 235.46 661.539 234.947 660.966 234.56C660.392 234.173 659.619 233.953 658.646 233.9L657.706 233.42C656.892 233.207 656.246 232.853 655.766 232.36C655.299 231.867 655.066 231.233 655.066 230.46C655.066 229.753 655.252 229.147 655.626 228.64C655.999 228.133 656.519 227.747 657.186 227.48C657.852 227.2 658.626 227.06 659.506 227.06C660.892 227.06 661.986 227.367 662.786 227.98C663.586 228.58 663.986 229.407 663.986 230.46C663.986 231.273 663.739 231.913 663.246 232.38C662.752 232.847 662.139 233.173 661.406 233.36Z" fill="black"/>
<path d="M856.453 235.92H853.973V229.7L851.693 230.62C851.507 230.527 851.333 230.387 851.173 230.2C851.027 230.013 850.953 229.767 850.953 229.46C850.953 228.873 851.307 228.453 852.013 228.2L854.553 227.2H855.113C855.527 227.2 855.853 227.32 856.093 227.56C856.333 227.8 856.453 228.133 856.453 228.56V235.92ZM853.973 234.22H856.453V239.5C856.347 239.54 856.193 239.573 855.993 239.6C855.793 239.64 855.573 239.66 855.333 239.66C854.867 239.66 854.52 239.573 854.293 239.4C854.08 239.227 853.973 238.927 853.973 238.5V234.22ZM867.592 228.54C867.592 228.753 867.539 228.96 867.432 229.16C867.339 229.36 867.212 229.507 867.052 229.6C866.732 229.453 866.379 229.333 865.992 229.24C865.619 229.133 865.239 229.08 864.852 229.08C863.932 229.08 863.179 229.373 862.592 229.96C862.019 230.547 861.686 231.44 861.592 232.64C861.859 232.413 862.239 232.187 862.732 231.96C863.239 231.733 863.812 231.62 864.452 231.62C865.652 231.62 866.626 231.967 867.372 232.66C868.119 233.34 868.492 234.333 868.492 235.64C868.492 236.44 868.312 237.153 867.952 237.78C867.606 238.407 867.099 238.9 866.432 239.26C865.766 239.607 864.952 239.78 863.992 239.78C863.032 239.78 862.186 239.567 861.452 239.14C860.719 238.7 860.146 238.033 859.732 237.14C859.332 236.247 859.132 235.127 859.132 233.78C859.132 232.593 859.272 231.573 859.552 230.72C859.846 229.867 860.246 229.173 860.752 228.64C861.259 228.107 861.839 227.713 862.492 227.46C863.159 227.207 863.872 227.08 864.632 227.08C865.206 227.08 865.712 227.133 866.152 227.24C866.606 227.347 866.959 227.513 867.212 227.74C867.466 227.953 867.592 228.22 867.592 228.54ZM863.992 237.8C864.606 237.8 865.092 237.607 865.452 237.22C865.826 236.833 866.012 236.307 866.012 235.64C866.012 234.96 865.826 234.447 865.452 234.1C865.079 233.753 864.599 233.58 864.012 233.58C863.506 233.58 863.046 233.687 862.632 233.9C862.219 234.113 861.886 234.38 861.632 234.7L861.672 234.86C861.672 235.793 861.879 236.52 862.292 237.04C862.719 237.547 863.286 237.8 863.992 237.8Z" fill="black"/>
<path d="M1033.04 233.42C1033.04 232.42 1032.93 231.6 1032.7 230.96C1032.49 230.32 1032.19 229.847 1031.8 229.54C1031.43 229.233 1030.99 229.08 1030.48 229.08C1030 229.08 1029.57 229.24 1029.18 229.56C1028.8 229.867 1028.5 230.34 1028.28 230.98C1028.07 231.62 1027.96 232.433 1027.96 233.42C1027.96 234.86 1028.18 235.947 1028.62 236.68C1029.06 237.413 1029.68 237.78 1030.48 237.78C1031.3 237.78 1031.92 237.413 1032.36 236.68C1032.82 235.947 1033.04 234.86 1033.04 233.42ZM1030.5 239.78C1029.5 239.78 1028.62 239.547 1027.86 239.08C1027.12 238.613 1026.53 237.913 1026.1 236.98C1025.68 236.033 1025.46 234.847 1025.46 233.42C1025.46 231.967 1025.69 230.773 1026.14 229.84C1026.6 228.907 1027.2 228.213 1027.96 227.76C1028.72 227.307 1029.57 227.08 1030.5 227.08C1031.42 227.08 1032.26 227.307 1033.02 227.76C1033.8 228.213 1034.41 228.913 1034.86 229.86C1035.32 230.793 1035.54 231.98 1035.54 233.42C1035.54 234.833 1035.33 236.013 1034.9 236.96C1034.48 237.893 1033.88 238.6 1033.12 239.08C1032.36 239.547 1031.49 239.78 1030.5 239.78Z" fill="black"/>
<path d="M93.96 226.25C92.865 226.229 91.9688 227.146 91.9688 228.242V232.5H91.5781V223.896C91.5781 222.801 90.6818 221.884 89.5869 221.905C88.5258 221.925 87.6719 222.791 87.6719 223.857V232.5H87.2813V221.992C87.2813 220.896 86.385 219.979 85.29 220C84.2289 220.021 83.375 220.887 83.375 221.953V232.5H82.9844V223.945C82.9844 222.85 82.0881 221.933 80.9931 221.953C79.932 221.974 79.0781 222.84 79.0781 223.906V235.429L77.5328 233.304C76.8984 232.432 75.6769 232.239 74.8044 232.874C73.9321 233.508 73.7393 234.73 74.3737 235.602L80.5065 244.035C80.724 244.334 81.009 244.577 81.3385 244.745C81.6679 244.913 82.0323 245 82.402 245H92.05C93.1376 245 94.0823 244.252 94.3314 243.193L95.6257 237.692C95.7913 236.988 95.8749 236.268 95.875 235.545V228.203C95.875 227.137 95.0211 226.271 93.96 226.25V226.25Z" fill="#7261E9"/>
</g>
<defs>
<filter id="filter0_d_459_378" x="0" y="197" width="1309" height="81" filterUnits="userSpaceOnUse" color-interpolation-filters="sRGB">
<feFlood flood-opacity="0" result="BackgroundImageFix"/>
<feColorMatrix in="SourceAlpha" type="matrix" values="0 0 0 0 0 0 0 0 0 0 0 0 0 0 0 0 0 0 127 0" result="hardAlpha"/>
<feOffset dx="4" dy="4"/>
<feGaussianBlur stdDeviation="2"/>
<feComposite in2="hardAlpha" operator="out"/>
<feColorMatrix type="matrix" values="0 0 0 0 0 0 0 0 0 0 0 0 0 0 0 0 0 0 0.25 0"/>
<feBlend mode="normal" in2="BackgroundImageFix" result="effect1_dropShadow_459_378"/>
<feBlend mode="normal" in="SourceGraphic" in2="effect1_dropShadow_459_378" result="shape"/>
</filter>
</defs>
</svg>
